Solenne_Nova.ufo
<glyph name="exclam" format="2">
  <advance width="366"/>
  <unicode hex="0021"/>
  <outline>
    <contour>
      <point x="35" y="102" type="curve" smooth="yes"/>
      <point x="38.333" y="128"/>
      <point x="50.333" y="146.5"/>
      <point x="71" y="157.5" type="curve" smooth="yes"/>
      <point x="91.667" y="168.5"/>
      <point x="105" y="173.333"/>
      <point x="111" y="172" type="curve" smooth="yes"/>
      <point x="117" y="170.667"/>
      <point x="130" y="160.834"/>
      <point x="150" y="142.501" type="curve" smooth="yes"/>
      <point x="170" y="124.168"/>
      <point x="182.333" y="103.668"/>
      <point x="187" y="81.001" type="curve" smooth="yes"/>
      <point x="191.667" y="58.334"/>
      <point x="188" y="39.167"/>
      <point x="176" y="23.5" type="curve" smooth="yes"/>
      <point x="164" y="7.83301"/>
      <point x="145.167" y="0"/>
      <point x="119.5" y="0" type="curve" smooth="yes"/>
      <point x="93.833" y="0"/>
      <point x="72.5" y="10.5"/>
      <point x="55.5" y="31.5" type="curve" smooth="yes"/>
      <point x="38.5" y="52.5"/>
      <point x="31.667" y="76"/>
    </contour>
    <contour>
      <point x="124.5" y="977.5" type="curve" smooth="yes"/>
      <point x="130.167" y="1100.5"/>
      <point x="137.83" y="1169.5"/>
      <point x="147.497" y="1184.5" type="curve" smooth="yes"/>
      <point x="157.164" y="1199.5"/>
      <point x="170.164" y="1210.5"/>
      <point x="186.497" y="1217.5" type="curve" smooth="yes"/>
      <point x="202.83" y="1224.5"/>
      <point x="215.163" y="1228.17"/>
      <point x="223.496" y="1228.5" type="curve" smooth="yes"/>
      <point x="231.829" y="1228.83"/>
      <point x="248.329" y="1226"/>
      <point x="272.996" y="1220" type="curve" smooth="yes"/>
      <point x="297.663" y="1214"/>
      <point x="313.33" y="1206.33"/>
      <point x="319.997" y="1197" type="curve" smooth="yes"/>
      <point x="333.997" y="1178.33"/>
      <point x="335.33" y="1133.33"/>
      <point x="323.997" y="1062" type="curve" smooth="yes"/>
      <point x="312.664" y="990.666"/>
      <point x="289.331" y="869.333"/>
      <point x="253.998" y="698" type="curve" smooth="yes"/>
      <point x="218.665" y="526.667"/>
      <point x="197.165" y="416"/>
      <point x="189.498" y="366" type="curve" smooth="yes"/>
      <point x="181.831" y="316"/>
      <point x="173.831" y="281.667"/>
      <point x="165.498" y="263" type="curve" smooth="yes"/>
      <point x="157.165" y="244.333"/>
      <point x="146.498" y="235"/>
      <point x="133.498" y="235" type="curve" smooth="yes"/>
      <point x="120.498" y="235"/>
      <point x="112.665" y="245"/>
      <point x="109.998" y="265" type="curve" smooth="yes"/>
      <point x="107.331" y="285"/>
      <point x="109.331" y="321.667"/>
      <point x="115.998" y="375" type="curve" smooth="yes"/>
      <point x="122.665" y="428.333"/>
      <point x="124.332" y="511.333"/>
      <point x="120.999" y="624" type="curve" smooth="yes"/>
      <point x="117.666" y="736.667"/>
      <point x="118.833" y="854.5"/>
    </contour>
  </outline>
</glyph>
<glyph name="quotedbl" format="2">
  <advance width="488"/>
  <unicode hex="0022"/>
  <outline>
    <contour>
      <point x="212" y="1236" type="curve" smooth="yes"/>
      <point x="221.333" y="1238"/>
      <point x="231.331" y="1234.83"/>
      <point x="241.998" y="1226.5" type="curve" smooth="yes"/>
      <point x="252.665" y="1218.17"/>
      <point x="257.998" y="1209.67"/>
      <point x="257.998" y="1201" type="curve" smooth="yes"/>
      <point x="257.998" y="1143.67"/>
      <point x="194.665" y="1062.33"/>
      <point x="67.998" y="957" type="curve" smooth="yes"/>
      <point x="57.3311" y="947.667"/>
      <point x="48.998" y="946.167"/>
      <point x="42.998" y="952.5" type="curve" smooth="yes"/>
      <point x="36.998" y="958.833"/>
      <point x="34.3311" y="963.833"/>
      <point x="34.998" y="967.5" type="curve" smooth="yes"/>
      <point x="35.665" y="971.167"/>
      <point x="43.332" y="980"/>
      <point x="57.999" y="994" type="curve" smooth="yes"/>
      <point x="72.666" y="1008"/>
      <point x="89.999" y="1033.5"/>
      <point x="109.999" y="1070.5" type="curve" smooth="yes"/>
      <point x="129.999" y="1107.5"/>
      <point x="145.332" y="1147"/>
      <point x="155.999" y="1189" type="curve" smooth="yes"/>
      <point x="162.666" y="1214.33"/>
      <point x="181.333" y="1230"/>
    </contour>
    <contour>
      <point x="356.998" y="1212" type="curve" smooth="yes"/>
      <point x="362.998" y="1220"/>
      <point x="372.83" y="1226.83"/>
      <point x="386.497" y="1232.5" type="curve" smooth="yes"/>
      <point x="400.164" y="1238.17"/>
      <point x="408.497" y="1241"/>
      <point x="411.497" y="1241" type="curve" smooth="yes"/>
      <point x="414.497" y="1241"/>
      <point x="420.33" y="1239"/>
      <point x="428.997" y="1235" type="curve" smooth="yes"/>
      <point x="460.263" y="1219.37"/>
      <point x="460.93" y="1185.7"/>
      <point x="430.998" y="1134" type="curve" smooth="yes"/>
      <point x="415.415" y="1107.08"/>
      <point x="400.853" y="1086.85"/>
      <point x="387.311" y="1073.31" type="curve" smooth="yes"/>
      <point x="373.769" y="1059.77"/>
      <point x="358.664" y="1043.67"/>
      <point x="341.997" y="1025" type="curve" smooth="yes"/>
      <point x="325.33" y="1006.33"/>
      <point x="308.33" y="989.998"/>
      <point x="290.997" y="975.998" type="curve" smooth="yes"/>
      <point x="249.83" y="942.748"/>
      <point x="230.163" y="937.581"/>
      <point x="231.996" y="960.498" type="curve" smooth="yes"/>
      <point x="232.663" y="968.831"/>
      <point x="237.33" y="977.331"/>
      <point x="245.997" y="985.998" type="curve" smooth="yes"/>
      <point x="288.664" y="1028.67"/>
      <point x="319.331" y="1087.33"/>
      <point x="337.998" y="1162" type="curve" smooth="yes"/>
      <point x="344.665" y="1187.33"/>
      <point x="350.998" y="1204"/>
    </contour>
  </outline>
</glyph>
<glyph name="numbersign" format="2">
  <advance width="863"/>
  <unicode hex="0023"/>
  <outline>
    <contour>
      <point x="574" y="530" type="qcurve"/>
      <point x="552" y="548"/>
      <point x="494" y="543"/>
      <point x="481" y="521" type="qcurve" smooth="yes"/>
      <point x="466" y="496"/>
      <point x="428" y="389"/>
      <point x="432" y="379" type="qcurve" smooth="yes"/>
      <point x="436" y="367"/>
      <point x="476" y="357"/>
      <point x="497" y="362" type="qcurve" smooth="yes"/>
      <point x="520" y="368"/>
      <point x="571" y="442"/>
      <point x="587" y="513"/>
    </contour>
    <contour>
      <point x="546" y="922" type="qcurve" smooth="yes"/>
      <point x="554" y="942"/>
      <point x="568" y="952"/>
      <point x="583" y="950" type="qcurve" smooth="yes"/>
      <point x="610" y="947"/>
      <point x="609" y="883"/>
      <point x="581" y="789" type="qcurve" smooth="yes"/>
      <point x="567" y="743"/>
      <point x="555" y="693"/>
      <point x="555" y="663"/>
      <point x="568" y="654"/>
      <point x="583" y="654" type="qcurve" smooth="yes"/>
      <point x="623" y="654"/>
      <point x="676" y="728"/>
      <point x="717" y="842" type="qcurve" smooth="yes"/>
      <point x="742" y="909"/>
      <point x="757" y="930"/>
      <point x="779" y="930" type="qcurve" smooth="yes"/>
      <point x="807" y="930"/>
      <point x="810" y="895"/>
      <point x="788" y="820" type="qcurve" smooth="yes"/>
      <point x="767" y="744"/>
      <point x="757" y="675"/>
      <point x="773" y="645"/>
      <point x="800" y="638" type="qcurve" smooth="yes"/>
      <point x="819" y="634"/>
      <point x="828" y="621"/>
      <point x="828" y="601" type="qcurve" smooth="yes"/>
      <point x="828" y="549"/>
      <point x="751" y="549" type="qcurve" smooth="yes"/>
      <point x="723" y="549"/>
      <point x="673" y="490"/>
      <point x="643" y="422" type="qcurve" smooth="yes"/>
      <point x="621" y="372"/>
      <point x="637" y="344"/>
      <point x="696" y="334" type="qcurve" smooth="yes"/>
      <point x="747" y="325"/>
      <point x="748" y="296" type="qcurve" smooth="yes"/>
      <point x="750" y="269"/>
      <point x="712" y="253" type="qcurve" smooth="yes"/>
      <point x="686" y="242"/>
      <point x="652" y="245" type="qcurve" smooth="yes"/>
      <point x="607" y="249"/>
      <point x="594" y="243" type="qcurve" smooth="yes"/>
      <point x="575" y="232"/>
      <point x="540" y="167" type="qcurve" smooth="yes"/>
      <point x="533" y="154"/>
      <point x="508" y="106" type="qcurve" smooth="yes"/>
      <point x="463" y="20"/>
      <point x="432" y="-25"/>
      <point x="418" y="-25" type="qcurve" smooth="yes"/>
      <point x="375" y="-25"/>
      <point x="405" y="64" type="qcurve" smooth="yes"/>
      <point x="415" y="91"/>
      <point x="431" y="129" type="qcurve" smooth="yes"/>
      <point x="451" y="176"/>
      <point x="467" y="219"/>
      <point x="467" y="249"/>
      <point x="450" y="256"/>
      <point x="429" y="258" type="qcurve" smooth="yes"/>
      <point x="388" y="261"/>
      <point x="348" y="226"/>
      <point x="323" y="167" type="qcurve" smooth="yes"/>
      <point x="245" y="-24"/>
      <point x="202" y="-23" type="qcurve" smooth="yes"/>
      <point x="193" y="-22"/>
      <point x="186" y="-15" type="qcurve" smooth="yes"/>
      <point x="172" y="-1"/>
      <point x="185" y="56"/>
      <point x="221" y="134" type="qcurve" smooth="yes"/>
      <point x="234" y="161"/>
      <point x="246" y="187"/>
      <point x="256" y="219"/>
      <point x="259" y="231"/>
      <point x="252" y="247"/>
      <point x="242" y="250"/>
      <point x="215" y="256"/>
      <point x="191" y="256"/>
      <point x="167" y="256" type="qcurve" smooth="yes"/>
      <point x="79" y="257"/>
      <point x="47" y="264"/>
      <point x="40" y="287" type="qcurve" smooth="yes"/>
      <point x="39" y="289"/>
      <point x="39" y="290" type="qcurve" smooth="yes"/>
      <point x="31" y="315"/>
      <point x="44" y="361"/>
      <point x="61" y="368" type="qcurve" smooth="yes"/>
      <point x="77" y="374"/>
      <point x="225" y="372"/>
      <point x="254" y="365" type="qcurve" smooth="yes"/>
      <point x="296" y="356"/>
      <point x="336" y="394"/>
      <point x="364" y="474" type="qcurve" smooth="yes"/>
      <point x="387" y="536"/>
      <point x="362" y="558"/>
      <point x="274" y="553" type="qcurve" smooth="yes"/>
      <point x="176" y="547"/>
      <point x="165" y="559" type="qcurve" smooth="yes"/>
      <point x="134" y="597"/>
      <point x="185" y="676"/>
      <point x="236" y="668" type="qcurve" smooth="yes"/>
      <point x="292" y="660"/>
      <point x="352" y="654"/>
      <point x="413" y="660"/>
      <point x="441" y="675"/>
      <point x="475" y="716"/>
      <point x="495" y="763"/>
      <point x="511" y="807" type="qcurve" smooth="yes"/>
      <point x="533" y="867"/>
      <point x="533" y="880" type="qcurve" smooth="yes"/>
      <point x="533" y="890"/>
    </contour>
  </outline>
</glyph>
<glyph name="dollar" format="2">
  <advance width="880"/>
  <unicode hex="0024"/>
  <outline>
    <contour>
      <point x="503.5" y="321" type="curve" smooth="yes"/>
      <point x="511.167" y="387.667"/>
      <point x="509.833" y="430.5"/>
      <point x="499.5" y="449.5" type="curve" smooth="yes"/>
      <point x="489.167" y="468.5"/>
      <point x="479.667" y="473.5"/>
      <point x="471" y="464.5" type="curve" smooth="yes"/>
      <point x="462.333" y="455.5"/>
      <point x="449.666" y="434"/>
      <point x="432.999" y="400" type="curve" smooth="yes"/>
      <point x="416.332" y="366"/>
      <point x="394.999" y="306.833"/>
      <point x="368.999" y="222.5" type="curve" smooth="yes"/>
      <point x="342.999" y="138.167"/>
      <point x="331.666" y="91.667"/>
      <point x="334.999" y="83" type="curve" smooth="yes"/>
      <point x="342.332" y="63"/>
      <point x="360.499" y="63"/>
      <point x="389.499" y="83" type="curve" smooth="yes"/>
      <point x="418.499" y="103"/>
      <point x="442.832" y="131"/>
      <point x="462.499" y="167" type="curve" smooth="yes"/>
      <point x="482.166" y="203"/>
      <point x="495.833" y="254.333"/>
    </contour>
    <contour>
      <point x="567.999" y="994" type="curve" smooth="yes"/>
      <point x="567.999" y="1010.67"/>
      <point x="555.998" y="1011.5"/>
      <point x="531.998" y="996.499" type="curve" smooth="yes"/>
      <point x="507.998" y="981.499"/>
      <point x="486.998" y="957.666"/>
      <point x="468.998" y="924.999" type="curve" smooth="yes"/>
      <point x="468.998" y="923.666"/>
      <point x="468.665" y="922.666"/>
      <point x="467.998" y="921.999" type="curve" smooth="yes"/>
      <point x="449.998" y="885.999"/>
      <point x="442.831" y="852.999"/>
      <point x="446.498" y="822.999" type="curve" smooth="yes"/>
      <point x="450.165" y="792.999"/>
      <point x="457.332" y="778.666"/>
      <point x="467.999" y="779.999" type="curve" smooth="yes"/>
      <point x="471.999" y="779.999"/>
      <point x="477.166" y="782.832"/>
      <point x="483.499" y="788.499" type="curve" smooth="yes"/>
      <point x="489.832" y="794.166"/>
      <point x="505.499" y="826.833"/>
      <point x="530.499" y="886.5" type="curve" smooth="yes"/>
      <point x="555.499" y="946.167"/>
      <point x="567.999" y="982"/>
    </contour>
    <contour>
      <point x="533.998" y="1106" type="curve" smooth="yes"/>
      <point x="566.665" y="1116.67"/>
      <point x="589.664" y="1125.83"/>
      <point x="602.997" y="1133.5" type="curve" smooth="yes"/>
      <point x="616.33" y="1141.17"/>
      <point x="625.497" y="1141"/>
      <point x="630.497" y="1133" type="curve" smooth="yes"/>
      <point x="635.497" y="1125"/>
      <point x="646.664" y="1119.5"/>
      <point x="663.997" y="1116.5" type="curve" smooth="yes"/>
      <point x="681.33" y="1113.5"/>
      <point x="709.83" y="1093.83"/>
      <point x="749.497" y="1057.5" type="curve" smooth="yes"/>
      <point x="789.164" y="1021.17"/>
      <point x="816.497" y="988.668"/>
      <point x="831.497" y="960.001" type="curve" smooth="yes"/>
      <point x="846.497" y="931.334"/>
      <point x="850.83" y="899.001"/>
      <point x="844.497" y="863.001" type="curve" smooth="yes"/>
      <point x="835.297" y="810.705"/>
      <point x="819.464" y="797.038"/>
      <point x="796.997" y="822.001" type="curve" smooth="yes"/>
      <point x="791.664" y="828.001"/>
      <point x="784.331" y="846.334"/>
      <point x="774.998" y="877.001" type="curve" smooth="yes"/>
      <point x="765.665" y="907.668"/>
      <point x="753.665" y="934.501"/>
      <point x="738.998" y="957.501" type="curve" smooth="yes"/>
      <point x="724.331" y="980.501"/>
      <point x="708.164" y="991.001"/>
      <point x="690.497" y="989.001" type="curve" smooth="yes"/>
      <point x="672.83" y="987.001"/>
      <point x="660.33" y="980.334"/>
      <point x="652.997" y="969.001" type="curve" smooth="yes"/>
      <point x="645.664" y="957.668"/>
      <point x="635.664" y="935.001"/>
      <point x="622.997" y="901.001" type="curve" smooth="yes"/>
      <point x="610.33" y="867.001"/>
      <point x="593.997" y="825.001"/>
      <point x="573.997" y="775.001" type="curve" smooth="yes"/>
      <point x="553.997" y="725.001"/>
      <point x="545.83" y="692.168"/>
      <point x="549.497" y="676.501" type="curve" smooth="yes"/>
      <point x="553.164" y="660.834"/>
      <point x="572.331" y="634.334"/>
      <point x="606.998" y="597.001" type="curve" smooth="yes"/>
      <point x="738.998" y="455.668"/>
      <point x="749.665" y="307.335"/>
      <point x="638.998" y="152.002" type="curve" smooth="yes"/>
      <point x="608.998" y="110.002"/>
      <point x="572.831" y="75.6689"/>
      <point x="530.498" y="49.002" type="curve" smooth="yes"/>
      <point x="488.165" y="22.335"/>
      <point x="450.165" y="5.00195"/>
      <point x="416.498" y="-2.99805" type="curve" smooth="yes"/>
      <point x="382.831" y="-10.998"/>
      <point x="352.664" y="-17.8311"/>
      <point x="325.997" y="-23.498" type="curve" smooth="yes"/>
      <point x="299.33" y="-29.165"/>
      <point x="284.33" y="-34.332"/>
      <point x="280.997" y="-38.999" type="curve" smooth="yes"/>
      <point x="238.997" y="-139.666"/>
      <point x="209.664" y="-194.333"/>
      <point x="192.997" y="-203" type="curve" smooth="yes"/>
      <point x="184.997" y="-207"/>
      <point x="176.164" y="-202.5"/>
      <point x="166.497" y="-189.5" type="curve" smooth="yes"/>
      <point x="156.83" y="-176.5"/>
      <point x="153.867" y="-163.367"/>
      <point x="157.608" y="-150.102" type="curve" smooth="yes"/>
      <point x="161.35" y="-136.836"/>
      <point x="172.646" y="-109.136"/>
      <point x="191.496" y="-67" type="curve" smooth="yes"/>
      <point x="204.638" y="-37.625"/>
      <point x="187.138" y="-8.625"/>
      <point x="138.996" y="20" type="curve" smooth="yes"/>
      <point x="69.6631" y="60"/>
      <point x="34.9961" y="124.667"/>
      <point x="34.9961" y="214" type="curve" smooth="yes"/>
      <point x="34.9961" y="252"/>
      <point x="42.3291" y="289"/>
      <point x="56.9961" y="325" type="curve" smooth="yes"/>
      <point x="71.6631" y="361"/>
      <point x="90.3301" y="388.333"/>
      <point x="112.997" y="407" type="curve" smooth="yes"/>
      <point x="135.664" y="425.667"/>
      <point x="157.664" y="431"/>
      <point x="178.997" y="423" type="curve" smooth="yes"/>
      <point x="187.664" y="419.667"/>
      <point x="192.164" y="410.334"/>
      <point x="192.497" y="395.001" type="curve" smooth="yes"/>
      <point x="192.83" y="379.668"/>
      <point x="188.663" y="367.335"/>
      <point x="179.996" y="358.002" type="curve" smooth="yes"/>
      <point x="143.996" y="317.335"/>
      <point x="124.996" y="273.168"/>
      <point x="122.996" y="225.501" type="curve" smooth="yes"/>
      <point x="120.996" y="177.834"/>
      <point x="136.663" y="139.667"/>
      <point x="169.996" y="111" type="curve" smooth="yes"/>
      <point x="182.663" y="100.333"/>
      <point x="193.496" y="94.666"/>
      <point x="202.496" y="93.999" type="curve" smooth="yes"/>
      <point x="211.496" y="93.332"/>
      <point x="222.798" y="101.501"/>
      <point x="236.401" y="118.505" type="curve" smooth="yes"/>
      <point x="250.005" y="135.509"/>
      <point x="271.838" y="186.176"/>
      <point x="301.901" y="270.505" type="curve" smooth="yes"/>
      <point x="331.965" y="354.834"/>
      <point x="354.996" y="416.332"/>
      <point x="370.996" y="454.999" type="curve" smooth="yes"/>
      <point x="386.996" y="493.666"/>
      <point x="396.329" y="520.833"/>
      <point x="398.996" y="536.5" type="curve" smooth="yes"/>
      <point x="401.663" y="552.167"/>
      <point x="399.83" y="566.167"/>
      <point x="393.497" y="578.5" type="curve" smooth="yes"/>
      <point x="387.164" y="590.833"/>
      <point x="372.331" y="606.666"/>
      <point x="348.998" y="625.999" type="curve" smooth="yes"/>
      <point x="289.665" y="677.999"/>
      <point x="257.998" y="736.499"/>
      <point x="253.998" y="801.499" type="curve" smooth="yes"/>
      <point x="249.998" y="866.499"/>
      <point x="273.165" y="926.999"/>
      <point x="323.498" y="982.999" type="curve" smooth="yes"/>
      <point x="373.831" y="1039"/>
      <point x="443.998" y="1080"/>
    </contour>
  </outline>
</glyph>
<glyph name="percent" format="2">
  <advance width="811"/>
  <unicode hex="0025"/>
  <outline>
    <contour>
      <point x="652" y="395" type="curve" smooth="yes"/>
      <point x="631.333" y="417.667"/>
      <point x="607.666" y="417.165"/>
      <point x="580.999" y="393.498" type="curve" smooth="yes"/>
      <point x="554.332" y="369.831"/>
      <point x="531.999" y="329.331"/>
      <point x="513.999" y="271.998" type="curve" smooth="yes"/>
      <point x="468.666" y="125.998"/>
      <point x="458.999" y="38.3311"/>
      <point x="484.999" y="8.99805" type="curve" smooth="yes"/>
      <point x="502.332" y="-11.002"/>
      <point x="533.999" y="2.33105"/>
      <point x="579.999" y="48.998" type="curve" smooth="yes"/>
      <point x="625.999" y="95.665"/>
      <point x="656.832" y="156.832"/>
      <point x="672.499" y="232.499" type="curve" smooth="yes"/>
      <point x="688.166" y="308.166"/>
      <point x="681.333" y="362.333"/>
    </contour>
    <contour>
      <point x="595" y="490.998" type="curve" smooth="yes"/>
      <point x="615.667" y="497.665"/>
      <point x="640.831" y="492.663"/>
      <point x="670.498" y="475.996" type="curve" smooth="yes"/>
      <point x="700.165" y="459.329"/>
      <point x="722.832" y="436.996"/>
      <point x="738.499" y="408.996" type="curve" smooth="yes"/>
      <point x="754.166" y="380.996"/>
      <point x="756.166" y="326.996"/>
      <point x="744.499" y="246.996" type="curve" smooth="yes"/>
      <point x="732.832" y="166.996"/>
      <point x="714.332" y="109.163"/>
      <point x="688.999" y="73.4961" type="curve" smooth="yes"/>
      <point x="663.666" y="37.8291"/>
      <point x="636.499" y="7.99609"/>
      <point x="607.499" y="-16.0039" type="curve" smooth="yes"/>
      <point x="578.499" y="-40.0039"/>
      <point x="546.999" y="-54.5039"/>
      <point x="512.999" y="-59.5039" type="curve" smooth="yes"/>
      <point x="478.999" y="-64.5039"/>
      <point x="445.666" y="-58.3369"/>
      <point x="412.999" y="-41.0039" type="curve" smooth="yes"/>
      <point x="380.332" y="-23.6709"/>
      <point x="357.332" y="2.16211"/>
      <point x="343.999" y="36.4951" type="curve" smooth="yes"/>
      <point x="314.782" y="111.729"/>
      <point x="328.449" y="205.896"/>
      <point x="384.999" y="318.996" type="curve" smooth="yes"/>
      <point x="407.666" y="363.663"/>
      <point x="435.333" y="399.33"/>
      <point x="468" y="425.997" type="curve" smooth="yes"/>
      <point x="500.667" y="452.664"/>
      <point x="543" y="474.331"/>
    </contour>
    <contour>
      <point x="604.997" y="1121" type="curve" smooth="yes"/>
      <point x="666.997" y="1241"/>
      <point x="701.329" y="1305.66"/>
      <point x="707.996" y="1315" type="curve" smooth="yes"/>
      <point x="714.663" y="1324.33"/>
      <point x="726.496" y="1329.83"/>
      <point x="743.496" y="1331.5" type="curve" smooth="yes"/>
      <point x="760.496" y="1333.16"/>
      <point x="770.663" y="1329.66"/>
      <point x="773.996" y="1321" type="curve" smooth="yes"/>
      <point x="777.329" y="1312.33"/>
      <point x="743.996" y="1237.66"/>
      <point x="673.996" y="1097" type="curve" smooth="yes"/>
      <point x="603.996" y="956.329"/>
      <point x="553.996" y="861.829"/>
      <point x="523.996" y="813.496" type="curve" smooth="yes"/>
      <point x="493.996" y="765.163"/>
      <point x="414.478" y="614.11"/>
      <point x="285.441" y="360.339" type="curve" smooth="yes"/>
      <point x="156.405" y="106.567"/>
      <point x="86.7383" y="-24.4326"/>
      <point x="76.4414" y="-32.6611" type="curve" smooth="yes"/>
      <point x="66.1445" y="-40.8896"/>
      <point x="56.9961" y="-43.0039"/>
      <point x="48.9961" y="-39.0039" type="curve" smooth="yes"/>
      <point x="40.9961" y="-35.0039"/>
      <point x="36.3291" y="-26.0039"/>
      <point x="34.9961" y="-12.0039" type="curve" smooth="yes"/>
      <point x="33.6631" y="1.99609"/>
      <point x="75.3301" y="96.8291"/>
      <point x="159.997" y="272.496" type="curve" smooth="yes"/>
      <point x="244.664" y="448.163"/>
      <point x="295.497" y="547.663"/>
      <point x="312.497" y="570.996" type="curve" smooth="yes"/>
      <point x="329.497" y="594.329"/>
      <point x="362.83" y="655.996"/>
      <point x="412.497" y="755.996" type="curve" smooth="yes"/>
      <point x="462.164" y="855.996"/>
      <point x="491.164" y="911.829"/>
      <point x="499.497" y="923.496" type="curve" smooth="yes"/>
      <point x="507.83" y="935.163"/>
      <point x="542.997" y="1001"/>
    </contour>
    <contour>
      <point x="370.996" y="1244" type="curve" smooth="yes"/>
      <point x="342.329" y="1276"/>
      <point x="314.328" y="1269.66"/>
      <point x="286.995" y="1225" type="curve" smooth="yes"/>
      <point x="268.995" y="1195.66"/>
      <point x="245.828" y="1138.16"/>
      <point x="217.495" y="1052.5" type="curve" smooth="yes"/>
      <point x="189.162" y="966.83"/>
      <point x="184.329" y="903.997"/>
      <point x="202.996" y="863.997" type="curve" smooth="yes"/>
      <point x="216.329" y="833.997"/>
      <point x="243.67" y="833.62"/>
      <point x="285.019" y="862.866" type="curve" smooth="yes"/>
      <point x="326.367" y="892.112"/>
      <point x="358.859" y="954.822"/>
      <point x="382.495" y="1051" type="curve" smooth="yes"/>
      <point x="392.162" y="1090.33"/>
      <point x="396.329" y="1128.33"/>
      <point x="394.996" y="1165" type="curve" smooth="yes"/>
      <point x="393.663" y="1201.66"/>
      <point x="385.663" y="1228"/>
    </contour>
    <contour>
      <point x="185.995" y="1275" type="curve" smooth="yes"/>
      <point x="203.328" y="1291.66"/>
      <point x="233.664" y="1307.33"/>
      <point x="276.997" y="1322" type="curve" smooth="yes"/>
      <point x="320.33" y="1336.66"/>
      <point x="356.163" y="1339"/>
      <point x="384.496" y="1329" type="curve" smooth="yes"/>
      <point x="412.829" y="1319"/>
      <point x="435.662" y="1297.16"/>
      <point x="452.995" y="1263.5" type="curve" smooth="yes"/>
      <point x="470.328" y="1229.83"/>
      <point x="474.328" y="1172.83"/>
      <point x="464.995" y="1092.5" type="curve" smooth="yes"/>
      <point x="455.662" y="1012.16"/>
      <point x="439.495" y="949.83"/>
      <point x="416.495" y="905.497" type="curve" smooth="yes"/>
      <point x="393.495" y="861.164"/>
      <point x="353.828" y="826.497"/>
      <point x="297.495" y="801.497" type="curve" smooth="yes"/>
      <point x="241.162" y="776.497"/>
      <point x="192.662" y="773.33"/>
      <point x="151.995" y="791.997" type="curve" smooth="yes"/>
      <point x="92.6621" y="819.33"/>
      <point x="59.4951" y="869.163"/>
      <point x="52.4951" y="941.496" type="curve" smooth="yes"/>
      <point x="45.4951" y="1013.83"/>
      <point x="66.3281" y="1091.33"/>
      <point x="114.995" y="1174" type="curve" smooth="yes"/>
      <point x="144.995" y="1224.66"/>
      <point x="168.662" y="1258.33"/>
    </contour>
  </outline>
</glyph>
<glyph name="ampersand" format="2">
  <advance width="1124"/>
  <unicode hex="0026"/>
  <outline>
    <contour>
      <point x="546" y="1236" type="curve" smooth="yes"/>
      <point x="631.333" y="1253.33"/>
      <point x="702.33" y="1239.67"/>
      <point x="758.997" y="1195" type="curve" smooth="yes"/>
      <point x="815.664" y="1150.33"/>
      <point x="846.331" y="1084"/>
      <point x="850.998" y="995.999" type="curve" smooth="yes"/>
      <point x="852.998" y="953.332"/>
      <point x="850.498" y="921.832"/>
      <point x="843.498" y="901.499" type="curve" smooth="yes"/>
      <point x="836.498" y="881.166"/>
      <point x="816.498" y="852.499"/>
      <point x="783.498" y="815.499" type="curve" smooth="yes"/>
      <point x="750.498" y="778.499"/>
      <point x="721.165" y="760.166"/>
      <point x="695.498" y="760.499" type="curve" smooth="yes"/>
      <point x="647.887" y="761.117"/>
      <point x="647.581" y="799.096"/>
      <point x="694.582" y="874.435" type="curve" smooth="yes"/>
      <point x="741.583" y="949.773"/>
      <point x="750.722" y="1017.96"/>
      <point x="721.998" y="1079" type="curve" smooth="yes"/>
      <point x="702.665" y="1121"/>
      <point x="674.998" y="1147.33"/>
      <point x="638.998" y="1158" type="curve" smooth="yes"/>
      <point x="602.998" y="1168.67"/>
      <point x="567.998" y="1162.33"/>
      <point x="533.998" y="1139" type="curve" smooth="yes"/>
      <point x="499.998" y="1115.67"/>
      <point x="475.665" y="1079.83"/>
      <point x="460.998" y="1031.5" type="curve" smooth="yes"/>
      <point x="446.331" y="983.167"/>
      <point x="454.331" y="931.834"/>
      <point x="484.998" y="877.501" type="curve" smooth="yes"/>
      <point x="515.665" y="823.168"/>
      <point x="555.332" y="789.001"/>
      <point x="603.999" y="775.001" type="curve" smooth="yes"/>
      <point x="622.666" y="769.668"/>
      <point x="634.333" y="759.335"/>
      <point x="639" y="744.002" type="curve" smooth="yes"/>
      <point x="643.667" y="728.669"/>
      <point x="640.667" y="713.669"/>
      <point x="630" y="699.002" type="curve" smooth="yes"/>
      <point x="619.333" y="684.335"/>
      <point x="603.666" y="675.002"/>
      <point x="582.999" y="671.002" type="curve" smooth="yes"/>
      <point x="457.71" y="648.343"/>
      <point x="365.297" y="598.533"/>
      <point x="305.761" y="521.572" type="curve" smooth="yes"/>
      <point x="246.225" y="444.611"/>
      <point x="224.304" y="364.755"/>
      <point x="239.998" y="282.002" type="curve" smooth="yes"/>
      <point x="247.331" y="243.335"/>
      <point x="263.998" y="206.668"/>
      <point x="289.998" y="172.001" type="curve" smooth="yes"/>
      <point x="315.998" y="137.334"/>
      <point x="349.165" y="109.334"/>
      <point x="389.498" y="88.001" type="curve" smooth="yes"/>
      <point x="429.831" y="66.668"/>
      <point x="470.498" y="59.001"/>
      <point x="511.498" y="65.001" type="curve" smooth="yes"/>
      <point x="552.498" y="71.001"/>
      <point x="590.165" y="85.501"/>
      <point x="624.498" y="108.501" type="curve" smooth="yes"/>
      <point x="658.831" y="131.501"/>
      <point x="687.831" y="163.834"/>
      <point x="711.498" y="205.501" type="curve" smooth="yes"/>
      <point x="735.165" y="247.168"/>
      <point x="749.165" y="293.835"/>
      <point x="753.498" y="345.502" type="curve" smooth="yes"/>
      <point x="757.831" y="397.169"/>
      <point x="752.164" y="425.336"/>
      <point x="736.497" y="430.003" type="curve" smooth="yes"/>
      <point x="720.83" y="434.67"/>
      <point x="690.528" y="418.799"/>
      <point x="645.592" y="382.39" type="curve" smooth="yes"/>
      <point x="600.655" y="345.98"/>
      <point x="573.124" y="333.852"/>
      <point x="562.998" y="346.003" type="curve" smooth="yes"/>
      <point x="559.665" y="350.003"/>
      <point x="557.165" y="359.003"/>
      <point x="555.498" y="373.003" type="curve" smooth="yes"/>
      <point x="553.831" y="387.003"/>
      <point x="573.664" y="413.503"/>
      <point x="614.997" y="452.503" type="curve" smooth="yes"/>
      <point x="656.33" y="491.503"/>
      <point x="698.33" y="521.336"/>
      <point x="740.997" y="542.003" type="curve" smooth="yes"/>
      <point x="833.664" y="586.003"/>
      <point x="889.331" y="616.503"/>
      <point x="907.998" y="633.503" type="curve" smooth="yes"/>
      <point x="926.665" y="650.503"/>
      <point x="938.165" y="659.003"/>
      <point x="942.498" y="659.003" type="curve" smooth="yes"/>
      <point x="946.831" y="659.003"/>
      <point x="958.998" y="674.003"/>
      <point x="978.998" y="704.003" type="curve" smooth="yes"/>
      <point x="1016.99" y="760.991"/>
      <point x="1008.01" y="802.839"/>
      <point x="952.048" y="829.546" type="curve" smooth="yes"/>
      <point x="896.089" y="856.253"/>
      <point x="884.072" y="881.405"/>
      <point x="915.997" y="905.002" type="curve" smooth="yes"/>
      <point x="936.664" y="919.669"/>
      <point x="960.331" y="921.502"/>
      <point x="986.998" y="910.502" type="curve" smooth="yes"/>
      <point x="1013.67" y="899.502"/>
      <point x="1037.17" y="879.669"/>
      <point x="1057.5" y="851.002" type="curve" smooth="yes"/>
      <point x="1077.83" y="822.335"/>
      <point x="1088.33" y="792.335"/>
      <point x="1089" y="761.002" type="curve" smooth="yes"/>
      <point x="1089.67" y="729.669"/>
      <point x="1083" y="699.002"/>
      <point x="1069" y="669.002" type="curve" smooth="yes"/>
      <point x="1055" y="639.002"/>
      <point x="1034.17" y="610.502"/>
      <point x="1006.5" y="583.502" type="curve" smooth="yes"/>
      <point x="978.831" y="556.502"/>
      <point x="944.831" y="534.335"/>
      <point x="904.498" y="517.002" type="curve" smooth="yes"/>
      <point x="864.165" y="499.669"/>
      <point x="843.332" y="487.836"/>
      <point x="841.999" y="481.503" type="curve" smooth="yes"/>
      <point x="840.666" y="475.17"/>
      <point x="839.833" y="442.67"/>
      <point x="839.5" y="384.003" type="curve" smooth="yes"/>
      <point x="839.167" y="325.336"/>
      <point x="830" y="271.169"/>
      <point x="812" y="221.502" type="curve" smooth="yes"/>
      <point x="777.821" y="127.195"/>
      <point x="718.506" y="56.0576"/>
      <point x="634.054" y="8.08887" type="curve" smooth="yes"/>
      <point x="549.602" y="-39.8799"/>
      <point x="452.25" y="-49.9092"/>
      <point x="342" y="-21.998" type="curve" smooth="yes"/>
      <point x="210.944" y="14.8613"/>
      <point x="120.043" y="80.8223"/>
      <point x="69.2949" y="175.886" type="curve" smooth="yes"/>
      <point x="18.5469" y="270.949"/>
      <point x="20.0635" y="369.948"/>
      <point x="73.8447" y="472.882" type="curve" smooth="yes"/>
      <point x="127.626" y="575.815"/>
      <point x="233.011" y="657.522"/>
      <point x="390" y="718.002" type="curve" smooth="yes"/>
      <point x="426" y="732.002"/>
      <point x="418" y="757.669"/>
      <point x="366" y="795.002" type="curve" smooth="yes"/>
      <point x="314" y="832.335"/>
      <point x="286.333" y="887.668"/>
      <point x="283" y="961.001" type="curve" smooth="yes"/>
      <point x="279.667" y="1034.33"/>
      <point x="304" y="1096.67"/>
      <point x="356" y="1148" type="curve" smooth="yes"/>
      <point x="381.333" y="1172.67"/>
      <point x="407" y="1191"/>
      <point x="433" y="1203" type="curve" smooth="yes"/>
      <point x="459" y="1215"/>
      <point x="496.667" y="1226"/>
    </contour>
  </outline>
</glyph>
<glyph name="quotesingle" format="2">
  <advance width="288"/>
  <unicode hex="0027"/>
  <outline>
    <contour>
      <point x="196" y="1230" type="curve"/>
      <point x="214" y="1230"/>
      <point x="225.669" y="1229"/>
      <point x="231.002" y="1227" type="curve" smooth="yes"/>
      <point x="264.335" y="1214.33"/>
      <point x="258.668" y="1174.67"/>
      <point x="214.001" y="1108" type="curve" smooth="yes"/>
      <point x="206.668" y="1096.67"/>
      <point x="179.335" y="1067.17"/>
      <point x="132.002" y="1019.5" type="curve" smooth="yes"/>
      <point x="84.6689" y="971.834"/>
      <point x="57.502" y="947.001"/>
      <point x="50.502" y="945.001" type="curve" smooth="yes"/>
      <point x="43.502" y="943.001"/>
      <point x="38.6689" y="945.668"/>
      <point x="36.002" y="953.001" type="curve" smooth="yes"/>
      <point x="33.335" y="960.334"/>
      <point x="35.668" y="968.334"/>
      <point x="43.001" y="977.001" type="curve" smooth="yes"/>
      <point x="86.334" y="1027.67"/>
      <point x="115.667" y="1077.5"/>
      <point x="131" y="1126.5" type="curve" smooth="yes"/>
      <point x="146.333" y="1175.5"/>
      <point x="157" y="1203.67"/>
      <point x="163" y="1211" type="curve" smooth="yes"/>
      <point x="169" y="1218.33"/>
      <point x="180" y="1224.67"/>
    </contour>
  </outline>
</glyph>
<glyph name="parenleft" format="2">
  <advance width="776"/>
  <unicode hex="0028"/>
  <outline>
    <contour>
      <point x="446" y="1148" type="curve" smooth="yes"/>
      <point x="472" y="1162"/>
      <point x="496.332" y="1177.83"/>
      <point x="518.999" y="1195.5" type="curve" smooth="yes"/>
      <point x="541.666" y="1213.17"/>
      <point x="578.333" y="1231"/>
      <point x="629" y="1249" type="curve" smooth="yes"/>
      <point x="679.667" y="1267"/>
      <point x="712.167" y="1271.17"/>
      <point x="726.5" y="1261.5" type="curve" smooth="yes"/>
      <point x="740.833" y="1251.83"/>
      <point x="744" y="1240.5"/>
      <point x="736" y="1227.5" type="curve" smooth="yes"/>
      <point x="728" y="1214.5"/>
      <point x="712.333" y="1204"/>
      <point x="689" y="1196" type="curve" smooth="yes"/>
      <point x="601" y="1168"/>
      <point x="523.833" y="1104.83"/>
      <point x="457.5" y="1006.5" type="curve" smooth="yes"/>
      <point x="391.167" y="908.165"/>
      <point x="330.167" y="768.332"/>
      <point x="274.5" y="586.999" type="curve" smooth="yes"/>
      <point x="218.833" y="405.666"/>
      <point x="195.5" y="243.499"/>
      <point x="204.5" y="100.499" type="curve" smooth="yes"/>
      <point x="213.5" y="-42.501"/>
      <point x="252.667" y="-150.668"/>
      <point x="322" y="-224.001" type="curve" smooth="yes"/>
      <point x="353.333" y="-257.334"/>
      <point x="365" y="-281.001"/>
      <point x="357" y="-295.001" type="curve" smooth="yes"/>
      <point x="348.54" y="-309.806"/>
      <point x="325.207" y="-304.473"/>
      <point x="287" y="-279.001" type="curve" smooth="yes"/>
      <point x="185.667" y="-213.668"/>
      <point x="114.167" y="-114.668"/>
      <point x="72.5" y="17.999" type="curve" smooth="yes"/>
      <point x="30.833" y="150.666"/>
      <point x="23.666" y="302.333"/>
      <point x="50.999" y="473" type="curve" smooth="yes"/>
      <point x="65.666" y="563"/>
      <point x="93.833" y="655.167"/>
      <point x="135.5" y="749.5" type="curve" smooth="yes"/>
      <point x="177.167" y="843.833"/>
      <point x="226" y="927"/>
      <point x="282" y="999" type="curve" smooth="yes"/>
      <point x="338" y="1071"/>
      <point x="392.667" y="1120.67"/>
    </contour>
  </outline>
</glyph>
<glyph name="parenright" format="2">
  <advance width="828"/>
  <unicode hex="0029"/>
  <outline>
    <contour>
      <point x="494" y="1277" type="curve" smooth="yes"/>
      <point x="504.801" y="1284.56"/>
      <point x="519.499" y="1282.62"/>
      <point x="538.099" y="1271.17" type="curve" smooth="yes"/>
      <point x="556.698" y="1259.72"/>
      <point x="579.331" y="1246.33"/>
      <point x="605.998" y="1231" type="curve" smooth="yes"/>
      <point x="706.665" y="1173"/>
      <point x="767.665" y="1036.67"/>
      <point x="788.998" y="821.999" type="curve" smooth="yes"/>
      <point x="800.331" y="706.666"/>
      <point x="790.331" y="587.333"/>
      <point x="758.998" y="464" type="curve" smooth="yes"/>
      <point x="727.665" y="340.667"/>
      <point x="681.665" y="228.334"/>
      <point x="620.998" y="127.001" type="curve" smooth="yes"/>
      <point x="560.331" y="25.668"/>
      <point x="486.331" y="-62.499"/>
      <point x="398.998" y="-137.499" type="curve" smooth="yes"/>
      <point x="311.665" y="-212.499"/>
      <point x="220.665" y="-262.332"/>
      <point x="125.998" y="-286.999" type="curve" smooth="yes"/>
      <point x="86.665" y="-296.999"/>
      <point x="62.832" y="-301.999"/>
      <point x="54.499" y="-301.999" type="curve" smooth="yes"/>
      <point x="46.166" y="-301.999"/>
      <point x="40.166" y="-295.999"/>
      <point x="36.499" y="-283.999" type="curve" smooth="yes"/>
      <point x="32.832" y="-271.999"/>
      <point x="35.499" y="-261.832"/>
      <point x="44.499" y="-253.499" type="curve" smooth="yes"/>
      <point x="53.499" y="-245.166"/>
      <point x="71.332" y="-237.333"/>
      <point x="97.999" y="-230" type="curve" smooth="yes"/>
      <point x="184.666" y="-204.667"/>
      <point x="266.333" y="-133.667"/>
      <point x="343" y="-17" type="curve" smooth="yes"/>
      <point x="359.667" y="9.66699"/>
      <point x="379" y="38.667"/>
      <point x="401" y="70" type="curve" smooth="yes"/>
      <point x="423" y="101.333"/>
      <point x="452.5" y="164.833"/>
      <point x="489.5" y="260.5" type="curve" smooth="yes"/>
      <point x="526.5" y="356.167"/>
      <point x="561.167" y="467.5"/>
      <point x="593.5" y="594.5" type="curve" smooth="yes"/>
      <point x="625.833" y="721.5"/>
      <point x="636.333" y="843.5"/>
      <point x="625" y="960.5" type="curve" smooth="yes"/>
      <point x="613.667" y="1077.5"/>
      <point x="580" y="1158"/>
      <point x="524" y="1202" type="curve" smooth="yes"/>
      <point x="481.333" y="1235.33"/>
      <point x="471.333" y="1260.33"/>
    </contour>
  </outline>
</glyph>
<glyph name="asterisk" format="2">
  <advance width="540"/>
  <unicode hex="002A"/>
  <outline>
    <contour>
      <point x="225.5" y="1189.5" type="curve" smooth="yes"/>
      <point x="226.5" y="1207.17"/>
      <point x="233.667" y="1218.5"/>
      <point x="247" y="1223.5" type="curve" smooth="yes"/>
      <point x="260.333" y="1228.5"/>
      <point x="272.5" y="1228"/>
      <point x="283.5" y="1222" type="curve" smooth="yes"/>
      <point x="294.5" y="1216"/>
      <point x="301.697" y="1204.85"/>
      <point x="305.093" y="1188.55" type="curve" smooth="yes"/>
      <point x="308.488" y="1172.26"/>
      <point x="306.988" y="1144.76"/>
      <point x="300.593" y="1106.05" type="curve" smooth="yes"/>
      <point x="294.197" y="1067.35"/>
      <point x="293.666" y="1046.67"/>
      <point x="298.999" y="1044" type="curve" smooth="yes"/>
      <point x="304.332" y="1041.33"/>
      <point x="311.999" y="1045"/>
      <point x="321.999" y="1055" type="curve" smooth="yes"/>
      <point x="331.999" y="1065"/>
      <point x="356.666" y="1084"/>
      <point x="395.999" y="1112" type="curve" smooth="yes"/>
      <point x="435.332" y="1140"/>
      <point x="457.999" y="1154"/>
      <point x="463.999" y="1154" type="curve" smooth="yes"/>
      <point x="469.999" y="1154"/>
      <point x="477.499" y="1150.5"/>
      <point x="486.499" y="1143.5" type="curve" smooth="yes"/>
      <point x="495.499" y="1136.5"/>
      <point x="501.332" y="1129.83"/>
      <point x="503.999" y="1123.5" type="curve" smooth="yes"/>
      <point x="506.666" y="1117.17"/>
      <point x="506.499" y="1108"/>
      <point x="503.499" y="1096" type="curve" smooth="yes"/>
      <point x="500.499" y="1084"/>
      <point x="496.166" y="1075.83"/>
      <point x="490.499" y="1071.5" type="curve" smooth="yes"/>
      <point x="484.832" y="1067.17"/>
      <point x="468.499" y="1059.67"/>
      <point x="441.499" y="1049" type="curve" smooth="yes"/>
      <point x="414.499" y="1038.33"/>
      <point x="389.499" y="1029.83"/>
      <point x="366.499" y="1023.5" type="curve" smooth="yes"/>
      <point x="343.499" y="1017.17"/>
      <point x="331.617" y="1011.51"/>
      <point x="330.853" y="1006.55" type="curve" smooth="yes"/>
      <point x="330.088" y="1001.58"/>
      <point x="353.421" y="991.246"/>
      <point x="400.852" y="975.547" type="curve" smooth="yes"/>
      <point x="448.282" y="959.848"/>
      <point x="476.164" y="949.331"/>
      <point x="484.497" y="943.998" type="curve" smooth="yes"/>
      <point x="492.83" y="938.665"/>
      <point x="497.33" y="929.165"/>
      <point x="497.997" y="915.498" type="curve" smooth="yes"/>
      <point x="498.664" y="901.831"/>
      <point x="495.331" y="889.831"/>
      <point x="487.998" y="879.498" type="curve" smooth="yes"/>
      <point x="480.665" y="869.165"/>
      <point x="472.332" y="863.998"/>
      <point x="462.999" y="863.998" type="curve" smooth="yes"/>
      <point x="453.666" y="863.998"/>
      <point x="442.999" y="868.498"/>
      <point x="430.999" y="877.498" type="curve" smooth="yes"/>
      <point x="418.999" y="886.498"/>
      <point x="395.395" y="905.302"/>
      <point x="360.186" y="933.909" type="curve" smooth="yes"/>
      <point x="324.977" y="962.517"/>
      <point x="305.144" y="975.85"/>
      <point x="300.687" y="973.908" type="curve" smooth="yes"/>
      <point x="296.229" y="971.967"/>
      <point x="299.834" y="950.83"/>
      <point x="311.501" y="910.497" type="curve" smooth="yes"/>
      <point x="323.168" y="870.164"/>
      <point x="327.668" y="841.164"/>
      <point x="325.001" y="823.497" type="curve" smooth="yes"/>
      <point x="322.334" y="805.83"/>
      <point x="310.001" y="795.83"/>
      <point x="288.001" y="793.497" type="curve" smooth="yes"/>
      <point x="266.001" y="791.164"/>
      <point x="252.001" y="795.831"/>
      <point x="246.001" y="807.498" type="curve" smooth="yes"/>
      <point x="240.001" y="819.165"/>
      <point x="241.501" y="849.665"/>
      <point x="250.501" y="898.998" type="curve" smooth="yes"/>
      <point x="259.501" y="948.331"/>
      <point x="261.168" y="974.498"/>
      <point x="255.501" y="977.498" type="curve" smooth="yes"/>
      <point x="249.834" y="980.498"/>
      <point x="233.001" y="971.165"/>
      <point x="205.001" y="949.498" type="curve" smooth="yes"/>
      <point x="122.634" y="885.762"/>
      <point x="70.9668" y="864.929"/>
      <point x="50.001" y="886.998" type="curve" smooth="yes"/>
      <point x="41.334" y="896.331"/>
      <point x="36.501" y="908.164"/>
      <point x="35.501" y="922.497" type="curve" smooth="yes"/>
      <point x="34.501" y="936.83"/>
      <point x="37.334" y="946.497"/>
      <point x="44.001" y="951.497" type="curve" smooth="yes"/>
      <point x="62.5312" y="965.395"/>
      <point x="95.9971" y="978.119"/>
      <point x="144.398" y="989.671" type="curve" smooth="yes"/>
      <point x="192.8" y="1001.22"/>
      <point x="217.001" y="1008.67"/>
      <point x="217.001" y="1012" type="curve" smooth="yes"/>
      <point x="217.001" y="1015.33"/>
      <point x="209.334" y="1018.5"/>
      <point x="194.001" y="1021.5" type="curve" smooth="yes"/>
      <point x="178.668" y="1024.5"/>
      <point x="154.501" y="1032.33"/>
      <point x="121.501" y="1045" type="curve" smooth="yes"/>
      <point x="88.501" y="1057.67"/>
      <point x="69.168" y="1067.33"/>
      <point x="63.501" y="1074" type="curve" smooth="yes"/>
      <point x="57.834" y="1080.67"/>
      <point x="56.334" y="1092.17"/>
      <point x="59.001" y="1108.5" type="curve" smooth="yes"/>
      <point x="61.668" y="1124.83"/>
      <point x="66.001" y="1135.5"/>
      <point x="72.001" y="1140.5" type="curve" smooth="yes"/>
      <point x="78.001" y="1145.5"/>
      <point x="85.168" y="1147.83"/>
      <point x="93.501" y="1147.5" type="curve" smooth="yes"/>
      <point x="101.834" y="1147.17"/>
      <point x="107.167" y="1145.5"/>
      <point x="109.5" y="1142.5" type="curve" smooth="yes"/>
      <point x="111.833" y="1139.5"/>
      <point x="123" y="1131.17"/>
      <point x="143" y="1117.5" type="curve" smooth="yes"/>
      <point x="163" y="1103.83"/>
      <point x="174.833" y="1095"/>
      <point x="178.5" y="1091" type="curve" smooth="yes"/>
      <point x="182.167" y="1087"/>
      <point x="195" y="1075.17"/>
      <point x="217" y="1055.5" type="curve" smooth="yes"/>
      <point x="239" y="1035.83"/>
      <point x="250.667" y="1026.17"/>
      <point x="252" y="1026.5" type="curve" smooth="yes"/>
      <point x="253.333" y="1026.83"/>
      <point x="254" y="1030.83"/>
      <point x="254" y="1038.5" type="curve" smooth="yes"/>
      <point x="254" y="1046.17"/>
      <point x="249" y="1068.83"/>
      <point x="239" y="1106.5" type="curve" smooth="yes"/>
      <point x="229" y="1144.17"/>
      <point x="224.5" y="1171.83"/>
    </contour>
  </outline>
</glyph>
<glyph name="plus" format="2">
  <advance width="767"/>
  <unicode hex="002B"/>
  <outline>
    <contour>
      <point x="432" y="456" type="curve" smooth="yes"/>
      <point x="470.667" y="566"/>
      <point x="494.044" y="625.942"/>
      <point x="502.129" y="635.824" type="curve" smooth="yes"/>
      <point x="510.214" y="645.706"/>
      <point x="520.214" y="647.206"/>
      <point x="532.129" y="640.324" type="curve" smooth="yes"/>
      <point x="544.044" y="633.442"/>
      <point x="549.168" y="622.835"/>
      <point x="547.501" y="608.502" type="curve" smooth="yes"/>
      <point x="545.834" y="594.169"/>
      <point x="531.667" y="544.836"/>
      <point x="505" y="460.503" type="curve" smooth="yes"/>
      <point x="478.333" y="376.17"/>
      <point x="463.333" y="323.17"/>
      <point x="460" y="301.503" type="curve" smooth="yes"/>
      <point x="456.667" y="279.836"/>
      <point x="461.334" y="267.003"/>
      <point x="474.001" y="263.003" type="curve" smooth="yes"/>
      <point x="486.668" y="259.003"/>
      <point x="507.668" y="258.003"/>
      <point x="537.001" y="260.003" type="curve" smooth="yes"/>
      <point x="566.334" y="262.003"/>
      <point x="596.667" y="263.67"/>
      <point x="628" y="265.003" type="curve" smooth="yes"/>
      <point x="659.333" y="266.336"/>
      <point x="684.5" y="264.669"/>
      <point x="703.5" y="260.002" type="curve" smooth="yes"/>
      <point x="722.5" y="255.335"/>
      <point x="732" y="243.668"/>
      <point x="732" y="225.001" type="curve" smooth="yes"/>
      <point x="732" y="206.334"/>
      <point x="725" y="195.167"/>
      <point x="711" y="191.5" type="curve" smooth="yes"/>
      <point x="697" y="187.833"/>
      <point x="653.667" y="185.333"/>
      <point x="581" y="184" type="curve" smooth="yes"/>
      <point x="508.333" y="182.667"/>
      <point x="462.333" y="179.834"/>
      <point x="443" y="175.501" type="curve" smooth="yes"/>
      <point x="423.667" y="171.168"/>
      <point x="408.5" y="158.168"/>
      <point x="397.5" y="136.501" type="curve" smooth="yes"/>
      <point x="386.5" y="114.834"/>
      <point x="373.667" y="79.167"/>
      <point x="359" y="29.5" type="curve" smooth="yes"/>
      <point x="344.333" y="-20.167"/>
      <point x="332.833" y="-59.167"/>
      <point x="324.5" y="-87.5" type="curve" smooth="yes"/>
      <point x="316.167" y="-115.833"/>
      <point x="308" y="-137.333"/>
      <point x="300" y="-152" type="curve" smooth="yes"/>
      <point x="292" y="-166.667"/>
      <point x="282.333" y="-174"/>
      <point x="271" y="-174" type="curve" smooth="yes"/>
      <point x="259.667" y="-174"/>
      <point x="251.834" y="-171.667"/>
      <point x="247.501" y="-167" type="curve" smooth="yes"/>
      <point x="243.168" y="-162.333"/>
      <point x="241.423" y="-151.568"/>
      <point x="242.266" y="-134.706" type="curve" smooth="yes"/>
      <point x="243.108" y="-117.844"/>
      <point x="256.108" y="-72.1768"/>
      <point x="281.266" y="2.29395" type="curve" smooth="yes"/>
      <point x="306.423" y="76.7646"/>
      <point x="319.501" y="122.667"/>
      <point x="320.501" y="140" type="curve" smooth="yes"/>
      <point x="321.501" y="157.333"/>
      <point x="314.168" y="168"/>
      <point x="298.501" y="172" type="curve" smooth="yes"/>
      <point x="282.834" y="176"/>
      <point x="253.667" y="178.667"/>
      <point x="211" y="180" type="curve" smooth="yes"/>
      <point x="109.667" y="183.167"/>
      <point x="55" y="188.417"/>
      <point x="47" y="195.75" type="curve" smooth="yes"/>
      <point x="39" y="203.083"/>
      <point x="35" y="212.833"/>
      <point x="35" y="225" type="curve" smooth="yes"/>
      <point x="35" y="249"/>
      <point x="56.5" y="259.833"/>
      <point x="99.5" y="257.5" type="curve" smooth="yes"/>
      <point x="142.5" y="255.167"/>
      <point x="196.5" y="257"/>
      <point x="261.5" y="263" type="curve" smooth="yes"/>
      <point x="326.5" y="269"/>
      <point x="361.5" y="275.167"/>
      <point x="366.5" y="281.5" type="curve" smooth="yes"/>
      <point x="371.5" y="287.833"/>
      <point x="393.333" y="346"/>
    </contour>
  </outline>
</glyph>
<glyph name="comma" format="2">
  <advance width="262"/>
  <unicode hex="002C"/>
  <outline>
    <contour>
      <point x="106" y="47" type="qcurve" smooth="yes"/>
      <point x="134" y="58"/>
      <point x="198" y="37"/>
      <point x="210" y="14" type="qcurve" smooth="yes"/>
      <point x="237" y="-39"/>
      <point x="204" y="-156"/>
      <point x="146" y="-208" type="qcurve" smooth="yes"/>
      <point x="120" y="-232"/>
      <point x="110" y="-222" type="qcurve" smooth="yes"/>
      <point x="103" y="-215"/>
      <point x="112" y="-199"/>
      <point x="126" y="-181"/>
      <point x="137" y="-165"/>
      <point x="130" y="-154"/>
      <point x="114" y="-153" type="qcurve" smooth="yes"/>
      <point x="80" y="-150"/>
      <point x="38" y="-97"/>
      <point x="33" y="-32"/>
      <point x="69" y="33"/>
    </contour>
  </outline>
</glyph>
<glyph name="hyphen" format="2">
  <advance width="828"/>
  <unicode hex="002D"/>
  <outline>
    <contour>
      <point x="35.5" y="275.5" type="curve" smooth="yes"/>
      <point x="32.5" y="291.167"/>
      <point x="37.1699" y="303.167"/>
      <point x="49.5029" y="311.5" type="curve" smooth="yes"/>
      <point x="61.8359" y="319.833"/>
      <point x="187.169" y="323.5"/>
      <point x="425.502" y="322.5" type="curve" smooth="yes"/>
      <point x="663.835" y="321.5"/>
      <point x="784.668" y="316.333"/>
      <point x="788.001" y="307" type="curve" smooth="yes"/>
      <point x="795.334" y="286.333"/>
      <point x="792.937" y="270.103"/>
      <point x="780.808" y="258.308" type="curve" smooth="yes"/>
      <point x="768.679" y="246.513"/>
      <point x="528.076" y="244.41"/>
      <point x="59" y="252" type="curve" smooth="yes"/>
      <point x="46.333" y="252"/>
      <point x="38.5" y="259.833"/>
    </contour>
  </outline>
</glyph>
<glyph name="period" format="2">
  <advance width="236"/>
  <unicode hex="002E"/>
  <outline>
    <contour>
      <point x="50.5" y="13" type="curve" smooth="yes"/>
      <point x="64.167" y="32.333"/>
      <point x="83.332" y="44.8359"/>
      <point x="107.999" y="50.5029" type="curve" smooth="yes"/>
      <point x="132.666" y="56.1699"/>
      <point x="155.166" y="48.8369"/>
      <point x="175.499" y="28.5039" type="curve" smooth="yes"/>
      <point x="195.832" y="8.1709"/>
      <point x="203.499" y="-16.8291"/>
      <point x="198.499" y="-46.4961" type="curve" smooth="yes"/>
      <point x="193.499" y="-76.1631"/>
      <point x="178.832" y="-97.8301"/>
      <point x="154.499" y="-111.497" type="curve" smooth="yes"/>
      <point x="130.166" y="-125.164"/>
      <point x="105.833" y="-126.331"/>
      <point x="81.5" y="-114.998" type="curve" smooth="yes"/>
      <point x="57.167" y="-103.665"/>
      <point x="42.5" y="-84.332"/>
      <point x="37.5" y="-56.999" type="curve" smooth="yes"/>
      <point x="32.5" y="-29.666"/>
      <point x="36.833" y="-6.33301"/>
    </contour>
  </outline>
</glyph>
<glyph name="slash" format="2">
  <advance width="950"/>
  <unicode hex="002F"/>
  <outline>
    <contour>
      <point x="827" y="1483" type="curve" smooth="yes"/>
      <point x="856.607" y="1538.51"/>
      <point x="882.608" y="1556.35"/>
      <point x="905.001" y="1536.5" type="curve" smooth="yes"/>
      <point x="919.668" y="1523.5"/>
      <point x="920.001" y="1503.67"/>
      <point x="906.001" y="1477" type="curve" smooth="yes"/>
      <point x="906.001" y="1474.55"/>
      <point x="860.001" y="1388.94"/>
      <point x="768.001" y="1220.16" type="curve" smooth="yes"/>
      <point x="676.001" y="1051.39"/>
      <point x="627.168" y="963.665"/>
      <point x="621.501" y="956.998" type="curve" smooth="yes"/>
      <point x="615.834" y="950.331"/>
      <point x="538.167" y="807.664"/>
      <point x="388.5" y="528.997" type="curve" smooth="yes"/>
      <point x="238.833" y="250.33"/>
      <point x="155.555" y="93.8252"/>
      <point x="138.665" y="59.4824" type="curve" smooth="yes"/>
      <point x="121.775" y="25.1396"/>
      <point x="105.887" y="0.811523"/>
      <point x="91" y="-13.5029" type="curve" smooth="yes"/>
      <point x="76.2158" y="-27.7188"/>
      <point x="63.1865" y="-29.1895"/>
      <point x="51.9121" y="-17.915" type="curve" smooth="yes"/>
      <point x="40.6377" y="-6.64062"/>
      <point x="35.167" y="2.83008"/>
      <point x="35.5" y="10.4971" type="curve" smooth="yes"/>
      <point x="35.833" y="18.1641"/>
      <point x="39.5" y="27.8311"/>
      <point x="46.5" y="39.498" type="curve" smooth="yes"/>
      <point x="53.5" y="51.165"/>
      <point x="64.833" y="74.498"/>
      <point x="80.5" y="109.498" type="curve" smooth="yes"/>
      <point x="96.167" y="144.498"/>
      <point x="113.5" y="176.831"/>
      <point x="132.5" y="206.498" type="curve" smooth="yes"/>
      <point x="151.5" y="236.165"/>
      <point x="173.333" y="276.165"/>
      <point x="198" y="326.498" type="curve" smooth="yes"/>
      <point x="222.667" y="376.831"/>
      <point x="247.667" y="423.331"/>
      <point x="273" y="465.998" type="curve" smooth="yes"/>
      <point x="298.333" y="508.665"/>
      <point x="327.833" y="563.998"/>
      <point x="361.5" y="631.998" type="curve" smooth="yes"/>
      <point x="395.167" y="699.998"/>
      <point x="418.5" y="743.331"/>
      <point x="431.5" y="761.998" type="curve" smooth="yes"/>
      <point x="444.5" y="780.665"/>
      <point x="469.333" y="825.498"/>
      <point x="506" y="896.498" type="curve" smooth="yes"/>
      <point x="542.667" y="967.498"/>
      <point x="570.5" y="1015.5"/>
      <point x="589.5" y="1040.5" type="curve" smooth="yes"/>
      <point x="608.5" y="1065.5"/>
      <point x="634" y="1111.33"/>
      <point x="666" y="1178" type="curve" smooth="yes"/>
      <point x="698" y="1244.67"/>
      <point x="721.667" y="1290.83"/>
      <point x="737" y="1316.5" type="curve" smooth="yes"/>
      <point x="752.333" y="1342.17"/>
      <point x="768.5" y="1371.33"/>
      <point x="785.5" y="1404" type="curve" smooth="yes"/>
      <point x="802.5" y="1436.67"/>
      <point x="816.333" y="1463"/>
    </contour>
  </outline>
</glyph>
<glyph name="zero" format="2">
  <advance width="915"/>
  <unicode hex="0030"/>
  <outline>
    <contour>
      <point x="679" y="1158" type="curve" smooth="yes"/>
      <point x="614.333" y="1185.33"/>
      <point x="548.999" y="1170.33"/>
      <point x="482.999" y="1113" type="curve" smooth="yes"/>
      <point x="416.999" y="1055.67"/>
      <point x="358.999" y="965.499"/>
      <point x="308.999" y="842.499" type="curve" smooth="yes"/>
      <point x="258.999" y="719.499"/>
      <point x="224.666" y="582.832"/>
      <point x="205.999" y="432.499" type="curve" smooth="yes"/>
      <point x="187.332" y="282.166"/>
      <point x="217.332" y="167.666"/>
      <point x="295.999" y="88.999" type="curve" smooth="yes"/>
      <point x="328.666" y="56.332"/>
      <point x="359.499" y="38.999"/>
      <point x="388.499" y="36.999" type="curve" smooth="yes"/>
      <point x="417.499" y="34.999"/>
      <point x="454.999" y="48.666"/>
      <point x="500.999" y="77.999" type="curve" smooth="yes"/>
      <point x="546.999" y="107.332"/>
      <point x="590.666" y="152.999"/>
      <point x="631.999" y="214.999" type="curve" smooth="yes"/>
      <point x="673.332" y="276.999"/>
      <point x="707.332" y="344.666"/>
      <point x="733.999" y="417.999" type="curve" smooth="yes"/>
      <point x="760.666" y="491.332"/>
      <point x="780.833" y="568.332"/>
      <point x="794.5" y="648.999" type="curve" smooth="yes"/>
      <point x="808.167" y="729.666"/>
      <point x="813.667" y="804.333"/>
      <point x="811" y="873" type="curve" smooth="yes"/>
      <point x="808.333" y="941.667"/>
      <point x="795.833" y="1002"/>
      <point x="773.5" y="1054" type="curve" smooth="yes"/>
      <point x="751.167" y="1106"/>
      <point x="719.667" y="1140.67"/>
    </contour>
    <contour>
      <point x="549.999" y="1242" type="curve" smooth="yes"/>
      <point x="596.666" y="1252.67"/>
      <point x="645.169" y="1247.17"/>
      <point x="695.502" y="1225.5" type="curve" smooth="yes"/>
      <point x="745.835" y="1203.83"/>
      <point x="785.335" y="1171.17"/>
      <point x="814.002" y="1127.5" type="curve" smooth="yes"/>
      <point x="842.669" y="1083.83"/>
      <point x="861.002" y="1044.33"/>
      <point x="869.002" y="1009" type="curve" smooth="yes"/>
      <point x="877.002" y="973.667"/>
      <point x="880.669" y="904.5"/>
      <point x="880.002" y="801.5" type="curve" smooth="yes"/>
      <point x="879.335" y="698.5"/>
      <point x="861.502" y="587.333"/>
      <point x="826.502" y="468" type="curve" smooth="yes"/>
      <point x="791.502" y="348.667"/>
      <point x="744.669" y="246.667"/>
      <point x="686.002" y="162" type="curve" smooth="yes"/>
      <point x="601.051" y="39.4004"/>
      <point x="501.693" y="-22.9248"/>
      <point x="387.931" y="-24.9746" type="curve" smooth="yes"/>
      <point x="274.168" y="-27.0244"/>
      <point x="182.213" y="25.3711"/>
      <point x="112.064" y="132.212" type="curve" smooth="yes"/>
      <point x="41.916" y="239.053"/>
      <point x="18.7285" y="379.482"/>
      <point x="42.501" y="553.5" type="curve" smooth="yes"/>
      <point x="50.834" y="614.5"/>
      <point x="65.667" y="677"/>
      <point x="87" y="741" type="curve" smooth="yes"/>
      <point x="135.667" y="888.333"/>
      <point x="197.667" y="1002.67"/>
      <point x="273" y="1084" type="curve" smooth="yes"/>
      <point x="348.333" y="1165.33"/>
      <point x="440.666" y="1218"/>
    </contour>
  </outline>
</glyph>
<glyph name="one" format="2">
  <advance width="645"/>
  <unicode hex="0031"/>
  <outline>
    <contour>
      <point x="135.5" y="942.5" type="curve" smooth="yes"/>
      <point x="157.167" y="966.167"/>
      <point x="214.498" y="1022"/>
      <point x="307.498" y="1110" type="curve" smooth="yes"/>
      <point x="400.498" y="1198"/>
      <point x="463.498" y="1252.66"/>
      <point x="496.498" y="1274" type="curve" smooth="yes"/>
      <point x="529.498" y="1295.33"/>
      <point x="558.727" y="1295.69"/>
      <point x="584.185" y="1275.08" type="curve" smooth="yes"/>
      <point x="609.643" y="1254.48"/>
      <point x="614.747" y="1223.11"/>
      <point x="599.498" y="1181" type="curve" smooth="yes"/>
      <point x="592.498" y="1161.66"/>
      <point x="564.708" y="1074.27"/>
      <point x="516.128" y="918.812" type="curve" smooth="yes"/>
      <point x="467.548" y="763.354"/>
      <point x="415.215" y="600.854"/>
      <point x="359.129" y="431.312" type="curve" smooth="yes"/>
      <point x="303.043" y="261.769"/>
      <point x="270" y="155.997"/>
      <point x="260" y="113.997" type="curve" smooth="yes"/>
      <point x="243.333" y="37.9971"/>
      <point x="200.666" y="-0.00292969"/>
      <point x="131.999" y="-0.00292969" type="curve" smooth="yes"/>
      <point x="80.666" y="-0.00292969"/>
      <point x="49.833" y="9.33008"/>
      <point x="39.5" y="27.9971" type="curve" smooth="yes"/>
      <point x="29.167" y="46.6641"/>
      <point x="36.167" y="75.8311"/>
      <point x="60.5" y="115.498" type="curve" smooth="yes"/>
      <point x="84.833" y="155.165"/>
      <point x="110.166" y="213.332"/>
      <point x="136.499" y="289.999" type="curve" smooth="yes"/>
      <point x="162.832" y="366.666"/>
      <point x="194.499" y="465.333"/>
      <point x="231.499" y="586" type="curve" smooth="yes"/>
      <point x="268.499" y="706.667"/>
      <point x="300.332" y="807.167"/>
      <point x="326.999" y="887.5" type="curve" smooth="yes"/>
      <point x="353.666" y="967.833"/>
      <point x="365.999" y="1013"/>
      <point x="363.999" y="1023" type="curve" smooth="yes"/>
      <point x="362.666" y="1027.67"/>
      <point x="358.666" y="1030"/>
      <point x="351.999" y="1030" type="curve" smooth="yes"/>
      <point x="345.332" y="1030"/>
      <point x="325.999" y="1017.67"/>
      <point x="293.999" y="993" type="curve" smooth="yes"/>
      <point x="261.999" y="968.333"/>
      <point x="229.332" y="940.666"/>
      <point x="195.999" y="909.999" type="curve" smooth="yes"/>
      <point x="142.666" y="860.666"/>
      <point x="112.333" y="848.333"/>
      <point x="105" y="873" type="curve" smooth="yes"/>
      <point x="103.667" y="877.667"/>
      <point x="103" y="884.5"/>
      <point x="103" y="893.5" type="curve" smooth="yes"/>
      <point x="103" y="902.5"/>
      <point x="113.833" y="918.833"/>
    </contour>
  </outline>
</glyph>
<glyph name="two" format="2">
  <advance width="933"/>
  <unicode hex="0032"/>
  <outline>
    <contour>
      <point x="327" y="1221" type="curve" smooth="yes"/>
      <point x="371" y="1251.67"/>
      <point x="427.83" y="1272.83"/>
      <point x="497.497" y="1284.5" type="curve" smooth="yes"/>
      <point x="567.164" y="1296.17"/>
      <point x="632.831" y="1289.17"/>
      <point x="694.498" y="1263.5" type="curve" smooth="yes"/>
      <point x="756.165" y="1237.83"/>
      <point x="805.498" y="1198"/>
      <point x="842.498" y="1144" type="curve" smooth="yes"/>
      <point x="879.498" y="1090"/>
      <point x="897.998" y="1027.67"/>
      <point x="897.998" y="957.001" type="curve" smooth="yes"/>
      <point x="897.998" y="816.564"/>
      <point x="821.331" y="682.564"/>
      <point x="667.998" y="555.001" type="curve" smooth="yes"/>
      <point x="590.665" y="489.668"/>
      <point x="548.332" y="453.335"/>
      <point x="540.999" y="446.002" type="curve" smooth="yes"/>
      <point x="510.999" y="424.002" type="line" smooth="yes"/>
      <point x="450.999" y="380.002"/>
      <point x="416.999" y="354.669"/>
      <point x="408.999" y="348.002" type="curve" smooth="yes"/>
      <point x="391.999" y="336.002" type="line" smooth="yes"/>
      <point x="253.332" y="235.854"/>
      <point x="183.999" y="174.854"/>
      <point x="183.999" y="153.002" type="curve" smooth="yes"/>
      <point x="183.999" y="141.002"/>
      <point x="190.499" y="136.002"/>
      <point x="203.499" y="138.002" type="curve" smooth="yes"/>
      <point x="216.499" y="140.002"/>
      <point x="233.285" y="143.002"/>
      <point x="253.856" y="147.002" type="curve" smooth="yes"/>
      <point x="274.428" y="151.002"/>
      <point x="304.928" y="153.002"/>
      <point x="345.356" y="153.002" type="curve" smooth="yes"/>
      <point x="385.785" y="153.002"/>
      <point x="428.166" y="145.002"/>
      <point x="472.499" y="129.002" type="curve" smooth="yes"/>
      <point x="516.832" y="113.002"/>
      <point x="548.332" y="105.335"/>
      <point x="566.999" y="106.002" type="curve" smooth="yes"/>
      <point x="585.666" y="106.669"/>
      <point x="608.999" y="117.336"/>
      <point x="636.999" y="138.003" type="curve" smooth="yes"/>
      <point x="664.999" y="158.67"/>
      <point x="681.666" y="163.003"/>
      <point x="686.999" y="151.003" type="curve" smooth="yes"/>
      <point x="688.332" y="147.003"/>
      <point x="688.999" y="137.17"/>
      <point x="688.999" y="121.503" type="curve" smooth="yes"/>
      <point x="688.999" y="105.836"/>
      <point x="678.666" y="87.1689"/>
      <point x="657.999" y="65.502" type="curve" smooth="yes"/>
      <point x="637.332" y="43.835"/>
      <point x="611.499" y="27.835"/>
      <point x="580.499" y="17.502" type="curve" smooth="yes"/>
      <point x="501.899" y="-8.69824"/>
      <point x="434.732" y="-7.86523"/>
      <point x="378.999" y="20.001" type="curve" smooth="yes"/>
      <point x="346.999" y="35.334"/>
      <point x="301.666" y="44.001"/>
      <point x="242.999" y="46.001" type="curve" smooth="yes"/>
      <point x="184.332" y="48.001"/>
      <point x="142.332" y="42.668"/>
      <point x="116.999" y="30.001" type="curve" smooth="yes"/>
      <point x="62.999" y="2.66797"/>
      <point x="35.666" y="7.33496"/>
      <point x="34.999" y="44.002" type="curve" smooth="yes"/>
      <point x="33.3955" y="98.5361"/>
      <point x="72.2285" y="163.703"/>
      <point x="151.499" y="239.502" type="curve" smooth="yes"/>
      <point x="197.166" y="283.169"/>
      <point x="246.333" y="323.002"/>
      <point x="299" y="359.002" type="curve" smooth="yes"/>
      <point x="351.667" y="395.002"/>
      <point x="412.834" y="451.835"/>
      <point x="482.501" y="529.502" type="curve" smooth="yes"/>
      <point x="552.168" y="607.169"/>
      <point x="606.501" y="684.502"/>
      <point x="645.501" y="761.502" type="curve" smooth="yes"/>
      <point x="684.501" y="838.502"/>
      <point x="705.834" y="912.669"/>
      <point x="709.501" y="984.002" type="curve" smooth="yes"/>
      <point x="713.168" y="1055.33"/>
      <point x="697.501" y="1111.67"/>
      <point x="662.501" y="1153" type="curve" smooth="yes"/>
      <point x="627.501" y="1194.33"/>
      <point x="580.334" y="1215"/>
      <point x="521.001" y="1215" type="curve" smooth="yes"/>
      <point x="461.668" y="1215"/>
      <point x="409.001" y="1195"/>
      <point x="363.001" y="1155" type="curve" smooth="yes"/>
      <point x="317.001" y="1115"/>
      <point x="284.168" y="1065.5"/>
      <point x="264.501" y="1006.5" type="curve" smooth="yes"/>
      <point x="244.834" y="947.501"/>
      <point x="243.501" y="895.334"/>
      <point x="260.501" y="850.001" type="curve" smooth="yes"/>
      <point x="277.501" y="804.668"/>
      <point x="285.501" y="773.001"/>
      <point x="284.501" y="755.001" type="curve" smooth="yes"/>
      <point x="283.501" y="737.001"/>
      <point x="274.668" y="727.168"/>
      <point x="258.001" y="725.501" type="curve" smooth="yes"/>
      <point x="241.334" y="723.834"/>
      <point x="226.667" y="730.667"/>
      <point x="214" y="746" type="curve" smooth="yes"/>
      <point x="190.43" y="774.533"/>
      <point x="178.264" y="824.953"/>
      <point x="177.503" y="897.261" type="curve" smooth="yes"/>
      <point x="176.742" y="969.568"/>
      <point x="190.468" y="1033.94"/>
      <point x="218.681" y="1090.36" type="curve" smooth="yes"/>
      <point x="246.894" y="1146.79"/>
      <point x="283" y="1190.33"/>
    </contour>
  </outline>
</glyph>
<glyph name="three" format="2">
  <advance width="863"/>
  <unicode hex="0033"/>
  <outline>
    <contour>
      <point x="322" y="1157.5" type="curve" smooth="yes"/>
      <point x="359.333" y="1199.17"/>
      <point x="403.669" y="1227"/>
      <point x="455.002" y="1241" type="curve" smooth="yes"/>
      <point x="506.335" y="1255"/>
      <point x="552.668" y="1258.5"/>
      <point x="594.001" y="1251.5" type="curve" smooth="yes"/>
      <point x="671.747" y="1238.34"/>
      <point x="733.852" y="1198.61"/>
      <point x="780.315" y="1132.33" type="curve" smooth="yes"/>
      <point x="826.779" y="1066.05"/>
      <point x="838.675" y="988.277"/>
      <point x="816.002" y="899.002" type="curve"/>
      <point x="787.974" y="808.825"/>
      <point x="737.641" y="742.658"/>
      <point x="665.002" y="700.502" type="curve" smooth="yes"/>
      <point x="627.669" y="678.835"/>
      <point x="606.836" y="661.502"/>
      <point x="602.503" y="648.502" type="curve" smooth="yes"/>
      <point x="598.17" y="635.502"/>
      <point x="609.503" y="613.835"/>
      <point x="636.503" y="583.502" type="curve" smooth="yes"/>
      <point x="663.503" y="553.169"/>
      <point x="680.836" y="509.836"/>
      <point x="688.503" y="453.503" type="curve" smooth="yes"/>
      <point x="704.125" y="338.712"/>
      <point x="672.545" y="231.508"/>
      <point x="593.763" y="131.892" type="curve" smooth="yes"/>
      <point x="514.98" y="32.2754"/>
      <point x="418.227" y="-19.8535"/>
      <point x="303.501" y="-24.4951" type="curve" smooth="yes"/>
      <point x="168.875" y="-29.9424"/>
      <point x="83.375" y="31.5576"/>
      <point x="47.001" y="160.005" type="curve" smooth="yes"/>
      <point x="25.668" y="235.338"/>
      <point x="32.001" y="306.338"/>
      <point x="66.001" y="373.005" type="curve" smooth="yes"/>
      <point x="83.334" y="406.338"/>
      <point x="101.001" y="424.671"/>
      <point x="119.001" y="428.004" type="curve" smooth="yes"/>
      <point x="146.18" y="432.081"/>
      <point x="147.847" y="396.081"/>
      <point x="124.002" y="320.004" type="curve" smooth="yes"/>
      <point x="110.002" y="275.337"/>
      <point x="106.335" y="233.17"/>
      <point x="113.002" y="193.503" type="curve" smooth="yes"/>
      <point x="119.669" y="153.836"/>
      <point x="143.002" y="114.336"/>
      <point x="183.002" y="75.0029" type="curve" smooth="yes"/>
      <point x="236.335" y="22.3359"/>
      <point x="295.668" y="22.3359"/>
      <point x="361.001" y="75.0029" type="curve" smooth="yes"/>
      <point x="415.001" y="118.336"/>
      <point x="459.168" y="186.503"/>
      <point x="493.501" y="279.503" type="curve" smooth="yes"/>
      <point x="527.834" y="372.503"/>
      <point x="535.334" y="452.003"/>
      <point x="516.001" y="518.003" type="curve" smooth="yes"/>
      <point x="504.001" y="558.67"/>
      <point x="480.234" y="587.294"/>
      <point x="444.702" y="603.874" type="curve" smooth="yes"/>
      <point x="388.162" y="630.257"/>
      <point x="396.929" y="661.967"/>
      <point x="471.001" y="699.003" type="curve" smooth="yes"/>
      <point x="497.668" y="712.336"/>
      <point x="524.668" y="735.836"/>
      <point x="552.001" y="769.503" type="curve" smooth="yes"/>
      <point x="579.334" y="803.17"/>
      <point x="600.501" y="839.337"/>
      <point x="615.501" y="878.004" type="curve" smooth="yes"/>
      <point x="651.853" y="971.709"/>
      <point x="655.686" y="1045.38"/>
      <point x="627.001" y="1099" type="curve" smooth="yes"/>
      <point x="588.334" y="1181"/>
      <point x="525.334" y="1199.34"/>
      <point x="438.001" y="1154" type="curve" smooth="yes"/>
      <point x="405.334" y="1137.34"/>
      <point x="371.001" y="1102.67"/>
      <point x="335.001" y="1050" type="curve" smooth="yes"/>
      <point x="299.001" y="997.336"/>
      <point x="277.668" y="955.003"/>
      <point x="271.001" y="923.003" type="curve" smooth="yes"/>
      <point x="264.334" y="891.003"/>
      <point x="255.501" y="870.17"/>
      <point x="244.501" y="860.503" type="curve" smooth="yes"/>
      <point x="233.501" y="850.836"/>
      <point x="223.668" y="849.669"/>
      <point x="215.001" y="857.002" type="curve" smooth="yes"/>
      <point x="206.334" y="864.335"/>
      <point x="202.501" y="875.668"/>
      <point x="203.501" y="891.001" type="curve" smooth="yes"/>
      <point x="204.501" y="906.334"/>
      <point x="215.168" y="944.167"/>
      <point x="235.501" y="1004.5" type="curve" smooth="yes"/>
      <point x="255.834" y="1064.83"/>
      <point x="284.667" y="1115.83"/>
    </contour>
  </outline>
</glyph>
<glyph name="four" format="2">
  <advance width="941"/>
  <unicode hex="0034"/>
  <outline>
    <contour>
      <point x="663" y="1012" type="curve" smooth="yes"/>
      <point x="663" y="1023.33"/>
      <point x="659.504" y="1029"/>
      <point x="652.504" y="1029" type="curve" smooth="yes"/>
      <point x="645.504" y="1029"/>
      <point x="608.171" y="994.83"/>
      <point x="540.504" y="926.497" type="curve" smooth="yes"/>
      <point x="472.837" y="858.164"/>
      <point x="406.17" y="784.831"/>
      <point x="340.503" y="706.498" type="curve" smooth="yes"/>
      <point x="274.836" y="628.165"/>
      <point x="235.169" y="582.165"/>
      <point x="221.502" y="568.498" type="curve" smooth="yes"/>
      <point x="207.835" y="554.831"/>
      <point x="197.668" y="540.331"/>
      <point x="191.001" y="524.998" type="curve" smooth="yes"/>
      <point x="184.334" y="509.665"/>
      <point x="182.667" y="499.998"/>
      <point x="186" y="495.998" type="curve" smooth="yes"/>
      <point x="189.333" y="491.998"/>
      <point x="226" y="488.831"/>
      <point x="296" y="486.498" type="curve" smooth="yes"/>
      <point x="366" y="484.165"/>
      <point x="408.833" y="482.832"/>
      <point x="424.5" y="482.499" type="curve" smooth="yes"/>
      <point x="463.98" y="481.659"/>
      <point x="492.485" y="484.161"/>
      <point x="510.016" y="490.005" type="curve" smooth="yes"/>
      <point x="527.546" y="495.849"/>
      <point x="542.207" y="521.514"/>
      <point x="554" y="567" type="curve" smooth="yes"/>
      <point x="560" y="590" type="line"/>
      <point x="628.667" y="825.429"/>
      <point x="663" y="966.096"/>
    </contour>
    <contour>
      <point x="648.004" y="1133.5" type="curve" smooth="yes"/>
      <point x="740.004" y="1225.83"/>
      <point x="794.668" y="1276.49"/>
      <point x="812.001" y="1285.49" type="curve" smooth="yes"/>
      <point x="829.334" y="1294.49"/>
      <point x="849.334" y="1292.82"/>
      <point x="872.001" y="1280.49" type="curve" smooth="yes"/>
      <point x="894.668" y="1268.16"/>
      <point x="906.001" y="1253.33"/>
      <point x="906.001" y="1235.99" type="curve" smooth="yes"/>
      <point x="906.001" y="1218.66"/>
      <point x="900.001" y="1189.83"/>
      <point x="888.001" y="1149.49" type="curve" smooth="yes"/>
      <point x="876.001" y="1109.16"/>
      <point x="861.334" y="1060.49"/>
      <point x="844.001" y="1003.49" type="curve" smooth="yes"/>
      <point x="826.668" y="946.493"/>
      <point x="812.335" y="894.826"/>
      <point x="801.002" y="848.493" type="curve" smooth="yes"/>
      <point x="789.669" y="802.16"/>
      <point x="772.502" y="738.16"/>
      <point x="749.502" y="656.493" type="curve" smooth="yes"/>
      <point x="726.502" y="574.826"/>
      <point x="714.002" y="526.826"/>
      <point x="712.002" y="512.493" type="curve" smooth="yes"/>
      <point x="710.002" y="498.16"/>
      <point x="716.337" y="481.056"/>
      <point x="731.007" y="461.181" type="curve" smooth="yes"/>
      <point x="745.677" y="441.306"/>
      <point x="743.844" y="426.473"/>
      <point x="725.507" y="416.682" type="curve" smooth="yes"/>
      <point x="707.17" y="406.891"/>
      <point x="694.335" y="393.328"/>
      <point x="687.002" y="375.995" type="curve" smooth="yes"/>
      <point x="679.669" y="358.662"/>
      <point x="664.836" y="306.662"/>
      <point x="642.503" y="219.995" type="curve" smooth="yes"/>
      <point x="620.17" y="133.328"/>
      <point x="594.17" y="72.4951"/>
      <point x="564.503" y="37.4951" type="curve" smooth="yes"/>
      <point x="534.836" y="2.49512"/>
      <point x="494.336" y="-7.67188"/>
      <point x="443.003" y="6.99512" type="curve" smooth="yes"/>
      <point x="419.67" y="13.6621"/>
      <point x="405.67" y="23.4951"/>
      <point x="401.003" y="36.4951" type="curve" smooth="yes"/>
      <point x="396.336" y="49.4951"/>
      <point x="400.836" y="76.6621"/>
      <point x="414.503" y="117.995" type="curve" smooth="yes"/>
      <point x="471.031" y="288.957"/>
      <point x="498.198" y="380.29"/>
      <point x="496.004" y="391.994" type="curve" smooth="yes"/>
      <point x="494.671" y="399.994"/>
      <point x="484.004" y="404.827"/>
      <point x="464.004" y="406.494" type="curve" smooth="yes"/>
      <point x="444.004" y="408.161"/>
      <point x="376.337" y="409.328"/>
      <point x="261.004" y="409.995" type="curve" smooth="yes"/>
      <point x="145.671" y="410.662"/>
      <point x="77.0039" y="415.329"/>
      <point x="55.0039" y="423.996" type="curve" smooth="yes"/>
      <point x="25.5605" y="435.595"/>
      <point x="34.8936" y="466.595"/>
      <point x="83.0039" y="516.996" type="curve" smooth="yes"/>
      <point x="164.839" y="602.729"/>
      <point x="229.131" y="673.828"/>
      <point x="275.88" y="730.296" type="curve" smooth="yes"/>
      <point x="322.629" y="786.764"/>
      <point x="363.337" y="832.997"/>
      <point x="398.004" y="868.997" type="curve" smooth="yes"/>
      <point x="432.671" y="904.997"/>
      <point x="460.004" y="934.997"/>
      <point x="480.004" y="958.997" type="curve" smooth="yes"/>
      <point x="500.004" y="982.997"/>
      <point x="556.004" y="1041.16"/>
    </contour>
  </outline>
</glyph>
<glyph name="five" format="2">
  <advance width="872"/>
  <unicode hex="0035"/>
  <outline>
    <contour>
      <point x="426" y="1245" type="curve" smooth="yes"/>
      <point x="454" y="1255"/>
      <point x="521.001" y="1258.33"/>
      <point x="627.001" y="1255" type="curve" smooth="yes"/>
      <point x="733.001" y="1251.67"/>
      <point x="793.668" y="1244.33"/>
      <point x="809.001" y="1233" type="curve" smooth="yes"/>
      <point x="836.334" y="1212.33"/>
      <point x="844.001" y="1191"/>
      <point x="832.001" y="1169" type="curve" smooth="yes"/>
      <point x="820.001" y="1147"/>
      <point x="801.501" y="1133.5"/>
      <point x="776.501" y="1128.5" type="curve" smooth="yes"/>
      <point x="751.501" y="1123.5"/>
      <point x="698.668" y="1120.67"/>
      <point x="618.001" y="1120" type="curve" smooth="yes"/>
      <point x="537.334" y="1119.33"/>
      <point x="488.001" y="1116.33"/>
      <point x="470.001" y="1111" type="curve" smooth="yes"/>
      <point x="452.001" y="1105.67"/>
      <point x="439.001" y="1094.17"/>
      <point x="431.001" y="1076.5" type="curve" smooth="yes"/>
      <point x="423.001" y="1058.83"/>
      <point x="406.168" y="1013"/>
      <point x="380.501" y="938.999" type="curve" smooth="yes"/>
      <point x="354.834" y="864.999"/>
      <point x="343.001" y="817.999"/>
      <point x="345.001" y="797.999" type="curve" smooth="yes"/>
      <point x="347.001" y="783.332"/>
      <point x="359.001" y="777.332"/>
      <point x="381.001" y="779.999" type="curve" smooth="yes"/>
      <point x="383.668" y="779.999"/>
      <point x="399.668" y="782.332"/>
      <point x="429.001" y="786.999" type="curve" smooth="yes"/>
      <point x="499.26" y="798.177"/>
      <point x="569.927" y="779.51"/>
      <point x="641.001" y="730.999" type="curve" smooth="yes"/>
      <point x="686.334" y="700.332"/>
      <point x="719.667" y="658.665"/>
      <point x="741" y="605.998" type="curve" smooth="yes"/>
      <point x="762.333" y="553.331"/>
      <point x="770.166" y="497.331"/>
      <point x="764.499" y="437.998" type="curve" smooth="yes"/>
      <point x="758.832" y="378.665"/>
      <point x="743.832" y="319.998"/>
      <point x="719.499" y="261.998" type="curve" smooth="yes"/>
      <point x="695.166" y="203.998"/>
      <point x="659.333" y="150.998"/>
      <point x="612" y="102.998" type="curve" smooth="yes"/>
      <point x="564.667" y="54.998"/>
      <point x="518.167" y="21.998"/>
      <point x="472.5" y="3.99805" type="curve" smooth="yes"/>
      <point x="426.833" y="-14.002"/>
      <point x="371.166" y="-23.502"/>
      <point x="305.499" y="-24.502" type="curve" smooth="yes"/>
      <point x="239.832" y="-25.502"/>
      <point x="195.499" y="-19.6689"/>
      <point x="172.499" y="-7.00195" type="curve" smooth="yes"/>
      <point x="149.499" y="5.66504"/>
      <point x="124.999" y="26.832"/>
      <point x="98.999" y="56.499" type="curve" smooth="yes"/>
      <point x="72.999" y="86.166"/>
      <point x="55.666" y="112.999"/>
      <point x="46.999" y="136.999" type="curve" smooth="yes"/>
      <point x="36.332" y="175.666"/>
      <point x="33.332" y="217.666"/>
      <point x="37.999" y="262.999" type="curve" smooth="yes"/>
      <point x="42.666" y="308.332"/>
      <point x="54.833" y="349.665"/>
      <point x="74.5" y="386.998" type="curve" smooth="yes"/>
      <point x="94.167" y="424.331"/>
      <point x="115" y="442.998"/>
      <point x="137" y="442.998" type="curve" smooth="yes"/>
      <point x="166.333" y="442.998"/>
      <point x="167.5" y="412.665"/>
      <point x="140.5" y="351.998" type="curve" smooth="yes"/>
      <point x="113.5" y="291.331"/>
      <point x="102.833" y="240.498"/>
      <point x="108.5" y="199.498" type="curve" smooth="yes"/>
      <point x="114.167" y="158.498"/>
      <point x="134.167" y="121.498"/>
      <point x="168.5" y="88.498" type="curve" smooth="yes"/>
      <point x="202.833" y="55.498"/>
      <point x="239.166" y="38.8311"/>
      <point x="277.499" y="38.498" type="curve" smooth="yes"/>
      <point x="315.832" y="38.165"/>
      <point x="352.832" y="50.498"/>
      <point x="388.499" y="75.498" type="curve" smooth="yes"/>
      <point x="424.166" y="100.498"/>
      <point x="457.333" y="137.331"/>
      <point x="488" y="185.998" type="curve" smooth="yes"/>
      <point x="518.667" y="234.665"/>
      <point x="542" y="290.332"/>
      <point x="558" y="352.999" type="curve" smooth="yes"/>
      <point x="590.667" y="480.332"/>
      <point x="590.5" y="574.999"/>
      <point x="557.5" y="636.999" type="curve" smooth="yes"/>
      <point x="524.5" y="698.999"/>
      <point x="461" y="724.332"/>
      <point x="367" y="712.999" type="curve" smooth="yes"/>
      <point x="293.667" y="704.332"/>
      <point x="253.834" y="701.332"/>
      <point x="247.501" y="703.999" type="curve" smooth="yes"/>
      <point x="241.168" y="706.666"/>
      <point x="237.168" y="713.833"/>
      <point x="235.501" y="725.5" type="curve" smooth="yes"/>
      <point x="233.834" y="737.167"/>
      <point x="240.667" y="767.5"/>
      <point x="256" y="816.5" type="curve" smooth="yes"/>
      <point x="271.333" y="865.5"/>
      <point x="289" y="920.833"/>
      <point x="309" y="982.5" type="curve" smooth="yes"/>
      <point x="329" y="1044.17"/>
      <point x="342" y="1090"/>
      <point x="348" y="1120" type="curve" smooth="yes"/>
      <point x="363.333" y="1191.33"/>
      <point x="389.333" y="1233"/>
    </contour>
  </outline>
</glyph>
<glyph name="six" format="2">
  <advance width="802"/>
  <unicode hex="0036"/>
  <outline>
    <contour>
      <point x="547" y="604" type="curve" smooth="yes"/>
      <point x="521" y="623.333"/>
      <point x="493.332" y="629.502"/>
      <point x="463.999" y="622.502" type="curve" smooth="yes"/>
      <point x="434.666" y="615.502"/>
      <point x="393.166" y="594.335"/>
      <point x="339.499" y="559.002" type="curve" smooth="yes"/>
      <point x="285.832" y="523.669"/>
      <point x="253.165" y="497.669"/>
      <point x="241.498" y="481.002" type="curve" smooth="yes"/>
      <point x="229.831" y="464.335"/>
      <point x="220.164" y="429.335"/>
      <point x="212.497" y="376.002" type="curve" smooth="yes"/>
      <point x="204.83" y="322.669"/>
      <point x="205.997" y="268.002"/>
      <point x="215.997" y="212.002" type="curve" smooth="yes"/>
      <point x="225.997" y="156.002"/>
      <point x="243.33" y="112.169"/>
      <point x="267.997" y="80.502" type="curve" smooth="yes"/>
      <point x="292.664" y="48.835"/>
      <point x="319.831" y="35.502"/>
      <point x="349.498" y="40.502" type="curve" smooth="yes"/>
      <point x="379.165" y="45.502"/>
      <point x="414.332" y="67.1689"/>
      <point x="454.999" y="105.502" type="curve" smooth="yes"/>
      <point x="495.666" y="143.835"/>
      <point x="526.333" y="183.668"/>
      <point x="547" y="225.001" type="curve" smooth="yes"/>
      <point x="589.667" y="311.668"/>
      <point x="611" y="388.668"/>
      <point x="611" y="456.001" type="curve" smooth="yes"/>
      <point x="611" y="523.334"/>
      <point x="589.667" y="572.667"/>
    </contour>
    <contour>
      <point x="291.499" y="1100" type="curve" smooth="yes"/>
      <point x="357.166" y="1172.67"/>
      <point x="428.828" y="1218"/>
      <point x="506.495" y="1236" type="curve" smooth="yes"/>
      <point x="584.162" y="1254"/>
      <point x="646.995" y="1250.83"/>
      <point x="694.995" y="1226.5" type="curve" smooth="yes"/>
      <point x="742.995" y="1202.17"/>
      <point x="766.995" y="1160"/>
      <point x="766.995" y="1100" type="curve" smooth="yes"/>
      <point x="766.995" y="1059.33"/>
      <point x="760.995" y="1034.33"/>
      <point x="748.995" y="1025" type="curve" smooth="yes"/>
      <point x="736.995" y="1015.67"/>
      <point x="727.662" y="1023.33"/>
      <point x="720.995" y="1048" type="curve" smooth="yes"/>
      <point x="712.995" y="1082" type="line" smooth="yes"/>
      <point x="707.662" y="1104.67"/>
      <point x="695.329" y="1127.33"/>
      <point x="675.996" y="1150" type="curve" smooth="yes"/>
      <point x="656.663" y="1172.67"/>
      <point x="634.33" y="1184"/>
      <point x="608.997" y="1184" type="curve" smooth="yes"/>
      <point x="503.664" y="1184"/>
      <point x="399.664" y="1039.67"/>
      <point x="296.997" y="751" type="curve" smooth="yes"/>
      <point x="264.33" y="657.667"/>
      <point x="250.128" y="605.672"/>
      <point x="254.391" y="595.016" type="curve" smooth="yes"/>
      <point x="258.653" y="584.359"/>
      <point x="283.653" y="596.859"/>
      <point x="329.391" y="632.516" type="curve" smooth="yes"/>
      <point x="423.538" y="705.912"/>
      <point x="510.74" y="716.073"/>
      <point x="590.997" y="663" type="curve" smooth="yes"/>
      <point x="624.997" y="640.333"/>
      <point x="647.497" y="615.5"/>
      <point x="658.497" y="588.5" type="curve" smooth="yes"/>
      <point x="669.497" y="561.5"/>
      <point x="674.997" y="518.333"/>
      <point x="674.997" y="459" type="curve" smooth="yes"/>
      <point x="674.997" y="361.667"/>
      <point x="650.83" y="268.334"/>
      <point x="602.497" y="179.001" type="curve" smooth="yes"/>
      <point x="554.164" y="89.668"/>
      <point x="494.664" y="29.335"/>
      <point x="423.997" y="-1.99805" type="curve" smooth="yes"/>
      <point x="328.612" y="-39.8711"/>
      <point x="246.412" y="-30.7275"/>
      <point x="177.396" y="25.4326" type="curve" smooth="yes"/>
      <point x="108.381" y="81.5928"/>
      <point x="64.0811" y="164.949"/>
      <point x="44.4971" y="275.503" type="curve" smooth="yes"/>
      <point x="34.1641" y="333.836"/>
      <point x="32.3311" y="395.336"/>
      <point x="38.998" y="460.003" type="curve" smooth="yes"/>
      <point x="52.3311" y="589.336"/>
      <point x="81.3311" y="710.169"/>
      <point x="125.998" y="822.502" type="curve" smooth="yes"/>
      <point x="170.665" y="934.835"/>
      <point x="225.832" y="1027.33"/>
    </contour>
  </outline>
</glyph>
<glyph name="seven" format="2">
  <advance width="776"/>
  <unicode hex="0037"/>
  <outline>
    <contour>
      <point x="253" y="1281" type="qcurve" smooth="yes"/>
      <point x="329" y="1306"/>
      <point x="491" y="1254" type="qcurve" smooth="yes"/>
      <point x="579" y="1226"/>
      <point x="631" y="1225"/>
      <point x="676" y="1250" type="qcurve" smooth="yes"/>
      <point x="695" y="1261"/>
      <point x="719" y="1271"/>
      <point x="735" y="1271"/>
      <point x="741" y="1260"/>
      <point x="741" y="1249" type="qcurve" smooth="yes"/>
      <point x="741" y="1233"/>
      <point x="708" y="1167"/>
      <point x="691" y="1149" type="qcurve" smooth="yes"/>
      <point x="651" y="1106"/>
      <point x="499" y="891"/>
      <point x="475" y="842" type="qcurve" smooth="yes"/>
      <point x="457" y="807"/>
      <point x="450" y="763"/>
      <point x="470" y="736"/>
      <point x="496" y="727" type="qcurve" smooth="yes"/>
      <point x="545" y="710"/>
      <point x="543" y="685" type="qcurve" smooth="yes"/>
      <point x="540" y="660"/>
      <point x="496" y="651" type="qcurve" smooth="yes"/>
      <point x="479" y="648"/>
      <point x="458" y="649" type="qcurve" smooth="yes"/>
      <point x="413" y="651"/>
      <point x="400" y="644" type="qcurve" smooth="yes"/>
      <point x="379" y="631"/>
      <point x="310" y="447"/>
      <point x="281" y="326" type="qcurve" smooth="yes"/>
      <point x="233" y="129"/>
      <point x="180" y="14"/>
      <point x="130" y="1" type="qcurve" smooth="yes"/>
      <point x="112" y="-4"/>
      <point x="47" y="18"/>
      <point x="39" y="32" type="qcurve" smooth="yes"/>
      <point x="23" y="56"/>
      <point x="99" y="341"/>
      <point x="159" y="485" type="qcurve" smooth="yes"/>
      <point x="232" y="659"/>
      <point x="167" y="664" type="qcurve" smooth="yes"/>
      <point x="152" y="665"/>
      <point x="130" y="656" type="qcurve" smooth="yes"/>
      <point x="101" y="643"/>
      <point x="87" y="653" type="qcurve" smooth="yes"/>
      <point x="48" y="678"/>
      <point x="91" y="700" type="qcurve" smooth="yes"/>
      <point x="112" y="710"/>
      <point x="148" y="717" type="qcurve" smooth="yes"/>
      <point x="192" y="726"/>
      <point x="228" y="732"/>
      <point x="283" y="746"/>
      <point x="299" y="751"/>
      <point x="331" y="768"/>
      <point x="338" y="776"/>
      <point x="359" y="801"/>
      <point x="367" y="818"/>
      <point x="377" y="838" type="qcurve" smooth="yes"/>
      <point x="418" y="917"/>
      <point x="477" y="991" type="qcurve" smooth="yes"/>
      <point x="502" y="1022"/>
      <point x="526" y="1053"/>
      <point x="540" y="1086"/>
      <point x="537" y="1098"/>
      <point x="511" y="1114"/>
      <point x="477" y="1121"/>
      <point x="443" y="1128" type="qcurve" smooth="yes"/>
      <point x="420" y="1133"/>
      <point x="316" y="1154" type="qcurve" smooth="yes"/>
      <point x="252" y="1167"/>
      <point x="173" y="1147"/>
      <point x="135" y="1109" type="qcurve" smooth="yes"/>
      <point x="101" y="1075"/>
      <point x="79" y="1065"/>
      <point x="67" y="1079" type="qcurve" smooth="yes"/>
      <point x="49" y="1100"/>
      <point x="95" y="1183"/>
      <point x="198" y="1263"/>
    </contour>
  </outline>
</glyph>
<glyph name="eight" format="2">
  <advance width="889"/>
  <unicode hex="0038"/>
  <outline>
    <contour>
      <point x="388" y="560" type="curve" smooth="yes"/>
      <point x="377.333" y="580"/>
      <point x="366.669" y="590.834"/>
      <point x="356.002" y="592.501" type="curve" smooth="yes"/>
      <point x="345.335" y="594.168"/>
      <point x="328.335" y="587.001"/>
      <point x="305.002" y="571.001" type="curve" smooth="yes"/>
      <point x="209.669" y="507.001"/>
      <point x="148.669" y="429.668"/>
      <point x="122.002" y="339.001" type="curve" smooth="yes"/>
      <point x="95.335" y="248.334"/>
      <point x="109.668" y="166.334"/>
      <point x="165.001" y="93.001" type="curve" smooth="yes"/>
      <point x="201.001" y="45.001"/>
      <point x="243.668" y="30.668"/>
      <point x="293.001" y="50.001" type="curve" smooth="yes"/>
      <point x="342.334" y="69.334"/>
      <point x="385.667" y="117.334"/>
      <point x="423" y="194.001" type="curve" smooth="yes"/>
      <point x="446.333" y="242.001"/>
      <point x="454.833" y="298.668"/>
      <point x="448.5" y="364.001" type="curve" smooth="yes"/>
      <point x="442.167" y="429.334"/>
      <point x="422" y="494.667"/>
    </contour>
    <contour>
      <point x="713.003" y="1171" type="curve" smooth="yes"/>
      <point x="676.336" y="1193"/>
      <point x="639.836" y="1199.67"/>
      <point x="603.503" y="1191" type="curve" smooth="yes"/>
      <point x="533.959" y="1174.41"/>
      <point x="489.292" y="1115.91"/>
      <point x="469.503" y="1015.5" type="curve" smooth="yes"/>
      <point x="460.128" y="967.931"/>
      <point x="468.628" y="903.264"/>
      <point x="495.003" y="821.501" type="curve" smooth="yes"/>
      <point x="502.915" y="796.975"/>
      <point x="512.438" y="782.855"/>
      <point x="523.571" y="779.145" type="curve" smooth="yes"/>
      <point x="534.705" y="775.434"/>
      <point x="548.061" y="778.481"/>
      <point x="563.638" y="788.289" type="curve" smooth="yes"/>
      <point x="704.548" y="877.011"/>
      <point x="775.003" y="961.248"/>
      <point x="775.003" y="1041" type="curve" smooth="yes"/>
      <point x="775.003" y="1065"/>
      <point x="768.67" y="1090.5"/>
      <point x="756.003" y="1117.5" type="curve" smooth="yes"/>
      <point x="743.336" y="1144.5"/>
      <point x="729.003" y="1162.33"/>
    </contour>
    <contour>
      <point x="571.003" y="1258" type="curve" smooth="yes"/>
      <point x="639.67" y="1267.33"/>
      <point x="693.5" y="1263.17"/>
      <point x="732.5" y="1245.5" type="curve" smooth="yes"/>
      <point x="771.5" y="1227.83"/>
      <point x="805.333" y="1190.83"/>
      <point x="834" y="1134.5" type="curve" smooth="yes"/>
      <point x="862.667" y="1078.17"/>
      <point x="861.5" y="1015.83"/>
      <point x="830.5" y="947.501" type="curve" smooth="yes"/>
      <point x="799.5" y="879.168"/>
      <point x="744.333" y="820.001"/>
      <point x="665" y="770.001" type="curve" smooth="yes"/>
      <point x="621.667" y="743.334"/>
      <point x="592.334" y="723.001"/>
      <point x="577.001" y="709.001" type="curve" smooth="yes"/>
      <point x="561.668" y="695.001"/>
      <point x="555.335" y="683.334"/>
      <point x="558.002" y="674.001" type="curve" smooth="yes"/>
      <point x="604.53" y="549.11"/>
      <point x="630.996" y="461.055"/>
      <point x="637.398" y="409.834" type="curve" smooth="yes"/>
      <point x="650.448" y="305.434"/>
      <point x="643.645" y="227.361"/>
      <point x="616.987" y="175.618" type="curve" smooth="yes"/>
      <point x="590.33" y="123.875"/>
      <point x="551.668" y="80.3369"/>
      <point x="501.001" y="45.0039" type="curve" smooth="yes"/>
      <point x="450.334" y="9.6709"/>
      <point x="398.834" y="-12.4961"/>
      <point x="346.501" y="-21.4961" type="curve" smooth="yes"/>
      <point x="294.168" y="-30.4961"/>
      <point x="243.335" y="-25.9961"/>
      <point x="194.002" y="-7.99609" type="curve" smooth="yes"/>
      <point x="144.669" y="10.0039"/>
      <point x="107.002" y="41.3369"/>
      <point x="81.002" y="86.0039" type="curve" smooth="yes"/>
      <point x="19.6689" y="190.004"/>
      <point x="19.002" y="305.337"/>
      <point x="79.002" y="432.004" type="curve" smooth="yes"/>
      <point x="94.335" y="463.337"/>
      <point x="120.335" y="499.17"/>
      <point x="157.002" y="539.503" type="curve" smooth="yes"/>
      <point x="193.669" y="579.836"/>
      <point x="228.336" y="608.003"/>
      <point x="261.003" y="624.003" type="curve" smooth="yes"/>
      <point x="293.67" y="640.003"/>
      <point x="313.503" y="656.67"/>
      <point x="320.503" y="674.003" type="curve" smooth="yes"/>
      <point x="327.503" y="691.336"/>
      <point x="324.003" y="720.669"/>
      <point x="310.003" y="762.002" type="curve" smooth="yes"/>
      <point x="263.336" y="895.335"/>
      <point x="263.836" y="1007.17"/>
      <point x="311.503" y="1097.5" type="curve" smooth="yes"/>
      <point x="359.17" y="1187.83"/>
      <point x="445.67" y="1241.33"/>
    </contour>
  </outline>
</glyph>
<glyph name="nine" format="2">
  <advance width="793"/>
  <unicode hex="0039"/>
  <outline>
    <contour>
      <point x="513" y="1167" type="qcurve" smooth="yes"/>
      <point x="491" y="1183"/>
      <point x="439" y="1184"/>
      <point x="383" y="1148"/>
      <point x="329" y="1094"/>
      <point x="281" y="1016"/>
      <point x="245" y="931"/>
      <point x="224" y="835"/>
      <point x="224" y="790" type="qcurve" smooth="yes"/>
      <point x="224" y="730"/>
      <point x="286" y="616"/>
      <point x="324" y="607" type="qcurve" smooth="yes"/>
      <point x="350" y="600"/>
      <point x="486" y="674"/>
      <point x="533" y="721" type="qcurve" smooth="yes"/>
      <point x="575" y="762"/>
      <point x="600" y="948"/>
      <point x="558" y="1131"/>
    </contour>
    <contour>
      <point x="416" y="1242" type="qcurve" smooth="yes"/>
      <point x="530" y="1278"/>
      <point x="703" y="1151"/>
      <point x="774" y="866"/>
      <point x="747" y="682" type="qcurve" smooth="yes"/>
      <point x="712" y="444"/>
      <point x="502" y="66"/>
      <point x="366" y="-6" type="qcurve" smooth="yes"/>
      <point x="344" y="-18"/>
      <point x="198" y="-30"/>
      <point x="162" y="-23" type="qcurve" smooth="yes"/>
      <point x="107" y="-13"/>
      <point x="22" y="108"/>
      <point x="39" y="152" type="qcurve" smooth="yes"/>
      <point x="51" y="185"/>
      <point x="82" y="152" type="qcurve" smooth="yes"/>
      <point x="97" y="135"/>
      <point x="112" y="105" type="qcurve" smooth="yes"/>
      <point x="169" y="-9"/>
      <point x="259" y="37" type="qcurve" smooth="yes"/>
      <point x="353" y="85"/>
      <point x="441" y="288" type="qcurve" smooth="yes"/>
      <point x="481" y="379"/>
      <point x="513" y="492" type="qcurve" smooth="yes"/>
      <point x="544" y="602"/>
      <point x="526" y="629"/>
      <point x="453" y="584" type="qcurve" smooth="yes"/>
      <point x="375" y="535"/>
      <point x="243" y="551"/>
      <point x="157" y="677"/>
      <point x="156" y="876"/>
      <point x="220" y="1063"/>
      <point x="344" y="1219"/>
    </contour>
  </outline>
</glyph>
<glyph name="colon" format="2">
  <advance width="253"/>
  <unicode hex="003A"/>
  <outline>
    <contour>
      <point x="35" y="279.5" type="curve" smooth="yes"/>
      <point x="37.667" y="302.5"/>
      <point x="46.334" y="318.832"/>
      <point x="61.001" y="328.499" type="curve" smooth="yes"/>
      <point x="75.668" y="338.166"/>
      <point x="95.168" y="341.833"/>
      <point x="119.501" y="339.5" type="curve" smooth="yes"/>
      <point x="143.834" y="337.167"/>
      <point x="160.667" y="331.667"/>
      <point x="170" y="323" type="curve" smooth="yes"/>
      <point x="194.667" y="298.333"/>
      <point x="199.667" y="270.333"/>
      <point x="185" y="239" type="curve" smooth="yes"/>
      <point x="170.333" y="207.667"/>
      <point x="147.833" y="192"/>
      <point x="117.5" y="192" type="curve" smooth="yes"/>
      <point x="87.167" y="192"/>
      <point x="65.167" y="200.833"/>
      <point x="51.5" y="218.5" type="curve" smooth="yes"/>
      <point x="37.833" y="236.167"/>
      <point x="32.333" y="256.5"/>
    </contour>
    <contour>
      <point x="72" y="619.999" type="curve" smooth="yes"/>
      <point x="98" y="648.666"/>
      <point x="129.668" y="651.331"/>
      <point x="167.001" y="627.998" type="curve" smooth="yes"/>
      <point x="228.334" y="590.665"/>
      <point x="234.334" y="549.332"/>
      <point x="185.001" y="503.999" type="curve" smooth="yes"/>
      <point x="159.668" y="480.666"/>
      <point x="134.168" y="472.499"/>
      <point x="108.501" y="479.499" type="curve" smooth="yes"/>
      <point x="82.834" y="486.499"/>
      <point x="66.167" y="503.999"/>
      <point x="58.5" y="531.999" type="curve" smooth="yes"/>
      <point x="50.833" y="559.999"/>
      <point x="47.833" y="577.832"/>
      <point x="49.5" y="585.499" type="curve" smooth="yes"/>
      <point x="51.167" y="593.166"/>
      <point x="58.667" y="604.666"/>
    </contour>
  </outline>
</glyph>
<glyph name="semicolon" format="2">
  <advance width="262"/>
  <unicode hex="003B"/>
  <outline>
    <contour>
      <point x="58" y="343" type="qcurve" smooth="yes"/>
      <point x="84" y="360"/>
      <point x="154" y="361"/>
      <point x="214" y="330"/>
      <point x="214" y="307" type="qcurve" smooth="yes"/>
      <point x="214" y="285"/>
      <point x="172" y="172"/>
      <point x="157" y="154" type="qcurve" smooth="yes"/>
      <point x="144" y="138"/>
      <point x="119" y="128"/>
      <point x="103" y="140"/>
      <point x="103" y="157" type="qcurve" smooth="yes"/>
      <point x="103" y="179"/>
      <point x="37" y="251"/>
      <point x="36" y="265" type="qcurve" smooth="yes"/>
      <point x="32" y="322"/>
    </contour>
    <contour>
      <point x="92" y="621" type="qcurve"/>
      <point x="117" y="643"/>
      <point x="157" y="646"/>
      <point x="190" y="628" type="qcurve" smooth="yes"/>
      <point x="232" y="605"/>
      <point x="220" y="517"/>
      <point x="172" y="482" type="qcurve" smooth="yes"/>
      <point x="139" y="457"/>
      <point x="73" y="505"/>
      <point x="64" y="587"/>
    </contour>
  </outline>
</glyph>
<glyph name="less" format="2">
  <advance width="619"/>
  <unicode hex="003C"/>
  <outline>
    <contour>
      <point x="287.5" y="496.5" type="curve" smooth="yes"/>
      <point x="312.5" y="470.833"/>
      <point x="325.006" y="456.662"/>
      <point x="325.006" y="453.995" type="curve" smooth="yes"/>
      <point x="325.006" y="451.328"/>
      <point x="358.673" y="412.495"/>
      <point x="426.006" y="337.495" type="curve" smooth="yes"/>
      <point x="493.339" y="262.495"/>
      <point x="527.006" y="219.328"/>
      <point x="527.006" y="207.995" type="curve" smooth="yes"/>
      <point x="527.006" y="196.662"/>
      <point x="522.006" y="186.495"/>
      <point x="512.006" y="177.495" type="curve" smooth="yes"/>
      <point x="502.006" y="168.495"/>
      <point x="492.339" y="165.495"/>
      <point x="483.006" y="168.495" type="curve" smooth="yes"/>
      <point x="473.673" y="171.495"/>
      <point x="438.006" y="203.662"/>
      <point x="376.006" y="264.995" type="curve" smooth="yes"/>
      <point x="314.006" y="326.328"/>
      <point x="270.339" y="372.995"/>
      <point x="245.006" y="404.995" type="curve" smooth="yes"/>
      <point x="219.673" y="436.995"/>
      <point x="191.673" y="468.995"/>
      <point x="161.006" y="500.995" type="curve" smooth="yes"/>
      <point x="130.339" y="532.995"/>
      <point x="109.672" y="556.828"/>
      <point x="99.0049" y="572.495" type="curve" smooth="yes"/>
      <point x="88.3379" y="588.162"/>
      <point x="74.6709" y="604.829"/>
      <point x="58.0039" y="622.496" type="curve" smooth="yes"/>
      <point x="25.6113" y="656.833"/>
      <point x="29.9443" y="683.333"/>
      <point x="71.0039" y="701.996" type="curve" smooth="yes"/>
      <point x="96.3369" y="713.329"/>
      <point x="113.67" y="723.329"/>
      <point x="123.003" y="731.996" type="curve" smooth="yes"/>
      <point x="132.336" y="740.663"/>
      <point x="184.669" y="780.83"/>
      <point x="280.002" y="852.497" type="curve" smooth="yes"/>
      <point x="375.335" y="924.164"/>
      <point x="432.668" y="969.831"/>
      <point x="452.001" y="989.498" type="curve" smooth="yes"/>
      <point x="471.334" y="1009.17"/>
      <point x="489.667" y="1025.67"/>
      <point x="507" y="1039" type="curve" smooth="yes"/>
      <point x="524.333" y="1052.33"/>
      <point x="541.5" y="1057.83"/>
      <point x="558.5" y="1055.5" type="curve" smooth="yes"/>
      <point x="575.5" y="1053.17"/>
      <point x="584" y="1042.83"/>
      <point x="584" y="1024.5" type="curve" smooth="yes"/>
      <point x="584" y="1006.17"/>
      <point x="550" y="968.999"/>
      <point x="482" y="912.999" type="curve" smooth="yes"/>
      <point x="414" y="856.999"/>
      <point x="345.833" y="802.832"/>
      <point x="277.5" y="750.499" type="curve" smooth="yes"/>
      <point x="209.167" y="698.166"/>
      <point x="175" y="666.333"/>
      <point x="175" y="655" type="curve" smooth="yes"/>
      <point x="175" y="626.333"/>
      <point x="212.5" y="573.5"/>
    </contour>
  </outline>
</glyph>
<glyph name="equal" format="2">
  <advance width="828"/>
  <unicode hex="003D"/>
  <outline>
    <contour>
      <point x="46" y="418" type="curve" smooth="yes"/>
      <point x="48" y="430.667"/>
      <point x="54.835" y="439.666"/>
      <point x="66.502" y="444.999" type="curve" smooth="yes"/>
      <point x="78.1689" y="450.332"/>
      <point x="193.836" y="453.999"/>
      <point x="413.503" y="455.999" type="curve" smooth="yes"/>
      <point x="633.17" y="457.999"/>
      <point x="749.503" y="457.666"/>
      <point x="762.503" y="454.999" type="curve" smooth="yes"/>
      <point x="775.503" y="452.332"/>
      <point x="784.67" y="446.165"/>
      <point x="790.003" y="436.498" type="curve" smooth="yes"/>
      <point x="795.336" y="426.831"/>
      <point x="794.169" y="416.498"/>
      <point x="786.502" y="405.498" type="curve" smooth="yes"/>
      <point x="778.835" y="394.498"/>
      <point x="765.668" y="387.831"/>
      <point x="747.001" y="385.498" type="curve" smooth="yes"/>
      <point x="728.334" y="383.165"/>
      <point x="672.667" y="380.665"/>
      <point x="580" y="377.998" type="curve" smooth="yes"/>
      <point x="248" y="368.665"/>
      <point x="73.667" y="371.332"/>
      <point x="57" y="385.999" type="curve" smooth="yes"/>
      <point x="47.667" y="394.666"/>
      <point x="44" y="405.333"/>
    </contour>
    <contour>
      <point x="88.002" y="542.999" type="curve" smooth="yes"/>
      <point x="52.6689" y="545.666"/>
      <point x="35.002" y="554.665"/>
      <point x="35.002" y="569.998" type="curve" smooth="yes"/>
      <point x="35.002" y="585.331"/>
      <point x="41.6689" y="595.998"/>
      <point x="55.002" y="601.998" type="curve" smooth="yes"/>
      <point x="68.335" y="607.998"/>
      <point x="113.502" y="611.331"/>
      <point x="190.502" y="611.998" type="curve" smooth="yes"/>
      <point x="267.502" y="612.665"/>
      <point x="373.335" y="613.665"/>
      <point x="508.002" y="614.998" type="curve" smooth="yes"/>
      <point x="642.669" y="616.331"/>
      <point x="721.502" y="614.998"/>
      <point x="744.502" y="610.998" type="curve" smooth="yes"/>
      <point x="767.502" y="606.998"/>
      <point x="779.002" y="602.165"/>
      <point x="779.002" y="596.498" type="curve" smooth="yes"/>
      <point x="779.002" y="590.831"/>
      <point x="776.002" y="582.831"/>
      <point x="770.002" y="572.498" type="curve" smooth="yes"/>
      <point x="764.002" y="562.165"/>
      <point x="755.169" y="554.832"/>
      <point x="743.502" y="550.499" type="curve" smooth="yes"/>
      <point x="731.835" y="546.166"/>
      <point x="688.835" y="543.666"/>
      <point x="614.502" y="542.999" type="curve" smooth="yes"/>
      <point x="540.169" y="542.332"/>
      <point x="442.669" y="541.499"/>
      <point x="322.002" y="540.499" type="curve" smooth="yes"/>
      <point x="201.335" y="539.499"/>
      <point x="123.335" y="540.332"/>
    </contour>
  </outline>
</glyph>
<glyph name="greater" format="2">
  <advance width="697"/>
  <unicode hex="003E"/>
  <outline>
    <contour>
      <point x="279" y="808.5" type="curve" smooth="yes"/>
      <point x="233" y="852.833"/>
      <point x="210.001" y="879.496"/>
      <point x="210.001" y="888.496" type="curve" smooth="yes"/>
      <point x="210.001" y="897.496"/>
      <point x="215.668" y="907.163"/>
      <point x="227.001" y="917.496" type="curve" smooth="yes"/>
      <point x="249.08" y="937.627"/>
      <point x="305.08" y="908.127"/>
      <point x="395.001" y="828.996" type="curve" smooth="yes"/>
      <point x="426.334" y="800.996"/>
      <point x="472.667" y="763.496"/>
      <point x="534" y="716.496" type="curve" smooth="yes"/>
      <point x="595.333" y="669.496"/>
      <point x="633.166" y="638.829"/>
      <point x="647.499" y="624.496" type="curve" smooth="yes"/>
      <point x="661.832" y="610.163"/>
      <point x="665.332" y="597.33"/>
      <point x="657.999" y="585.997" type="curve" smooth="yes"/>
      <point x="650.666" y="574.664"/>
      <point x="616.166" y="547.331"/>
      <point x="554.499" y="503.998" type="curve" smooth="yes"/>
      <point x="492.832" y="460.665"/>
      <point x="456.165" y="433.832"/>
      <point x="444.498" y="423.499" type="curve" smooth="yes"/>
      <point x="432.831" y="413.166"/>
      <point x="395.498" y="385.833"/>
      <point x="332.498" y="341.5" type="curve" smooth="yes"/>
      <point x="269.498" y="297.167"/>
      <point x="228.665" y="268"/>
      <point x="209.998" y="254" type="curve" smooth="yes"/>
      <point x="123.998" y="189.333"/>
      <point x="70.998" y="160.333"/>
      <point x="50.998" y="167" type="curve" smooth="yes"/>
      <point x="41.665" y="169.667"/>
      <point x="36.332" y="177"/>
      <point x="34.999" y="189" type="curve" smooth="yes"/>
      <point x="33.666" y="201"/>
      <point x="35.666" y="210.667"/>
      <point x="40.999" y="218" type="curve" smooth="yes"/>
      <point x="46.332" y="225.333"/>
      <point x="55.665" y="234"/>
      <point x="68.998" y="244" type="curve" smooth="yes"/>
      <point x="82.3311" y="254"/>
      <point x="104.331" y="270.333"/>
      <point x="134.998" y="293" type="curve" smooth="yes"/>
      <point x="165.665" y="315.667"/>
      <point x="199.832" y="340.5"/>
      <point x="237.499" y="367.5" type="curve" smooth="yes"/>
      <point x="275.166" y="394.5"/>
      <point x="311.833" y="420.833"/>
      <point x="347.5" y="446.5" type="curve" smooth="yes"/>
      <point x="383.167" y="472.167"/>
      <point x="413.334" y="494"/>
      <point x="438.001" y="512" type="curve" smooth="yes"/>
      <point x="462.668" y="530"/>
      <point x="475.335" y="539"/>
      <point x="476.002" y="539" type="curve" smooth="yes"/>
      <point x="522.657" y="567.448"/>
      <point x="536.157" y="592.781"/>
      <point x="516.502" y="615" type="curve" smooth="yes"/>
      <point x="508.835" y="623.667"/>
      <point x="487.168" y="643.667"/>
      <point x="451.501" y="675" type="curve" smooth="yes"/>
      <point x="415.834" y="706.333"/>
      <point x="389.667" y="725.333"/>
      <point x="373" y="732" type="curve" smooth="yes"/>
      <point x="356.333" y="738.667"/>
      <point x="325" y="764.167"/>
    </contour>
  </outline>
</glyph>
<glyph name="question" format="2">
  <advance width="776"/>
  <unicode hex="003F"/>
  <outline>
    <contour>
      <point x="111" y="145" type="qcurve" smooth="yes"/>
      <point x="179" y="166"/>
      <point x="243" y="103"/>
      <point x="213" y="46" type="qcurve" smooth="yes"/>
      <point x="187" y="-4"/>
      <point x="101" y="4"/>
      <point x="78" y="58" type="qcurve" smooth="yes"/>
      <point x="60" y="98"/>
      <point x="73" y="133"/>
    </contour>
    <contour>
      <point x="387" y="1361" type="qcurve" smooth="yes"/>
      <point x="419" y="1369"/>
      <point x="462" y="1365"/>
      <point x="509" y="1347" type="qcurve" smooth="yes"/>
      <point x="662" y="1290"/>
      <point x="771" y="1052"/>
      <point x="706" y="917" type="qcurve" smooth="yes"/>
      <point x="678" y="859"/>
      <point x="668" y="849" type="qcurve" smooth="yes"/>
      <point x="661" y="842"/>
      <point x="637" y="810"/>
      <point x="560" y="724"/>
      <point x="488" y="652" type="qcurve" smooth="yes"/>
      <point x="358" y="524"/>
      <point x="215" y="337"/>
      <point x="186" y="255" type="qcurve" smooth="yes"/>
      <point x="160" y="180"/>
      <point x="137" y="212" type="qcurve" smooth="yes"/>
      <point x="111" y="250"/>
      <point x="250" y="561"/>
      <point x="351" y="691" type="qcurve" smooth="yes"/>
      <point x="477" y="853"/>
      <point x="567" y="1048"/>
      <point x="549" y="1122" type="qcurve" smooth="yes"/>
      <point x="526" y="1219"/>
      <point x="415" y="1300"/>
      <point x="321" y="1288" type="qcurve" smooth="yes"/>
      <point x="269" y="1281"/>
      <point x="173" y="1202"/>
      <point x="117" y="1093"/>
      <point x="96" y="969"/>
      <point x="118" y="916" type="qcurve" smooth="yes"/>
      <point x="138" y="865"/>
      <point x="137" y="790"/>
      <point x="116" y="790" type="qcurve" smooth="yes"/>
      <point x="82" y="790"/>
      <point x="31" y="937"/>
      <point x="36" y="1022" type="qcurve" smooth="yes"/>
      <point x="44" y="1158"/>
      <point x="212" y="1350"/>
      <point x="325" y="1353" type="qcurve" smooth="yes"/>
      <point x="357" y="1355"/>
    </contour>
  </outline>
</glyph>
<glyph name="at" format="2">
  <advance width="1386"/>
  <unicode hex="0040"/>
  <outline>
    <contour>
      <point x="768" y="565" type="curve" smooth="yes"/>
      <point x="730.667" y="591.667"/>
      <point x="695.164" y="591.001"/>
      <point x="661.497" y="563.001" type="curve" smooth="yes"/>
      <point x="627.83" y="535.001"/>
      <point x="594.33" y="482.334"/>
      <point x="560.997" y="405.001" type="curve" smooth="yes"/>
      <point x="527.664" y="327.668"/>
      <point x="511.331" y="270.668"/>
      <point x="511.998" y="234.001" type="curve" smooth="yes"/>
      <point x="512.665" y="197.334"/>
      <point x="524.332" y="167.667"/>
      <point x="546.999" y="145" type="curve" smooth="yes"/>
      <point x="569.666" y="122.333"/>
      <point x="587.333" y="112.166"/>
      <point x="600" y="114.499" type="curve" smooth="yes"/>
      <point x="612.667" y="116.832"/>
      <point x="632.5" y="131.832"/>
      <point x="659.5" y="159.499" type="curve" smooth="yes"/>
      <point x="686.5" y="187.166"/>
      <point x="711.667" y="222.333"/>
      <point x="735" y="265" type="curve" smooth="yes"/>
      <point x="758.333" y="307.667"/>
      <point x="775.5" y="348.667"/>
      <point x="786.5" y="388" type="curve" smooth="yes"/>
      <point x="797.5" y="427.333"/>
      <point x="801.667" y="463.5"/>
      <point x="799" y="496.5" type="curve" smooth="yes"/>
      <point x="796.333" y="529.5"/>
      <point x="786" y="552.333"/>
    </contour>
    <contour>
      <point x="676.997" y="1037" type="curve" smooth="yes"/>
      <point x="732.997" y="1049"/>
      <point x="799.171" y="1052.01"/>
      <point x="875.504" y="1046.01" type="curve" smooth="yes"/>
      <point x="951.837" y="1040.01"/>
      <point x="1001.17" y="1029.51"/>
      <point x="1023.5" y="1014.51" type="curve" smooth="yes"/>
      <point x="1045.84" y="999.507"/>
      <point x="1073.34" y="983.674"/>
      <point x="1106" y="967.007" type="curve" smooth="yes"/>
      <point x="1184" y="927.007"/>
      <point x="1232" y="852.84"/>
      <point x="1250" y="744.507" type="curve" smooth="yes"/>
      <point x="1268" y="636.174"/>
      <point x="1254.34" y="502.007"/>
      <point x="1209" y="342.007" type="curve" smooth="yes"/>
      <point x="1181" y="242.674"/>
      <point x="1139.67" y="161.174"/>
      <point x="1085" y="97.5068" type="curve" smooth="yes"/>
      <point x="1030.34" y="33.8398"/>
      <point x="969.669" y="-3.66016"/>
      <point x="903.002" y="-14.9932" type="curve" smooth="yes"/>
      <point x="877.002" y="-18.9932"/>
      <point x="848.335" y="-10.3262"/>
      <point x="817.002" y="11.0068" type="curve" smooth="yes"/>
      <point x="785.669" y="32.3398"/>
      <point x="765.669" y="57.0068"/>
      <point x="757.002" y="85.0068" type="curve" smooth="yes"/>
      <point x="745.669" y="125.007"/>
      <point x="708.669" y="115.674"/>
      <point x="646.002" y="57.0068" type="curve" smooth="yes"/>
      <point x="608.002" y="22.3398"/>
      <point x="560.835" y="10.0068"/>
      <point x="504.502" y="20.0068" type="curve" smooth="yes"/>
      <point x="448.169" y="30.0068"/>
      <point x="404.336" y="59.0068"/>
      <point x="373.003" y="107.007" type="curve" smooth="yes"/>
      <point x="333.72" y="162.765"/>
      <point x="333.053" y="252.932"/>
      <point x="371.003" y="377.508" type="curve" smooth="yes"/>
      <point x="386.336" y="427.841"/>
      <point x="408.836" y="475.174"/>
      <point x="438.503" y="519.507" type="curve" smooth="yes"/>
      <point x="468.17" y="563.84"/>
      <point x="500.003" y="594.673"/>
      <point x="534.003" y="612.006" type="curve" smooth="yes"/>
      <point x="625.336" y="659.339"/>
      <point x="704.003" y="667.672"/>
      <point x="770.003" y="637.005" type="curve" smooth="yes"/>
      <point x="792.003" y="626.338"/>
      <point x="808.336" y="620.338"/>
      <point x="819.003" y="619.005" type="curve" smooth="yes"/>
      <point x="829.67" y="617.672"/>
      <point x="848.67" y="619.672"/>
      <point x="876.003" y="625.005" type="curve" smooth="yes"/>
      <point x="929.047" y="635.354"/>
      <point x="965.983" y="635.471"/>
      <point x="986.813" y="625.354" type="curve" smooth="yes"/>
      <point x="1007.64" y="615.236"/>
      <point x="1015.18" y="590.881"/>
      <point x="1009.42" y="552.286" type="curve" smooth="yes"/>
      <point x="1003.66" y="513.691"/>
      <point x="983.481" y="448.162"/>
      <point x="948.89" y="355.699" type="curve" smooth="yes"/>
      <point x="914.298" y="263.236"/>
      <point x="905.335" y="192.005"/>
      <point x="922.002" y="142.005" type="curve" smooth="yes"/>
      <point x="933.335" y="109.338"/>
      <point x="954.668" y="100.005"/>
      <point x="986.001" y="114.005" type="curve" smooth="yes"/>
      <point x="1017.33" y="128.005"/>
      <point x="1055.17" y="178.005"/>
      <point x="1099.5" y="264.005" type="curve" smooth="yes"/>
      <point x="1143.83" y="350.005"/>
      <point x="1172.17" y="440.838"/>
      <point x="1184.5" y="536.505" type="curve" smooth="yes"/>
      <point x="1196.83" y="632.172"/>
      <point x="1188.17" y="715.505"/>
      <point x="1158.5" y="786.505" type="curve" smooth="yes"/>
      <point x="1108.21" y="906.852"/>
      <point x="1006.71" y="968.685"/>
      <point x="853.998" y="972.005" type="curve" smooth="yes"/>
      <point x="730.857" y="974.682"/>
      <point x="613.857" y="943.515"/>
      <point x="502.998" y="878.504" type="curve" smooth="yes"/>
      <point x="448.998" y="846.837"/>
      <point x="406.331" y="810.337"/>
      <point x="374.998" y="769.004" type="curve" smooth="yes"/>
      <point x="300.331" y="671.671"/>
      <point x="247.164" y="557.504"/>
      <point x="215.497" y="426.504" type="curve" smooth="yes"/>
      <point x="183.83" y="295.504"/>
      <point x="180.997" y="185.671"/>
      <point x="206.997" y="97.0039" type="curve" smooth="yes"/>
      <point x="232.997" y="8.33691"/>
      <point x="280.164" y="-64.1631"/>
      <point x="348.497" y="-120.496" type="curve" smooth="yes"/>
      <point x="416.83" y="-176.829"/>
      <point x="498.33" y="-212.662"/>
      <point x="592.997" y="-227.995" type="curve" smooth="yes"/>
      <point x="655.664" y="-238.662"/>
      <point x="727.497" y="-232.162"/>
      <point x="808.497" y="-208.495" type="curve" smooth="yes"/>
      <point x="889.497" y="-184.828"/>
      <point x="953.997" y="-151.661"/>
      <point x="1002" y="-108.994" type="curve" smooth="yes"/>
      <point x="1024" y="-90.9941"/>
      <point x="1047.5" y="-75.6611"/>
      <point x="1072.5" y="-62.9941" type="curve" smooth="yes"/>
      <point x="1097.5" y="-50.3271"/>
      <point x="1129" y="-22.8271"/>
      <point x="1167" y="19.5059" type="curve" smooth="yes"/>
      <point x="1205" y="61.8389"/>
      <point x="1234.66" y="102.672"/>
      <point x="1256" y="142.005" type="curve" smooth="yes"/>
      <point x="1277.33" y="181.338"/>
      <point x="1292.83" y="205.171"/>
      <point x="1302.5" y="213.504" type="curve" smooth="yes"/>
      <point x="1312.16" y="221.837"/>
      <point x="1324" y="222.67"/>
      <point x="1338" y="216.003" type="curve" smooth="yes"/>
      <point x="1369.33" y="198.67"/>
      <point x="1347.66" y="140.003"/>
      <point x="1273" y="40.0029" type="curve" smooth="yes"/>
      <point x="1126.33" y="-153.997"/>
      <point x="944.329" y="-265.664"/>
      <point x="726.996" y="-294.997" type="curve" smooth="yes"/>
      <point x="596.329" y="-311.664"/>
      <point x="477.996" y="-298.331"/>
      <point x="371.996" y="-254.998" type="curve" smooth="yes"/>
      <point x="265.996" y="-211.665"/>
      <point x="183.163" y="-143.332"/>
      <point x="123.496" y="-49.999" type="curve" smooth="yes"/>
      <point x="63.8291" y="43.334"/>
      <point x="34.3291" y="152.334"/>
      <point x="34.9961" y="277.001" type="curve" smooth="yes"/>
      <point x="35.6631" y="467.001"/>
      <point x="93.8301" y="630.501"/>
      <point x="209.497" y="767.501" type="curve" smooth="yes"/>
      <point x="325.164" y="904.501"/>
      <point x="480.997" y="994.334"/>
    </contour>
  </outline>
</glyph>
<glyph name="A" format="2">
  <advance width="1717"/>
  <unicode hex="0041"/>
  <outline>
    <contour>
      <point x="669" y="629" type="line"/>
      <point x="577.667" y="610.733"/>
      <point x="532" y="582.066"/>
      <point x="532" y="543" type="curve" smooth="yes"/>
      <point x="532" y="525.667"/>
      <point x="524.667" y="497.834"/>
      <point x="510" y="459.501" type="curve" smooth="yes"/>
      <point x="495.333" y="421.168"/>
      <point x="479.666" y="390.668"/>
      <point x="462.999" y="368.001" type="curve" smooth="yes"/>
      <point x="446.332" y="345.334"/>
      <point x="425.165" y="332.667"/>
      <point x="399.498" y="330" type="curve" smooth="yes"/>
      <point x="373.831" y="327.333"/>
      <point x="360.664" y="334.333"/>
      <point x="359.997" y="351" type="curve" smooth="yes"/>
      <point x="359.33" y="359"/>
      <point x="368.663" y="380.5"/>
      <point x="387.996" y="415.5" type="curve" smooth="yes"/>
      <point x="407.329" y="450.5"/>
      <point x="419.496" y="477"/>
      <point x="424.496" y="495" type="curve" smooth="yes"/>
      <point x="429.496" y="513"/>
      <point x="425.996" y="530.667"/>
      <point x="413.996" y="548" type="curve" smooth="yes"/>
      <point x="387.329" y="577.333"/>
      <point x="356.996" y="587.833"/>
      <point x="322.996" y="579.5" type="curve" smooth="yes"/>
      <point x="288.996" y="571.167"/>
      <point x="257.163" y="545.5"/>
      <point x="227.496" y="502.5" type="curve" smooth="yes"/>
      <point x="197.829" y="459.5"/>
      <point x="182.996" y="415"/>
      <point x="182.996" y="369" type="curve" smooth="yes"/>
      <point x="182.996" y="323"/>
      <point x="197.496" y="282"/>
      <point x="226.496" y="246" type="curve" smooth="yes"/>
      <point x="255.496" y="210"/>
      <point x="285.829" y="192"/>
      <point x="317.496" y="192" type="curve" smooth="yes"/>
      <point x="349.163" y="192"/>
      <point x="392.33" y="215.333"/>
      <point x="446.997" y="262" type="curve" smooth="yes"/>
      <point x="501.664" y="308.667"/>
      <point x="555.831" y="372.167"/>
      <point x="609.498" y="452.5" type="curve" smooth="yes"/>
      <point x="663.165" y="532.833"/>
      <point x="691.832" y="580.5"/>
      <point x="695.499" y="595.5" type="curve" smooth="yes"/>
      <point x="699.166" y="610.5"/>
      <point x="695.333" y="620"/>
      <point x="684" y="624" type="curve" smooth="yes"/>
    </contour>
    <contour>
      <point x="1335" y="979.5" type="curve" smooth="yes"/>
      <point x="1369" y="1067.83"/>
      <point x="1386" y="1122.17"/>
      <point x="1386" y="1142.5" type="curve" smooth="yes"/>
      <point x="1386" y="1162.83"/>
      <point x="1358.17" y="1148"/>
      <point x="1302.5" y="1098" type="curve" smooth="yes"/>
      <point x="1246.84" y="1048"/>
      <point x="1197.17" y="992.502"/>
      <point x="1153.5" y="931.502" type="curve" smooth="yes"/>
      <point x="1109.83" y="870.502"/>
      <point x="1084.67" y="833.335"/>
      <point x="1078" y="820.002" type="curve" smooth="yes"/>
      <point x="1071.33" y="806.669"/>
      <point x="1071.67" y="797.502"/>
      <point x="1079" y="792.502" type="curve" smooth="yes"/>
      <point x="1086.33" y="787.502"/>
      <point x="1117.5" y="790.669"/>
      <point x="1172.5" y="802.002" type="curve" smooth="yes"/>
      <point x="1227.5" y="813.335"/>
      <point x="1259.83" y="823.668"/>
      <point x="1269.5" y="833.001" type="curve" smooth="yes"/>
      <point x="1279.17" y="842.334"/>
      <point x="1301" y="891.167"/>
    </contour>
    <contour>
      <point x="1383" y="1469" type="curve" smooth="yes"/>
      <point x="1459.67" y="1475"/>
      <point x="1507.33" y="1480.83"/>
      <point x="1526" y="1486.5" type="curve" smooth="yes"/>
      <point x="1544.67" y="1492.17"/>
      <point x="1567.34" y="1493.5"/>
      <point x="1594" y="1490.5" type="curve" smooth="yes"/>
      <point x="1620.67" y="1487.5"/>
      <point x="1642.34" y="1481.67"/>
      <point x="1659" y="1473" type="curve" smooth="yes"/>
      <point x="1675.67" y="1464.33"/>
      <point x="1683" y="1447.83"/>
      <point x="1681" y="1423.5" type="curve" smooth="yes"/>
      <point x="1679" y="1399.17"/>
      <point x="1658.67" y="1337.67"/>
      <point x="1620" y="1239" type="curve" smooth="yes"/>
      <point x="1581.34" y="1140.33"/>
      <point x="1523.34" y="969.168"/>
      <point x="1446" y="725.501" type="curve" smooth="yes"/>
      <point x="1368.67" y="481.834"/>
      <point x="1325.17" y="328.167"/>
      <point x="1315.5" y="264.5" type="curve" smooth="yes"/>
      <point x="1305.84" y="200.833"/>
      <point x="1317.17" y="169.333"/>
      <point x="1349.5" y="170" type="curve" smooth="yes"/>
      <point x="1392.2" y="170.881"/>
      <point x="1453.7" y="231.548"/>
      <point x="1534" y="352.001" type="curve" smooth="yes"/>
      <point x="1568.67" y="405.334"/>
      <point x="1594.5" y="426.667"/>
      <point x="1611.5" y="416" type="curve" smooth="yes"/>
      <point x="1628.5" y="405.333"/>
      <point x="1622.67" y="373.333"/>
      <point x="1594" y="320" type="curve" smooth="yes"/>
      <point x="1565.34" y="266.667"/>
      <point x="1528.84" y="218.834"/>
      <point x="1484.5" y="176.501" type="curve" smooth="yes"/>
      <point x="1440.17" y="134.168"/>
      <point x="1405.17" y="107.001"/>
      <point x="1379.5" y="95.001" type="curve" smooth="yes"/>
      <point x="1353.84" y="83.001"/>
      <point x="1321.34" y="78.001"/>
      <point x="1282" y="80.001" type="curve" smooth="yes"/>
      <point x="1120" y="89.334"/>
      <point x="1095.34" y="261.001"/>
      <point x="1208" y="595.001" type="curve" smooth="yes"/>
      <point x="1233.96" y="671.154"/>
      <point x="1241.2" y="713.933"/>
      <point x="1229.71" y="723.336" type="curve" smooth="yes"/>
      <point x="1218.21" y="732.739"/>
      <point x="1198.55" y="734.034"/>
      <point x="1170.73" y="727.221" type="curve" smooth="yes"/>
      <point x="1142.91" y="720.407"/>
      <point x="1113" y="713.001"/>
      <point x="1081" y="705.001" type="curve" smooth="yes"/>
      <point x="1022.99" y="690.497"/>
      <point x="982.65" y="678.137"/>
      <point x="959.996" y="667.92" type="curve" smooth="yes"/>
      <point x="937.342" y="657.703"/>
      <point x="917.374" y="642.59"/>
      <point x="900.093" y="622.58" type="curve" smooth="yes"/>
      <point x="882.812" y="602.57"/>
      <point x="863.31" y="574.305"/>
      <point x="841.587" y="537.783" type="curve" smooth="yes"/>
      <point x="819.864" y="501.262"/>
      <point x="803.503" y="476.168"/>
      <point x="792.503" y="462.501" type="curve" smooth="yes"/>
      <point x="781.503" y="448.834"/>
      <point x="773.003" y="437.334"/>
      <point x="767.003" y="428.001" type="curve" smooth="yes"/>
      <point x="722.336" y="364.001"/>
      <point x="659.169" y="296.501"/>
      <point x="577.502" y="225.501" type="curve" smooth="yes"/>
      <point x="495.835" y="154.501"/>
      <point x="433.335" y="112.501"/>
      <point x="390.002" y="99.501" type="curve" smooth="yes"/>
      <point x="312.85" y="76.3555"/>
      <point x="241.968" y="82.8877"/>
      <point x="177.356" y="119.099" type="curve" smooth="yes"/>
      <point x="112.745" y="155.31"/>
      <point x="68.9678" y="211.532"/>
      <point x="46.0234" y="287.767" type="curve" smooth="yes"/>
      <point x="23.0791" y="364.001"/>
      <point x="31.4053" y="443.079"/>
      <point x="71.001" y="525.002" type="curve" smooth="yes"/>
      <point x="139.001" y="667.002"/>
      <point x="248.668" y="713.335"/>
      <point x="400.001" y="664.002" type="curve" smooth="yes"/>
      <point x="432.001" y="654.002"/>
      <point x="453.334" y="649.169"/>
      <point x="464.001" y="649.502" type="curve" smooth="yes"/>
      <point x="474.668" y="649.835"/>
      <point x="501.835" y="657.335"/>
      <point x="545.502" y="672.002" type="curve" smooth="yes"/>
      <point x="589.169" y="686.669"/>
      <point x="635.502" y="695.669"/>
      <point x="684.502" y="699.002" type="curve" smooth="yes"/>
      <point x="733.502" y="702.335"/>
      <point x="766.002" y="709.668"/>
      <point x="782.002" y="721.001" type="curve" smooth="yes"/>
      <point x="798.002" y="732.334"/>
      <point x="846.502" y="785.501"/>
      <point x="927.502" y="880.501" type="curve" smooth="yes"/>
      <point x="1008.5" y="975.501"/>
      <point x="1075.91" y="1045.75"/>
      <point x="1129.72" y="1091.25" type="curve" smooth="yes"/>
      <point x="1183.53" y="1136.75"/>
      <point x="1215.28" y="1163.25"/>
      <point x="1224.97" y="1170.75" type="curve" smooth="yes"/>
      <point x="1234.66" y="1178.25"/>
      <point x="1248.92" y="1189.67"/>
      <point x="1267.75" y="1205" type="curve" smooth="yes"/>
      <point x="1286.58" y="1220.33"/>
      <point x="1324.17" y="1250.83"/>
      <point x="1380.5" y="1296.5" type="curve" smooth="yes"/>
      <point x="1436.83" y="1342.17"/>
      <point x="1467.33" y="1370.5"/>
      <point x="1472" y="1381.5" type="curve" smooth="yes"/>
      <point x="1476.67" y="1392.5"/>
      <point x="1467.83" y="1399.67"/>
      <point x="1445.5" y="1403" type="curve" smooth="yes"/>
      <point x="1423.17" y="1406.33"/>
      <point x="1321.67" y="1397"/>
      <point x="1141" y="1375" type="curve"/>
      <point x="1140" y="1375" type="line"/>
      <point x="1139" y="1375" type="line"/>
      <point x="1138" y="1374" type="line"/>
      <point x="1137" y="1374" type="line"/>
      <point x="1136" y="1374" type="line"/>
      <point x="1135" y="1374" type="line"/>
      <point x="1134" y="1374" type="line"/>
      <point x="1133" y="1374" type="line"/>
      <point x="1132" y="1374" type="line"/>
      <point x="1131" y="1374" type="line"/>
      <point x="1130" y="1374" type="line"/>
      <point x="1129" y="1373" type="line"/>
      <point x="1128" y="1373" type="line"/>
      <point x="1127" y="1373" type="line"/>
      <point x="1126" y="1373" type="line"/>
      <point x="1125" y="1373" type="line"/>
      <point x="1124" y="1373" type="line"/>
      <point x="1123" y="1373" type="line"/>
      <point x="1122" y="1373" type="line"/>
      <point x="1121" y="1372" type="line"/>
      <point x="1120" y="1372" type="line"/>
      <point x="1119" y="1372" type="line"/>
      <point x="1117" y="1372" type="line"/>
      <point x="787.615" y="1331.92"/>
      <point x="568.448" y="1262.09"/>
      <point x="459.502" y="1162.5" type="curve" smooth="yes"/>
      <point x="405.169" y="1112.83"/>
      <point x="375.669" y="1070.33"/>
      <point x="371.002" y="1035" type="curve" smooth="yes"/>
      <point x="366.335" y="999.669"/>
      <point x="381.335" y="967.336"/>
      <point x="416.002" y="938.003" type="curve" smooth="yes"/>
      <point x="450.669" y="908.67"/>
      <point x="464.669" y="885.67"/>
      <point x="458.002" y="869.003" type="curve" smooth="yes"/>
      <point x="451.335" y="852.336"/>
      <point x="428.835" y="847.003"/>
      <point x="390.502" y="853.003" type="curve" smooth="yes"/>
      <point x="352.169" y="859.003"/>
      <point x="319.336" y="874.336"/>
      <point x="292.003" y="899.003" type="curve" smooth="yes"/>
      <point x="236.515" y="949.077"/>
      <point x="213.515" y="1012.74"/>
      <point x="223.003" y="1090" type="curve" smooth="yes"/>
      <point x="238.537" y="1216.49"/>
      <point x="363.37" y="1308.83"/>
      <point x="597.503" y="1367" type="curve" smooth="yes"/>
      <point x="761.17" y="1407.67"/>
      <point x="1023" y="1441.67"/>
    </contour>
  </outline>
</glyph>
<glyph name="B" format="2">
  <advance width="1691"/>
  <unicode hex="0042"/>
  <outline>
    <contour>
      <point x="1071" y="725" type="qcurve" smooth="yes"/>
      <point x="1068" y="726"/>
      <point x="1010" y="739" type="qcurve" smooth="yes"/>
      <point x="992" y="743"/>
      <point x="986" y="736" type="qcurve" smooth="yes"/>
      <point x="975" y="726"/>
      <point x="925" y="604" type="qcurve" smooth="yes"/>
      <point x="878" y="494"/>
      <point x="814" y="367" type="qcurve" smooth="yes"/>
      <point x="787" y="313"/>
      <point x="766" y="266"/>
      <point x="748" y="220"/>
      <point x="758" y="197"/>
      <point x="772" y="178"/>
      <point x="791" y="162" type="qcurve" smooth="yes"/>
      <point x="895" y="75"/>
      <point x="1075" y="82"/>
      <point x="1166" y="177" type="qcurve" smooth="yes"/>
      <point x="1231" y="246"/>
      <point x="1284" y="425"/>
      <point x="1256" y="583"/>
      <point x="1152" y="708"/>
    </contour>
    <contour>
      <point x="1435" y="1290" type="qcurve" smooth="yes"/>
      <point x="1398" y="1309"/>
      <point x="1314" y="1304"/>
      <point x="1291" y="1281" type="qcurve" smooth="yes"/>
      <point x="1247" y="1237"/>
      <point x="1126" y="1028"/>
      <point x="1052" y="845"/>
      <point x="1068" y="834" type="qcurve" smooth="yes"/>
      <point x="1084" y="821"/>
      <point x="1213" y="812"/>
      <point x="1244" y="820" type="qcurve" smooth="yes"/>
      <point x="1303" y="836"/>
      <point x="1416" y="970"/>
      <point x="1479" y="1125"/>
      <point x="1478" y="1267"/>
    </contour>
    <contour>
      <point x="1350" y="1452" type="qcurve" smooth="yes"/>
      <point x="1395" y="1478"/>
      <point x="1438" y="1491"/>
      <point x="1477" y="1491" type="qcurve" smooth="yes"/>
      <point x="1519" y="1491"/>
      <point x="1564" y="1467"/>
      <point x="1552" y="1430"/>
      <point x="1519" y="1413" type="qcurve" smooth="yes"/>
      <point x="1485" y="1395"/>
      <point x="1491" y="1366"/>
      <point x="1533" y="1337" type="qcurve" smooth="yes"/>
      <point x="1602" y="1289"/>
      <point x="1656" y="1181"/>
      <point x="1656" y="1091" type="qcurve" smooth="yes"/>
      <point x="1656" y="1008"/>
      <point x="1583" y="888"/>
      <point x="1489" y="815" type="qcurve" smooth="yes"/>
      <point x="1466" y="797"/>
      <point x="1420" y="773"/>
      <point x="1356" y="746" type="qcurve" smooth="yes"/>
      <point x="1340" y="739"/>
      <point x="1329" y="732"/>
      <point x="1332" y="715"/>
      <point x="1350" y="697"/>
      <point x="1372" y="676" type="qcurve" smooth="yes"/>
      <point x="1425" y="626"/>
      <point x="1476" y="497"/>
      <point x="1471" y="365"/>
      <point x="1417" y="230"/>
      <point x="1324" y="119"/>
      <point x="1188" y="34"/>
      <point x="1108" y="16" type="qcurve" smooth="yes"/>
      <point x="990" y="-11"/>
      <point x="817" y="33"/>
      <point x="723" y="115" type="qcurve" smooth="yes"/>
      <point x="694" y="140"/>
      <point x="654" y="140"/>
      <point x="616" y="113" type="qcurve" smooth="yes"/>
      <point x="521" y="45"/>
      <point x="266" y="8"/>
      <point x="206" y="54" type="qcurve" smooth="yes"/>
      <point x="110" y="127"/>
      <point x="55" y="196"/>
      <point x="41" y="260" type="qcurve" smooth="yes"/>
      <point x="22" y="344"/>
      <point x="101" y="498"/>
      <point x="261" y="583"/>
      <point x="354" y="572" type="qcurve" smooth="yes"/>
      <point x="414" y="565"/>
      <point x="506" y="507"/>
      <point x="546" y="424"/>
      <point x="548" y="335"/>
      <point x="492" y="250"/>
      <point x="440" y="223" type="qcurve" smooth="yes"/>
      <point x="393" y="200"/>
      <point x="362" y="251"/>
      <point x="398" y="291" type="qcurve" smooth="yes"/>
      <point x="428" y="325"/>
      <point x="440" y="395"/>
      <point x="409" y="442"/>
      <point x="358" y="467"/>
      <point x="287" y="448"/>
      <point x="255" y="416" type="qcurve" smooth="yes"/>
      <point x="207" y="369"/>
      <point x="200" y="236"/>
      <point x="277" y="134"/>
      <point x="340" y="127" type="qcurve" smooth="yes"/>
      <point x="382" y="122"/>
      <point x="465" y="166"/>
      <point x="520" y="223" type="qcurve" smooth="yes"/>
      <point x="589" y="295"/>
      <point x="645" y="397"/>
      <point x="701" y="551" type="qcurve" smooth="yes"/>
      <point x="735" y="644"/>
      <point x="888" y="971"/>
      <point x="923" y="1025" type="qcurve" smooth="yes"/>
      <point x="929" y="1034"/>
      <point x="981" y="1107"/>
      <point x="1075" y="1227"/>
      <point x="1107" y="1261" type="qcurve" smooth="yes"/>
      <point x="1135" y="1291"/>
      <point x="1152" y="1321"/>
      <point x="1135" y="1342"/>
      <point x="1069" y="1342"/>
      <point x="1014" y="1341" type="qcurve" smooth="yes"/>
      <point x="765" y="1330"/>
      <point x="389" y="1165"/>
      <point x="332" y="1041" type="qcurve" smooth="yes"/>
      <point x="310" y="993"/>
      <point x="325" y="940"/>
      <point x="371" y="899" type="qcurve" smooth="yes"/>
      <point x="399" y="875"/>
      <point x="417" y="846"/>
      <point x="403" y="827"/>
      <point x="378" y="818" type="qcurve" smooth="yes"/>
      <point x="338" y="805"/>
      <point x="217" y="880"/>
      <point x="190" y="933" type="qcurve" smooth="yes"/>
      <point x="129" y="1053"/>
      <point x="309" y="1279"/>
      <point x="517" y="1343" type="qcurve" smooth="yes"/>
      <point x="651" y="1384"/>
      <point x="1058" y="1422"/>
      <point x="1146" y="1401" type="qcurve" smooth="yes"/>
      <point x="1199" y="1389"/>
      <point x="1268" y="1406"/>
    </contour>
  </outline>
</glyph>
<glyph name="C" format="2">
  <advance width="1072"/>
  <unicode hex="0043"/>
  <outline>
    <contour>
      <point x="603" y="1467" type="qcurve" smooth="yes"/>
      <point x="650" y="1485"/>
      <point x="852" y="1479"/>
      <point x="891" y="1459" type="qcurve" smooth="yes"/>
      <point x="968" y="1420"/>
      <point x="1043" y="1246"/>
      <point x="1032" y="1048"/>
      <point x="936" y="843"/>
      <point x="853" y="774" type="qcurve" smooth="yes"/>
      <point x="809" y="737"/>
      <point x="703" y="719"/>
      <point x="607" y="755"/>
      <point x="528" y="824"/>
      <point x="484" y="933"/>
      <point x="487" y="994" type="qcurve" smooth="yes"/>
      <point x="492" y="1089"/>
      <point x="628" y="1265"/>
      <point x="696" y="1265" type="qcurve" smooth="yes"/>
      <point x="720" y="1265"/>
      <point x="742" y="1253"/>
      <point x="743" y="1225"/>
      <point x="721" y="1182"/>
      <point x="698" y="1150" type="qcurve" smooth="yes"/>
      <point x="633" y="1059"/>
      <point x="616" y="900"/>
      <point x="665" y="851" type="qcurve" smooth="yes"/>
      <point x="705" y="811"/>
      <point x="793" y="837"/>
      <point x="848" y="905" type="qcurve" smooth="yes"/>
      <point x="951" y="1034"/>
      <point x="965" y="1306"/>
      <point x="798" y="1438"/>
      <point x="667" y="1384" type="qcurve" smooth="yes"/>
      <point x="538" y="1331"/>
      <point x="293" y="944"/>
      <point x="231" y="695" type="qcurve" smooth="yes"/>
      <point x="214" y="624"/>
      <point x="208" y="376"/>
      <point x="222" y="311" type="qcurve" smooth="yes"/>
      <point x="256" y="161"/>
      <point x="482" y="28"/>
      <point x="624" y="76" type="qcurve" smooth="yes"/>
      <point x="668" y="90"/>
      <point x="837" y="249"/>
      <point x="876" y="311" type="qcurve" smooth="yes"/>
      <point x="926" y="393"/>
      <point x="961" y="406" type="qcurve" smooth="yes"/>
      <point x="984" y="414"/>
      <point x="983" y="385" type="qcurve" smooth="yes"/>
      <point x="982" y="354"/>
      <point x="951" y="296" type="qcurve" smooth="yes"/>
      <point x="896" y="191"/>
      <point x="678" y="12"/>
      <point x="575" y="-12" type="qcurve" smooth="yes"/>
      <point x="461" y="-39"/>
      <point x="260" y="19"/>
      <point x="117" y="166"/>
      <point x="35" y="401"/>
      <point x="35" y="546" type="qcurve" smooth="yes"/>
      <point x="35" y="751"/>
      <point x="178" y="1127"/>
      <point x="438" y="1404"/>
    </contour>
  </outline>
</glyph>
<glyph name="D" format="2">
  <advance width="1717"/>
  <unicode hex="0044"/>
  <outline>
    <contour>
      <point x="1493" y="1142" type="curve" smooth="yes"/>
      <point x="1473.01" y="1205.72"/>
      <point x="1441.34" y="1249.05"/>
      <point x="1398" y="1272" type="curve" smooth="yes"/>
      <point x="1375.33" y="1284"/>
      <point x="1359" y="1291.67"/>
      <point x="1349" y="1295" type="curve" smooth="yes"/>
      <point x="1339" y="1298.33"/>
      <point x="1328.17" y="1297.33"/>
      <point x="1316.5" y="1292" type="curve" smooth="yes"/>
      <point x="1304.83" y="1286.67"/>
      <point x="1294.33" y="1277.83"/>
      <point x="1285" y="1265.5" type="curve" smooth="yes"/>
      <point x="1275.67" y="1253.17"/>
      <point x="1260.5" y="1230.67"/>
      <point x="1239.5" y="1198" type="curve" smooth="yes"/>
      <point x="1218.5" y="1165.33"/>
      <point x="1189.5" y="1113.83"/>
      <point x="1152.5" y="1043.5" type="curve" smooth="yes"/>
      <point x="1115.5" y="973.167"/>
      <point x="1095" y="930.834"/>
      <point x="1091" y="916.501" type="curve" smooth="yes"/>
      <point x="1087" y="902.168"/>
      <point x="1067.33" y="859.001"/>
      <point x="1032" y="787.001" type="curve" smooth="yes"/>
      <point x="996.665" y="715.001"/>
      <point x="978.998" y="675.001"/>
      <point x="978.998" y="667.001" type="curve" smooth="yes"/>
      <point x="978.998" y="659.001"/>
      <point x="945.831" y="589.501"/>
      <point x="879.498" y="458.501" type="curve" smooth="yes"/>
      <point x="813.165" y="327.501"/>
      <point x="777.832" y="249.668"/>
      <point x="773.499" y="225.001" type="curve" smooth="yes"/>
      <point x="769.166" y="200.334"/>
      <point x="784.999" y="175.334"/>
      <point x="820.999" y="150.001" type="curve" smooth="yes"/>
      <point x="821.666" y="149.334"/>
      <point x="822.333" y="149.001"/>
      <point x="823" y="149.001" type="curve" smooth="yes"/>
      <point x="923.667" y="78.334"/>
      <point x="1011.67" y="56.001"/>
      <point x="1087" y="82.001" type="curve" smooth="yes"/>
      <point x="1162.33" y="108.001"/>
      <point x="1239.33" y="187.001"/>
      <point x="1318" y="319.001" type="curve" smooth="yes"/>
      <point x="1374" y="411.668"/>
      <point x="1420" y="527.668"/>
      <point x="1456" y="667.001" type="curve" smooth="yes"/>
      <point x="1463.33" y="699.668"/>
      <point x="1473.5" y="739.168"/>
      <point x="1486.5" y="785.501" type="curve" smooth="yes"/>
      <point x="1499.5" y="831.834"/>
      <point x="1506.33" y="894.667"/>
      <point x="1507" y="974" type="curve" smooth="yes"/>
      <point x="1507.67" y="1053.33"/>
      <point x="1503" y="1109.33"/>
    </contour>
    <contour>
      <point x="1242.5" y="1391.5" type="curve" smooth="yes"/>
      <point x="1257.5" y="1395.17"/>
      <point x="1295" y="1411.66"/>
      <point x="1355" y="1440.99" type="curve" smooth="yes"/>
      <point x="1415" y="1470.33"/>
      <point x="1454.16" y="1486.49"/>
      <point x="1472.5" y="1489.49" type="curve" smooth="yes"/>
      <point x="1490.83" y="1492.49"/>
      <point x="1509.16" y="1488.83"/>
      <point x="1527.5" y="1478.49" type="curve" smooth="yes"/>
      <point x="1545.83" y="1468.16"/>
      <point x="1551" y="1454.99"/>
      <point x="1543" y="1438.99" type="curve" smooth="yes"/>
      <point x="1535" y="1422.99"/>
      <point x="1521" y="1410.33"/>
      <point x="1501" y="1400.99" type="curve" smooth="yes"/>
      <point x="1481" y="1391.66"/>
      <point x="1468.66" y="1383.49"/>
      <point x="1464" y="1376.49" type="curve" smooth="yes"/>
      <point x="1454.85" y="1362.78"/>
      <point x="1469.18" y="1343.94"/>
      <point x="1507" y="1319.99" type="curve" smooth="yes"/>
      <point x="1570.33" y="1277.99"/>
      <point x="1615.33" y="1224.16"/>
      <point x="1642" y="1158.49" type="curve" smooth="yes"/>
      <point x="1668.66" y="1092.83"/>
      <point x="1681.83" y="1007.66"/>
      <point x="1681.5" y="902.993" type="curve" smooth="yes"/>
      <point x="1681.16" y="798.326"/>
      <point x="1673.66" y="714.159"/>
      <point x="1659" y="650.492" type="curve" smooth="yes"/>
      <point x="1644.33" y="586.825"/>
      <point x="1611.66" y="497.825"/>
      <point x="1561" y="383.492" type="curve" smooth="yes"/>
      <point x="1510.33" y="269.159"/>
      <point x="1438.33" y="176.826"/>
      <point x="1345" y="106.493" type="curve" smooth="yes"/>
      <point x="1251.66" y="36.1602"/>
      <point x="1148.33" y="0.993164"/>
      <point x="1035" y="0.993164" type="curve" smooth="yes"/>
      <point x="987.664" y="1.66016"/>
      <point x="947.997" y="7.82715"/>
      <point x="915.997" y="19.4941" type="curve" smooth="yes"/>
      <point x="883.997" y="31.1611"/>
      <point x="841.33" y="54.3281"/>
      <point x="787.997" y="88.9951" type="curve" smooth="yes"/>
      <point x="734.664" y="123.662"/>
      <point x="702.664" y="142.329"/>
      <point x="691.997" y="144.996" type="curve" smooth="yes"/>
      <point x="681.33" y="147.663"/>
      <point x="656.497" y="136.83"/>
      <point x="617.497" y="112.497" type="curve" smooth="yes"/>
      <point x="578.497" y="88.1641"/>
      <point x="541.83" y="69.9971"/>
      <point x="507.497" y="57.9971" type="curve" smooth="yes"/>
      <point x="473.164" y="45.9971"/>
      <point x="429.664" y="37.8301"/>
      <point x="376.997" y="33.4971" type="curve" smooth="yes"/>
      <point x="324.33" y="29.1641"/>
      <point x="288.33" y="27.9971"/>
      <point x="268.997" y="29.9971" type="curve" smooth="yes"/>
      <point x="249.664" y="31.9971"/>
      <point x="236.497" y="36.3301"/>
      <point x="229.497" y="42.9971" type="curve" smooth="yes"/>
      <point x="222.497" y="49.6641"/>
      <point x="196.997" y="68.8311"/>
      <point x="152.997" y="100.498" type="curve" smooth="yes"/>
      <point x="108.997" y="132.165"/>
      <point x="76.9971" y="172.165"/>
      <point x="56.9971" y="220.498" type="curve" smooth="yes"/>
      <point x="36.9971" y="268.831"/>
      <point x="30.6641" y="315.498"/>
      <point x="37.9971" y="360.498" type="curve" smooth="yes"/>
      <point x="45.3301" y="405.498"/>
      <point x="66.1631" y="446.831"/>
      <point x="100.496" y="484.498" type="curve" smooth="yes"/>
      <point x="134.829" y="522.165"/>
      <point x="179.329" y="547.998"/>
      <point x="233.996" y="561.998" type="curve" smooth="yes"/>
      <point x="335.996" y="587.331"/>
      <point x="416.996" y="578.664"/>
      <point x="476.996" y="535.997" type="curve" smooth="yes"/>
      <point x="536.996" y="493.33"/>
      <point x="558.329" y="429.33"/>
      <point x="540.996" y="343.997" type="curve" smooth="yes"/>
      <point x="534.329" y="312.664"/>
      <point x="523.329" y="288.997"/>
      <point x="507.996" y="272.997" type="curve" smooth="yes"/>
      <point x="492.663" y="256.997"/>
      <point x="466.83" y="242.997"/>
      <point x="430.497" y="230.997" type="curve" smooth="yes"/>
      <point x="394.164" y="218.997"/>
      <point x="372.831" y="220.164"/>
      <point x="366.498" y="234.497" type="curve" smooth="yes"/>
      <point x="360.165" y="248.83"/>
      <point x="368.498" y="268.997"/>
      <point x="391.498" y="294.997" type="curve" smooth="yes"/>
      <point x="414.498" y="320.997"/>
      <point x="428.165" y="339.83"/>
      <point x="432.498" y="351.497" type="curve" smooth="yes"/>
      <point x="436.831" y="363.164"/>
      <point x="438.331" y="378.331"/>
      <point x="436.998" y="396.998" type="curve" smooth="yes"/>
      <point x="435.665" y="415.665"/>
      <point x="426.165" y="432.665"/>
      <point x="408.498" y="447.998" type="curve" smooth="yes"/>
      <point x="390.831" y="463.331"/>
      <point x="370.498" y="470.998"/>
      <point x="347.498" y="470.998" type="curve" smooth="yes"/>
      <point x="324.498" y="470.998"/>
      <point x="300.331" y="460.665"/>
      <point x="274.998" y="439.998" type="curve" smooth="yes"/>
      <point x="249.665" y="419.331"/>
      <point x="230.498" y="394.498"/>
      <point x="217.498" y="365.498" type="curve" smooth="yes"/>
      <point x="204.498" y="336.498"/>
      <point x="198.831" y="305.665"/>
      <point x="200.498" y="272.998" type="curve" smooth="yes"/>
      <point x="202.165" y="240.331"/>
      <point x="211.832" y="214.331"/>
      <point x="229.499" y="194.998" type="curve" smooth="yes"/>
      <point x="247.166" y="175.665"/>
      <point x="272.499" y="158.832"/>
      <point x="305.499" y="144.499" type="curve" smooth="yes"/>
      <point x="338.499" y="130.166"/>
      <point x="362.666" y="124.666"/>
      <point x="377.999" y="127.999" type="curve" smooth="yes"/>
      <point x="447.999" y="142.666"/>
      <point x="511.499" y="186.333"/>
      <point x="568.499" y="259" type="curve" smooth="yes"/>
      <point x="625.499" y="331.667"/>
      <point x="689.666" y="450.334"/>
      <point x="760.999" y="615.001" type="curve" smooth="yes"/>
      <point x="786.332" y="674.334"/>
      <point x="819.999" y="746.167"/>
      <point x="861.999" y="830.5" type="curve" smooth="yes"/>
      <point x="959.605" y="1026.49"/>
      <point x="1033.29" y="1151.8"/>
      <point x="1083.04" y="1206.44" type="curve" smooth="yes"/>
      <point x="1132.8" y="1261.08"/>
      <point x="1157.9" y="1295"/>
      <point x="1158.34" y="1308.2" type="curve" smooth="yes"/>
      <point x="1158.78" y="1321.4"/>
      <point x="1154.17" y="1330.17"/>
      <point x="1144.5" y="1334.5" type="curve" smooth="yes"/>
      <point x="1134.83" y="1338.83"/>
      <point x="1119" y="1342.33"/>
      <point x="1097" y="1345" type="curve" smooth="yes"/>
      <point x="1007" y="1357"/>
      <point x="889.5" y="1343.5"/>
      <point x="744.5" y="1304.5" type="curve" smooth="yes"/>
      <point x="599.5" y="1265.5"/>
      <point x="499.667" y="1220.67"/>
      <point x="445" y="1170" type="curve" smooth="yes"/>
      <point x="430.333" y="1156.67"/>
      <point x="420.5" y="1150"/>
      <point x="415.5" y="1150" type="curve" smooth="yes"/>
      <point x="410.5" y="1150"/>
      <point x="397.5" y="1134.17"/>
      <point x="376.5" y="1102.5" type="curve" smooth="yes"/>
      <point x="355.5" y="1070.83"/>
      <point x="340" y="1042.17"/>
      <point x="330" y="1016.5" type="curve" smooth="yes"/>
      <point x="320" y="990.832"/>
      <point x="318.333" y="968.832"/>
      <point x="325" y="950.499" type="curve" smooth="yes"/>
      <point x="331.667" y="932.166"/>
      <point x="349.5" y="914.166"/>
      <point x="378.5" y="896.499" type="curve" smooth="yes"/>
      <point x="407.5" y="878.832"/>
      <point x="421.167" y="861.499"/>
      <point x="419.5" y="844.499" type="curve" smooth="yes"/>
      <point x="417.833" y="827.499"/>
      <point x="395.666" y="819.166"/>
      <point x="352.999" y="819.499" type="curve" smooth="yes"/>
      <point x="310.332" y="819.832"/>
      <point x="269.832" y="840.332"/>
      <point x="231.499" y="880.999" type="curve" smooth="yes"/>
      <point x="193.166" y="921.666"/>
      <point x="173.999" y="970.499"/>
      <point x="173.999" y="1027.5" type="curve" smooth="yes"/>
      <point x="173.999" y="1084.5"/>
      <point x="194.332" y="1136.5"/>
      <point x="234.999" y="1183.5" type="curve" smooth="yes"/>
      <point x="275.666" y="1230.5"/>
      <point x="327.999" y="1268"/>
      <point x="391.999" y="1296" type="curve" smooth="yes"/>
      <point x="527.749" y="1355.39"/>
      <point x="674.696" y="1391.44"/>
      <point x="832.841" y="1404.15" type="curve" smooth="yes"/>
      <point x="990.985" y="1416.86"/>
      <point x="1104.37" y="1414.81"/>
      <point x="1173" y="1398" type="curve" smooth="yes"/>
      <point x="1204.33" y="1390"/>
      <point x="1227.5" y="1387.83"/>
    </contour>
  </outline>
</glyph>
<glyph name="E" format="2">
  <advance width="1124"/>
  <unicode hex="0045"/>
  <outline>
    <contour>
      <point x="617" y="1502" type="qcurve" smooth="yes"/>
      <point x="663" y="1510"/>
      <point x="846" y="1501"/>
      <point x="884" y="1488" type="qcurve" smooth="yes"/>
      <point x="977" y="1456"/>
      <point x="1093" y="1246"/>
      <point x="1087" y="1006"/>
      <point x="1019" y="931" type="qcurve" smooth="yes"/>
      <point x="953" y="859"/>
      <point x="794" y="833"/>
      <point x="666" y="928"/>
      <point x="645" y="1021" type="qcurve" smooth="yes"/>
      <point x="634" y="1080"/>
      <point x="649" y="1201"/>
      <point x="699" y="1292"/>
      <point x="728" y="1292" type="qcurve" smooth="yes"/>
      <point x="751" y="1292"/>
      <point x="757" y="1249"/>
      <point x="742" y="1198" type="qcurve" smooth="yes"/>
      <point x="715" y="1107"/>
      <point x="759" y="963"/>
      <point x="858" y="942"/>
      <point x="919" y="993" type="qcurve"/>
      <point x="979" y="1053"/>
      <point x="969" y="1313"/>
      <point x="904" y="1380" type="qcurve" smooth="yes"/>
      <point x="829" y="1457"/>
      <point x="621" y="1398"/>
      <point x="569" y="1285" type="qcurve" smooth="yes"/>
      <point x="547" y="1236"/>
      <point x="550" y="1055"/>
      <point x="573" y="1023" type="qcurve" smooth="yes"/>
      <point x="615" y="966"/>
      <point x="574" y="891"/>
      <point x="513" y="913" type="qcurve" smooth="yes"/>
      <point x="460" y="931"/>
      <point x="377" y="903"/>
      <point x="332" y="850" type="qcurve" smooth="yes"/>
      <point x="255" y="761"/>
      <point x="196" y="513"/>
      <point x="243" y="264"/>
      <point x="315" y="172" type="qcurve" smooth="yes"/>
      <point x="372" y="100"/>
      <point x="593" y="63"/>
      <point x="682" y="112" type="qcurve" smooth="yes"/>
      <point x="722" y="133"/>
      <point x="868" y="273"/>
      <point x="889" y="310" type="qcurve" smooth="yes"/>
      <point x="930" y="381"/>
      <point x="974" y="437"/>
      <point x="989" y="437" type="qcurve" smooth="yes"/>
      <point x="1045" y="437"/>
      <point x="998" y="349" type="qcurve" smooth="yes"/>
      <point x="948" y="255"/>
      <point x="835" y="146" type="qcurve" smooth="yes"/>
      <point x="725" y="42"/>
      <point x="647" y="17" type="qcurve" smooth="yes"/>
      <point x="551" y="-13"/>
      <point x="290" y="30"/>
      <point x="230" y="85" type="qcurve" smooth="yes"/>
      <point x="189" y="121"/>
      <point x="165" y="140" type="qcurve" smooth="yes"/>
      <point x="98" y="193"/>
      <point x="18" y="516"/>
      <point x="44" y="628" type="qcurve" smooth="yes"/>
      <point x="72" y="749"/>
      <point x="249" y="957"/>
      <point x="341" y="977" type="qcurve" smooth="yes"/>
      <point x="418" y="994"/>
      <point x="451" y="1028"/>
      <point x="423" y="1062" type="qcurve" smooth="yes"/>
      <point x="375" y="1118"/>
      <point x="361" y="1262"/>
      <point x="417" y="1388"/>
      <point x="538" y="1488"/>
    </contour>
  </outline>
</glyph>
<glyph name="F" format="2">
  <advance width="1586"/>
  <unicode hex="0046"/>
  <outline>
    <contour>
      <point x="416" y="1466" type="curve" smooth="yes"/>
      <point x="485.885" y="1480.56"/>
      <point x="545.36" y="1484.86"/>
      <point x="594.418" y="1478.92" type="curve" smooth="yes"/>
      <point x="643.476" y="1472.97"/>
      <point x="724.478" y="1463.84"/>
      <point x="837.424" y="1451.51" type="curve" smooth="yes"/>
      <point x="950.37" y="1439.19"/>
      <point x="1020.7" y="1429.86"/>
      <point x="1048.42" y="1423.51" type="curve" smooth="yes"/>
      <point x="1076.14" y="1417.17"/>
      <point x="1119" y="1414"/>
      <point x="1177" y="1414" type="curve" smooth="yes"/>
      <point x="1235" y="1414"/>
      <point x="1280" y="1408"/>
      <point x="1312" y="1396" type="curve" smooth="yes"/>
      <point x="1379.34" y="1370.66"/>
      <point x="1437.67" y="1372.33"/>
      <point x="1487" y="1401" type="curve" smooth="yes"/>
      <point x="1518.34" y="1419"/>
      <point x="1538.67" y="1420.83"/>
      <point x="1548" y="1406.5" type="curve" smooth="yes"/>
      <point x="1557.34" y="1392.16"/>
      <point x="1552" y="1373.66"/>
      <point x="1532" y="1351" type="curve" smooth="yes"/>
      <point x="1512" y="1328.33"/>
      <point x="1488.17" y="1314.5"/>
      <point x="1460.5" y="1309.5" type="curve" smooth="yes"/>
      <point x="1432.84" y="1304.5"/>
      <point x="1390.34" y="1303.5"/>
      <point x="1333" y="1306.5" type="curve" smooth="yes"/>
      <point x="1275.67" y="1309.5"/>
      <point x="1241.67" y="1310"/>
      <point x="1231" y="1308" type="curve" smooth="yes"/>
      <point x="1220.34" y="1306"/>
      <point x="1206.5" y="1296.5"/>
      <point x="1189.5" y="1279.5" type="curve" smooth="yes"/>
      <point x="1172.5" y="1262.5"/>
      <point x="1154" y="1233.5"/>
      <point x="1134" y="1192.5" type="curve" smooth="yes"/>
      <point x="1114" y="1151.5"/>
      <point x="1097.17" y="1106.16"/>
      <point x="1083.5" y="1056.5" type="curve" smooth="yes"/>
      <point x="1069.84" y="1006.83"/>
      <point x="1066" y="976.497"/>
      <point x="1072" y="965.497" type="curve" smooth="yes"/>
      <point x="1078" y="954.497"/>
      <point x="1104.84" y="949.83"/>
      <point x="1152.5" y="951.497" type="curve" smooth="yes"/>
      <point x="1200.17" y="953.164"/>
      <point x="1226.17" y="946.331"/>
      <point x="1230.5" y="930.998" type="curve" smooth="yes"/>
      <point x="1234.84" y="915.665"/>
      <point x="1223.67" y="902.498"/>
      <point x="1197" y="891.498" type="curve" smooth="yes"/>
      <point x="1170.33" y="880.498"/>
      <point x="1135.33" y="873.331"/>
      <point x="1092" y="869.998" type="curve" smooth="yes"/>
      <point x="1048.67" y="866.665"/>
      <point x="1021.17" y="860.165"/>
      <point x="1009.5" y="850.498" type="curve" smooth="yes"/>
      <point x="997.835" y="840.831"/>
      <point x="981.502" y="799.664"/>
      <point x="960.502" y="726.997" type="curve" smooth="yes"/>
      <point x="939.502" y="654.33"/>
      <point x="905.084" y="561.746"/>
      <point x="857.248" y="449.244" type="curve" smooth="yes"/>
      <point x="809.412" y="336.742"/>
      <point x="774.996" y="269.993"/>
      <point x="754.001" y="248.998" type="curve" smooth="yes"/>
      <point x="748.001" y="242.998"/>
      <point x="736.334" y="226.998"/>
      <point x="719.001" y="200.998" type="curve" smooth="yes"/>
      <point x="631.668" y="72.998"/>
      <point x="511.001" y="6.33105"/>
      <point x="357.001" y="0.998047" type="curve" smooth="yes"/>
      <point x="306.334" y="-0.334961"/>
      <point x="274.167" y="0.832031"/>
      <point x="260.5" y="4.49902" type="curve" smooth="yes"/>
      <point x="246.833" y="8.16602"/>
      <point x="220.833" y="22.666"/>
      <point x="182.5" y="47.999" type="curve" smooth="yes"/>
      <point x="144.167" y="73.332"/>
      <point x="118.5" y="92.665"/>
      <point x="105.5" y="105.998" type="curve" smooth="yes"/>
      <point x="92.5" y="119.331"/>
      <point x="76.667" y="144.164"/>
      <point x="58" y="180.497" type="curve" smooth="yes"/>
      <point x="39.333" y="216.83"/>
      <point x="31.833" y="256.497"/>
      <point x="35.5" y="299.497" type="curve" smooth="yes"/>
      <point x="39.167" y="342.497"/>
      <point x="51" y="381.664"/>
      <point x="71" y="416.997" type="curve" smooth="yes"/>
      <point x="91" y="452.33"/>
      <point x="120.667" y="481.497"/>
      <point x="160" y="504.497" type="curve" smooth="yes"/>
      <point x="199.333" y="527.497"/>
      <point x="250.333" y="540.997"/>
      <point x="313" y="544.997" type="curve" smooth="yes"/>
      <point x="375.667" y="548.997"/>
      <point x="430.667" y="531.664"/>
      <point x="478" y="492.997" type="curve" smooth="yes"/>
      <point x="525.333" y="454.33"/>
      <point x="548.333" y="401.33"/>
      <point x="547" y="333.997" type="curve" smooth="yes"/>
      <point x="546.333" y="295.997"/>
      <point x="543.166" y="270.164"/>
      <point x="537.499" y="256.497" type="curve" smooth="yes"/>
      <point x="531.832" y="242.83"/>
      <point x="521.332" y="232.33"/>
      <point x="505.999" y="224.997" type="curve" smooth="yes"/>
      <point x="490.666" y="217.664"/>
      <point x="473.999" y="207.164"/>
      <point x="455.999" y="193.497" type="curve" smooth="yes"/>
      <point x="437.999" y="179.83"/>
      <point x="421.999" y="171.663"/>
      <point x="407.999" y="168.996" type="curve" smooth="yes"/>
      <point x="377.332" y="162.329"/>
      <point x="363.332" y="168.329"/>
      <point x="365.999" y="186.996" type="curve" smooth="yes"/>
      <point x="367.332" y="201.663"/>
      <point x="377.332" y="220.996"/>
      <point x="395.999" y="244.996" type="curve" smooth="yes"/>
      <point x="414.666" y="268.996"/>
      <point x="427.503" y="296.414"/>
      <point x="434.511" y="327.249" type="curve" smooth="yes"/>
      <point x="441.519" y="358.084"/>
      <point x="431.375" y="385.713"/>
      <point x="404.079" y="410.136" type="curve" smooth="yes"/>
      <point x="376.783" y="434.559"/>
      <point x="338.423" y="436.179"/>
      <point x="288.999" y="414.997" type="curve" smooth="yes"/>
      <point x="241.666" y="391.664"/>
      <point x="212.833" y="353.331"/>
      <point x="202.5" y="299.998" type="curve" smooth="yes"/>
      <point x="192.167" y="246.665"/>
      <point x="204.667" y="196.832"/>
      <point x="240" y="150.499" type="curve" smooth="yes"/>
      <point x="309.115" y="59.8662"/>
      <point x="403.782" y="73.3662"/>
      <point x="524" y="190.999" type="curve" smooth="yes"/>
      <point x="557.333" y="223.666"/>
      <point x="585.841" y="257.873"/>
      <point x="609.523" y="293.621" type="curve" smooth="yes"/>
      <point x="633.206" y="329.369"/>
      <point x="668.873" y="415.702"/>
      <point x="716.523" y="552.621" type="curve" smooth="yes"/>
      <point x="764.174" y="689.54"/>
      <point x="784.832" y="764.166"/>
      <point x="778.499" y="776.499" type="curve" smooth="yes"/>
      <point x="772.166" y="788.832"/>
      <point x="741.666" y="782.332"/>
      <point x="686.999" y="756.999" type="curve" smooth="yes"/>
      <point x="632.332" y="731.666"/>
      <point x="594.832" y="716.999"/>
      <point x="574.499" y="712.999" type="curve" smooth="yes"/>
      <point x="554.166" y="708.999"/>
      <point x="539.666" y="711.999"/>
      <point x="530.999" y="721.999" type="curve" smooth="yes"/>
      <point x="522.332" y="731.999"/>
      <point x="526.165" y="744.499"/>
      <point x="542.498" y="759.499" type="curve" smooth="yes"/>
      <point x="558.831" y="774.499"/>
      <point x="582.998" y="788.666"/>
      <point x="614.998" y="801.999" type="curve" smooth="yes"/>
      <point x="720.998" y="844.666"/>
      <point x="784.331" y="871.833"/>
      <point x="804.998" y="883.5" type="curve" smooth="yes"/>
      <point x="825.665" y="895.167"/>
      <point x="839.998" y="908.834"/>
      <point x="847.998" y="924.501" type="curve" smooth="yes"/>
      <point x="855.998" y="940.168"/>
      <point x="875.165" y="984.835"/>
      <point x="905.498" y="1058.5" type="curve" smooth="yes"/>
      <point x="935.831" y="1132.17"/>
      <point x="966.831" y="1196.17"/>
      <point x="998.498" y="1250.5" type="curve" smooth="yes"/>
      <point x="1030.17" y="1304.83"/>
      <point x="1036.83" y="1338.5"/>
      <point x="1018.5" y="1351.5" type="curve" smooth="yes"/>
      <point x="1000.17" y="1364.5"/>
      <point x="922.333" y="1372.67"/>
      <point x="785" y="1376" type="curve" smooth="yes"/>
      <point x="647.667" y="1379.33"/>
      <point x="548.5" y="1374"/>
      <point x="487.5" y="1360" type="curve" smooth="yes"/>
      <point x="426.5" y="1346"/>
      <point x="371.193" y="1315.14"/>
      <point x="321.581" y="1267.41" type="curve" smooth="yes"/>
      <point x="271.969" y="1219.69"/>
      <point x="247.802" y="1168.85"/>
      <point x="249.081" y="1114.91" type="curve" smooth="yes"/>
      <point x="250.36" y="1060.97"/>
      <point x="277.667" y="1018.5"/>
      <point x="331" y="987.501" type="curve" smooth="yes"/>
      <point x="384.333" y="956.501"/>
      <point x="439.333" y="955.334"/>
      <point x="496" y="984.001" type="curve" smooth="yes"/>
      <point x="559.535" y="1017.09"/>
      <point x="577.868" y="1005.43"/>
      <point x="550.999" y="949.001" type="curve" smooth="yes"/>
      <point x="535.666" y="916.334"/>
      <point x="506.333" y="894.834"/>
      <point x="463" y="884.501" type="curve" smooth="yes"/>
      <point x="419.667" y="874.168"/>
      <point x="372.834" y="876.168"/>
      <point x="322.501" y="890.501" type="curve" smooth="yes"/>
      <point x="272.168" y="904.834"/>
      <point x="230.335" y="929.001"/>
      <point x="197.002" y="963.001" type="curve" smooth="yes"/>
      <point x="164.335" y="997.668"/>
      <point x="143.168" y="1025.5"/>
      <point x="133.501" y="1046.5" type="curve" smooth="yes"/>
      <point x="123.834" y="1067.5"/>
      <point x="117.667" y="1098"/>
      <point x="115" y="1138" type="curve" smooth="yes"/>
      <point x="109.667" y="1229.33"/>
      <point x="131" y="1301.17"/>
      <point x="179" y="1353.5" type="curve" smooth="yes"/>
      <point x="227" y="1405.83"/>
      <point x="306" y="1443.33"/>
    </contour>
  </outline>
</glyph>
<glyph name="G" format="2">
  <advance width="1185"/>
  <unicode hex="0047"/>
  <outline>
    <contour>
      <point x="857" y="1408" type="curve" smooth="yes"/>
      <point x="793" y="1422.67"/>
      <point x="726.166" y="1411.67"/>
      <point x="656.499" y="1375" type="curve" smooth="yes"/>
      <point x="586.832" y="1338.34"/>
      <point x="521.999" y="1280.34"/>
      <point x="461.999" y="1201" type="curve" smooth="yes"/>
      <point x="447.332" y="1181"/>
      <point x="436.112" y="1167.64"/>
      <point x="428.339" y="1160.9" type="curve" smooth="yes"/>
      <point x="420.565" y="1154.16"/>
      <point x="382.785" y="1077.2"/>
      <point x="314.999" y="930.004" type="curve" smooth="yes"/>
      <point x="265.666" y="818.671"/>
      <point x="242.999" y="713.004"/>
      <point x="246.999" y="613.004" type="curve" smooth="yes"/>
      <point x="250.999" y="513.004"/>
      <point x="281.332" y="446.004"/>
      <point x="337.999" y="412.004" type="curve" smooth="yes"/>
      <point x="411.332" y="367.337"/>
      <point x="492.499" y="366.17"/>
      <point x="581.499" y="408.503" type="curve" smooth="yes"/>
      <point x="670.499" y="450.836"/>
      <point x="751.166" y="528.836"/>
      <point x="823.499" y="642.503" type="curve" smooth="yes"/>
      <point x="895.832" y="756.17"/>
      <point x="943.832" y="826.003"/>
      <point x="967.499" y="852.003" type="curve" smooth="yes"/>
      <point x="991.166" y="878.003"/>
      <point x="1003" y="899.67"/>
      <point x="1003" y="917.003" type="curve" smooth="yes"/>
      <point x="1002.33" y="919.67"/>
      <point x="997.932" y="921.003"/>
      <point x="989.798" y="921.003" type="curve" smooth="yes"/>
      <point x="981.664" y="921.003"/>
      <point x="973.831" y="916.17"/>
      <point x="966.298" y="906.503" type="curve" smooth="yes"/>
      <point x="958.765" y="896.836"/>
      <point x="929.498" y="877.169"/>
      <point x="878.498" y="847.502" type="curve" smooth="yes"/>
      <point x="827.498" y="817.835"/>
      <point x="784.498" y="796.835"/>
      <point x="749.498" y="784.502" type="curve" smooth="yes"/>
      <point x="714.498" y="772.169"/>
      <point x="668.831" y="765.502"/>
      <point x="612.498" y="764.502" type="curve" smooth="yes"/>
      <point x="556.165" y="763.502"/>
      <point x="511.665" y="771.169"/>
      <point x="478.998" y="787.502" type="curve" smooth="yes"/>
      <point x="446.331" y="803.835"/>
      <point x="426.831" y="822.168"/>
      <point x="420.498" y="842.501" type="curve" smooth="yes"/>
      <point x="414.165" y="862.834"/>
      <point x="420.665" y="874.667"/>
      <point x="439.998" y="878" type="curve" smooth="yes"/>
      <point x="451.331" y="880"/>
      <point x="465.331" y="878.667"/>
      <point x="481.998" y="874" type="curve" smooth="yes"/>
      <point x="608.665" y="837.333"/>
      <point x="718.998" y="858"/>
      <point x="812.998" y="936" type="curve" smooth="yes"/>
      <point x="879.665" y="991.333"/>
      <point x="924.332" y="1061"/>
      <point x="946.999" y="1145" type="curve" smooth="yes"/>
      <point x="969.666" y="1229"/>
      <point x="966.333" y="1296.67"/>
      <point x="937" y="1348" type="curve" smooth="yes"/>
      <point x="919" y="1380"/>
      <point x="892.333" y="1400"/>
    </contour>
    <contour>
      <point x="393.499" y="1351" type="curve" smooth="yes"/>
      <point x="492.499" y="1428.34"/>
      <point x="585.158" y="1472.5"/>
      <point x="671.491" y="1483.5" type="curve" smooth="yes"/>
      <point x="757.824" y="1494.5"/>
      <point x="830.824" y="1492.33"/>
      <point x="890.491" y="1477" type="curve" smooth="yes"/>
      <point x="950.158" y="1461.67"/>
      <point x="996.658" y="1436"/>
      <point x="1029.99" y="1400" type="curve" smooth="yes"/>
      <point x="1063.32" y="1364"/>
      <point x="1084.82" y="1319.33"/>
      <point x="1094.49" y="1266" type="curve" smooth="yes"/>
      <point x="1104.16" y="1212.67"/>
      <point x="1096.99" y="1153"/>
      <point x="1072.99" y="1087" type="curve" smooth="yes"/>
      <point x="1067.66" y="1069.67"/>
      <point x="1060.33" y="1048"/>
      <point x="1050.99" y="1022" type="curve" smooth="yes"/>
      <point x="1041.66" y="996"/>
      <point x="1035.33" y="978.167"/>
      <point x="1031.99" y="968.5" type="curve" smooth="yes"/>
      <point x="1028.66" y="958.833"/>
      <point x="1029.16" y="952.333"/>
      <point x="1033.49" y="949" type="curve" smooth="yes"/>
      <point x="1037.83" y="945.667"/>
      <point x="1055.99" y="948.667"/>
      <point x="1087.99" y="958" type="curve" smooth="yes"/>
      <point x="1119.99" y="967.333"/>
      <point x="1139.83" y="962"/>
      <point x="1147.49" y="942" type="curve" smooth="yes"/>
      <point x="1155.16" y="922"/>
      <point x="1145.83" y="890.167"/>
      <point x="1119.49" y="846.5" type="curve" smooth="yes"/>
      <point x="1067.63" y="760.495"/>
      <point x="1013.75" y="610.744"/>
      <point x="957.845" y="397.247" type="curve" smooth="yes"/>
      <point x="901.944" y="183.75"/>
      <point x="841.327" y="23.001"/>
      <point x="775.994" y="-84.999" type="curve" smooth="yes"/>
      <point x="710.661" y="-192.999"/>
      <point x="636.994" y="-266.666"/>
      <point x="554.994" y="-305.999" type="curve" smooth="yes"/>
      <point x="492.994" y="-335.999"/>
      <point x="419.327" y="-345.499"/>
      <point x="333.994" y="-334.499" type="curve" smooth="yes"/>
      <point x="248.661" y="-323.499"/>
      <point x="181.494" y="-296.499"/>
      <point x="132.494" y="-253.499" type="curve" smooth="yes"/>
      <point x="83.4941" y="-210.499"/>
      <point x="52.8271" y="-157.999"/>
      <point x="40.4941" y="-95.999" type="curve" smooth="yes"/>
      <point x="28.1611" y="-33.999"/>
      <point x="34.3281" y="25.334"/>
      <point x="58.9951" y="82.001" type="curve" smooth="yes"/>
      <point x="83.6621" y="138.668"/>
      <point x="122.995" y="180.001"/>
      <point x="176.995" y="206.001" type="curve" smooth="yes"/>
      <point x="265.662" y="250.001"/>
      <point x="321.662" y="266.168"/>
      <point x="344.995" y="254.501" type="curve" smooth="yes"/>
      <point x="368.328" y="242.834"/>
      <point x="383.495" y="232.001"/>
      <point x="390.495" y="222.001" type="curve" smooth="yes"/>
      <point x="403.418" y="203.54"/>
      <point x="387.065" y="182.092"/>
      <point x="341.438" y="157.655" type="curve" smooth="yes"/>
      <point x="295.81" y="133.219"/>
      <point x="259.662" y="100.334"/>
      <point x="232.995" y="59.001" type="curve" smooth="yes"/>
      <point x="206.328" y="17.668"/>
      <point x="191.828" y="-23.165"/>
      <point x="189.495" y="-63.498" type="curve" smooth="yes"/>
      <point x="187.162" y="-103.831"/>
      <point x="197.329" y="-141.331"/>
      <point x="219.996" y="-175.998" type="curve" smooth="yes"/>
      <point x="242.663" y="-210.665"/>
      <point x="276.33" y="-234.332"/>
      <point x="320.997" y="-246.999" type="curve" smooth="yes"/>
      <point x="388.33" y="-266.332"/>
      <point x="454.83" y="-240.332"/>
      <point x="520.497" y="-168.999" type="curve" smooth="yes"/>
      <point x="586.164" y="-97.666"/>
      <point x="639.997" y="7.33398"/>
      <point x="681.997" y="146.001" type="curve" smooth="yes"/>
      <point x="691.33" y="180.001"/>
      <point x="708.33" y="234.001"/>
      <point x="732.997" y="308.001" type="curve" smooth="yes"/>
      <point x="757.664" y="382.001"/>
      <point x="765.831" y="421.668"/>
      <point x="757.498" y="427.001" type="curve" smooth="yes"/>
      <point x="749.165" y="432.334"/>
      <point x="727.165" y="421.834"/>
      <point x="691.498" y="395.501" type="curve" smooth="yes"/>
      <point x="655.831" y="369.168"/>
      <point x="634.331" y="352.335"/>
      <point x="626.998" y="345.002" type="curve" smooth="yes"/>
      <point x="619.665" y="337.669"/>
      <point x="599.998" y="328.336"/>
      <point x="567.998" y="317.003" type="curve" smooth="yes"/>
      <point x="535.998" y="305.67"/>
      <point x="507.998" y="298.337"/>
      <point x="483.998" y="295.004" type="curve" smooth="yes"/>
      <point x="419.331" y="285.671"/>
      <point x="348.331" y="299.504"/>
      <point x="270.998" y="336.504" type="curve" smooth="yes"/>
      <point x="193.665" y="373.504"/>
      <point x="147.332" y="415.671"/>
      <point x="131.999" y="463.004" type="curve" smooth="yes"/>
      <point x="126.666" y="481.004"/>
      <point x="116.333" y="504.004"/>
      <point x="101" y="532.004" type="curve" smooth="yes"/>
      <point x="69.667" y="586.671"/>
      <point x="60.167" y="667.004"/>
      <point x="72.5" y="773.004" type="curve" smooth="yes"/>
      <point x="84.833" y="879.004"/>
      <point x="116.666" y="982.504"/>
      <point x="167.999" y="1083.5" type="curve" smooth="yes"/>
      <point x="219.332" y="1184.5"/>
      <point x="294.499" y="1273.67"/>
    </contour>
  </outline>
</glyph>
<glyph name="H" format="2">
  <advance width="1900"/>
  <unicode hex="0048"/>
  <outline>
    <contour>
      <point x="644" y="605" type="curve" smooth="yes"/>
      <point x="644" y="619"/>
      <point x="637.833" y="626.666"/>
      <point x="625.5" y="627.999" type="curve" smooth="yes"/>
      <point x="613.167" y="629.332"/>
      <point x="591.667" y="625.332"/>
      <point x="561" y="615.999" type="curve" smooth="yes"/>
      <point x="530.333" y="606.666"/>
      <point x="488" y="598.999"/>
      <point x="434" y="592.999" type="curve" smooth="yes"/>
      <point x="380" y="586.999"/>
      <point x="329.833" y="569.666"/>
      <point x="283.5" y="540.999" type="curve" smooth="yes"/>
      <point x="237.167" y="512.332"/>
      <point x="204.334" y="478.832"/>
      <point x="185.001" y="440.499" type="curve" smooth="yes"/>
      <point x="165.668" y="402.166"/>
      <point x="160.668" y="359.833"/>
      <point x="170.001" y="313.5" type="curve" smooth="yes"/>
      <point x="179.334" y="267.167"/>
      <point x="201.834" y="226.5"/>
      <point x="237.501" y="191.5" type="curve" smooth="yes"/>
      <point x="306.515" y="123.775"/>
      <point x="386.682" y="136.275"/>
      <point x="478.001" y="229" type="curve" smooth="yes"/>
      <point x="515.334" y="267"/>
      <point x="552.167" y="327.5"/>
      <point x="588.5" y="410.5" type="curve" smooth="yes"/>
      <point x="624.833" y="493.5"/>
      <point x="643.333" y="558.333"/>
    </contour>
    <contour>
      <point x="1775.5" y="1355.5" type="curve" smooth="yes"/>
      <point x="1769.83" y="1375.17"/>
      <point x="1755.33" y="1390.83"/>
      <point x="1732" y="1402.5" type="curve" smooth="yes"/>
      <point x="1708.67" y="1414.17"/>
      <point x="1677.33" y="1410"/>
      <point x="1638" y="1390" type="curve" smooth="yes"/>
      <point x="1610" y="1375.33"/>
      <point x="1575.83" y="1334.33"/>
      <point x="1535.5" y="1267" type="curve" smooth="yes"/>
      <point x="1495.17" y="1199.67"/>
      <point x="1464" y="1133.83"/>
      <point x="1442" y="1069.5" type="curve" smooth="yes"/>
      <point x="1420" y="1005.17"/>
      <point x="1418" y="969.667"/>
      <point x="1436" y="963" type="curve" smooth="yes"/>
      <point x="1442" y="961"/>
      <point x="1454.67" y="963.5"/>
      <point x="1474" y="970.5" type="curve" smooth="yes"/>
      <point x="1493.33" y="977.5"/>
      <point x="1506.5" y="985"/>
      <point x="1513.5" y="993" type="curve" smooth="yes"/>
      <point x="1520.5" y="1001"/>
      <point x="1538.5" y="1015.67"/>
      <point x="1567.5" y="1037" type="curve" smooth="yes"/>
      <point x="1596.5" y="1058.33"/>
      <point x="1626.33" y="1084.67"/>
      <point x="1657" y="1116" type="curve" smooth="yes"/>
      <point x="1687.67" y="1147.33"/>
      <point x="1712.5" y="1177.5"/>
      <point x="1731.5" y="1206.5" type="curve" smooth="yes"/>
      <point x="1750.5" y="1235.5"/>
      <point x="1764" y="1262.67"/>
      <point x="1772" y="1288" type="curve" smooth="yes"/>
      <point x="1780" y="1313.33"/>
      <point x="1781.17" y="1335.83"/>
    </contour>
    <contour>
      <point x="962.999" y="1376" type="curve" smooth="yes"/>
      <point x="984.999" y="1381.33"/>
      <point x="1001.83" y="1389.83"/>
      <point x="1013.5" y="1401.5" type="curve" smooth="yes"/>
      <point x="1025.17" y="1413.16"/>
      <point x="1035.67" y="1424"/>
      <point x="1045" y="1434" type="curve" smooth="yes"/>
      <point x="1054.33" y="1444"/>
      <point x="1073.83" y="1456.66"/>
      <point x="1103.5" y="1472" type="curve" smooth="yes"/>
      <point x="1133.17" y="1487.33"/>
      <point x="1158" y="1493.16"/>
      <point x="1178" y="1489.5" type="curve" smooth="yes"/>
      <point x="1198" y="1485.83"/>
      <point x="1219" y="1473.83"/>
      <point x="1241" y="1453.5" type="curve" smooth="yes"/>
      <point x="1263" y="1433.16"/>
      <point x="1274.5" y="1412.5"/>
      <point x="1275.5" y="1391.5" type="curve" smooth="yes"/>
      <point x="1276.5" y="1370.5"/>
      <point x="1271.5" y="1352.5"/>
      <point x="1260.5" y="1337.5" type="curve" smooth="yes"/>
      <point x="1231.19" y="1297.53"/>
      <point x="1196.61" y="1288.12"/>
      <point x="1156.76" y="1309.27" type="curve" smooth="yes"/>
      <point x="1116.92" y="1330.42"/>
      <point x="1082.66" y="1327.33"/>
      <point x="1054" y="1300" type="curve" smooth="yes"/>
      <point x="1025.33" y="1272.66"/>
      <point x="1000.83" y="1219.83"/>
      <point x="980.497" y="1141.5" type="curve" smooth="yes"/>
      <point x="960.164" y="1063.16"/>
      <point x="942.831" y="998.996"/>
      <point x="928.498" y="948.996" type="curve" smooth="yes"/>
      <point x="914.165" y="898.996"/>
      <point x="904.498" y="863.496"/>
      <point x="899.498" y="842.496" type="curve" smooth="yes"/>
      <point x="894.498" y="821.496"/>
      <point x="892.498" y="802.496"/>
      <point x="893.498" y="785.496" type="curve" smooth="yes"/>
      <point x="894.498" y="768.496"/>
      <point x="897.831" y="757.329"/>
      <point x="903.498" y="751.996" type="curve" smooth="yes"/>
      <point x="909.165" y="746.663"/>
      <point x="922.321" y="744.394"/>
      <point x="942.968" y="745.188" type="curve" smooth="yes"/>
      <point x="963.614" y="745.981"/>
      <point x="1003.45" y="756.814"/>
      <point x="1062.47" y="777.688" type="curve" smooth="yes"/>
      <point x="1121.49" y="798.561"/>
      <point x="1156.5" y="815.497"/>
      <point x="1167.5" y="828.497" type="curve" smooth="yes"/>
      <point x="1178.5" y="841.497"/>
      <point x="1196.33" y="880.33"/>
      <point x="1221" y="944.997" type="curve" smooth="yes"/>
      <point x="1279.67" y="1101"/>
      <point x="1335.83" y="1218.83"/>
      <point x="1389.5" y="1298.5" type="curve" smooth="yes"/>
      <point x="1443.17" y="1378.16"/>
      <point x="1499.5" y="1431.5"/>
      <point x="1558.5" y="1458.5" type="curve" smooth="yes"/>
      <point x="1617.5" y="1485.5"/>
      <point x="1675.5" y="1492.5"/>
      <point x="1732.5" y="1479.5" type="curve" smooth="yes"/>
      <point x="1789.5" y="1466.5"/>
      <point x="1829.33" y="1439.66"/>
      <point x="1852" y="1399" type="curve" smooth="yes"/>
      <point x="1866.67" y="1372.33"/>
      <point x="1868.67" y="1333.16"/>
      <point x="1858" y="1281.5" type="curve" smooth="yes"/>
      <point x="1847.33" y="1229.83"/>
      <point x="1829.33" y="1190.33"/>
      <point x="1804" y="1163" type="curve" smooth="yes"/>
      <point x="1797.33" y="1157.66"/>
      <point x="1787" y="1145.33"/>
      <point x="1773" y="1126" type="curve" smooth="yes"/>
      <point x="1734.32" y="1072.58"/>
      <point x="1678.3" y="1020.51"/>
      <point x="1604.93" y="969.796" type="curve" smooth="yes"/>
      <point x="1531.56" y="919.077"/>
      <point x="1479.9" y="886.431"/>
      <point x="1449.94" y="871.857" type="curve" smooth="yes"/>
      <point x="1419.98" y="857.284"/>
      <point x="1398.33" y="838.831"/>
      <point x="1385" y="816.498" type="curve" smooth="yes"/>
      <point x="1371.67" y="794.165"/>
      <point x="1356.33" y="750.665"/>
      <point x="1339" y="685.998" type="curve" smooth="yes"/>
      <point x="1277.67" y="428.665"/>
      <point x="1271.5" y="268.832"/>
      <point x="1320.5" y="206.499" type="curve" smooth="yes"/>
      <point x="1369.5" y="144.166"/>
      <point x="1440.17" y="138.666"/>
      <point x="1532.5" y="189.999" type="curve" smooth="yes"/>
      <point x="1624.83" y="241.332"/>
      <point x="1696.33" y="314.999"/>
      <point x="1747" y="410.999" type="curve" smooth="yes"/>
      <point x="1760.33" y="436.332"/>
      <point x="1775.83" y="450.332"/>
      <point x="1793.5" y="452.999" type="curve" smooth="yes"/>
      <point x="1811.17" y="455.666"/>
      <point x="1821" y="447.999"/>
      <point x="1823" y="429.999" type="curve" smooth="yes"/>
      <point x="1824.33" y="419.332"/>
      <point x="1819.5" y="401.832"/>
      <point x="1808.5" y="377.499" type="curve" smooth="yes"/>
      <point x="1797.5" y="353.166"/>
      <point x="1787" y="335.333"/>
      <point x="1777" y="324" type="curve" smooth="yes"/>
      <point x="1767" y="312.667"/>
      <point x="1747.33" y="288.334"/>
      <point x="1718" y="251.001" type="curve" smooth="yes"/>
      <point x="1659.33" y="175.001"/>
      <point x="1592.5" y="122.501"/>
      <point x="1517.5" y="93.501" type="curve" smooth="yes"/>
      <point x="1442.5" y="64.501"/>
      <point x="1367.83" y="62.334"/>
      <point x="1293.5" y="87.001" type="curve" smooth="yes"/>
      <point x="1219.17" y="111.668"/>
      <point x="1167" y="166.168"/>
      <point x="1137" y="250.501" type="curve" smooth="yes"/>
      <point x="1107" y="334.834"/>
      <point x="1101.33" y="444.667"/>
      <point x="1120" y="580" type="curve" smooth="yes"/>
      <point x="1130" y="652.667"/>
      <point x="1132.33" y="694"/>
      <point x="1127" y="704" type="curve" smooth="yes"/>
      <point x="1121.67" y="714"/>
      <point x="1097.17" y="712.167"/>
      <point x="1053.5" y="698.5" type="curve" smooth="yes"/>
      <point x="1009.83" y="684.833"/>
      <point x="965.666" y="674.833"/>
      <point x="920.999" y="668.5" type="curve" smooth="yes"/>
      <point x="876.332" y="662.167"/>
      <point x="853.999" y="648"/>
      <point x="853.999" y="626" type="curve" smooth="yes"/>
      <point x="853.999" y="616.667"/>
      <point x="837.499" y="570.167"/>
      <point x="804.499" y="486.5" type="curve" smooth="yes"/>
      <point x="771.499" y="402.833"/>
      <point x="745.999" y="344.166"/>
      <point x="727.999" y="310.499" type="curve" smooth="yes"/>
      <point x="709.999" y="276.832"/>
      <point x="679.332" y="238.165"/>
      <point x="635.999" y="194.498" type="curve" smooth="yes"/>
      <point x="592.666" y="150.831"/>
      <point x="552.833" y="120.164"/>
      <point x="516.5" y="102.497" type="curve" smooth="yes"/>
      <point x="480.167" y="84.8301"/>
      <point x="430.167" y="75.4971"/>
      <point x="366.5" y="74.4971" type="curve" smooth="yes"/>
      <point x="302.833" y="73.4971"/>
      <point x="254" y="81.6641"/>
      <point x="220" y="98.9971" type="curve" smooth="yes"/>
      <point x="140.667" y="138.997"/>
      <point x="85.667" y="198.997"/>
      <point x="55" y="278.997" type="curve" smooth="yes"/>
      <point x="24.333" y="358.997"/>
      <point x="28" y="433.997"/>
      <point x="66" y="503.997" type="curve" smooth="yes"/>
      <point x="84.667" y="538.664"/>
      <point x="108" y="569.164"/>
      <point x="136" y="595.497" type="curve" smooth="yes"/>
      <point x="164" y="621.83"/>
      <point x="188.333" y="636.663"/>
      <point x="209" y="639.996" type="curve" smooth="yes"/>
      <point x="229.667" y="643.329"/>
      <point x="257" y="649.996"/>
      <point x="291" y="659.996" type="curve" smooth="yes"/>
      <point x="325" y="669.996"/>
      <point x="387.333" y="678.829"/>
      <point x="478" y="686.496" type="curve" smooth="yes"/>
      <point x="568.667" y="694.163"/>
      <point x="617.834" y="698.33"/>
      <point x="625.501" y="698.997" type="curve" smooth="yes"/>
      <point x="633.168" y="699.664"/>
      <point x="642.668" y="702.664"/>
      <point x="654.001" y="707.997" type="curve" smooth="yes"/>
      <point x="665.334" y="713.33"/>
      <point x="674.688" y="721.067"/>
      <point x="682.063" y="731.209" type="curve" smooth="yes"/>
      <point x="689.438" y="741.351"/>
      <point x="704.721" y="790.981"/>
      <point x="727.91" y="880.102" type="curve" smooth="yes"/>
      <point x="751.1" y="969.222"/>
      <point x="775.245" y="1045.82"/>
      <point x="800.348" y="1109.89" type="curve" smooth="yes"/>
      <point x="833.186" y="1193.71"/>
      <point x="851.4" y="1243.83"/>
      <point x="854.992" y="1260.24" type="curve" smooth="yes"/>
      <point x="858.584" y="1276.66"/>
      <point x="856.655" y="1287.53"/>
      <point x="849.206" y="1292.85" type="curve" smooth="yes"/>
      <point x="841.757" y="1298.17"/>
      <point x="827.021" y="1300.22"/>
      <point x="805.001" y="1299" type="curve" smooth="yes"/>
      <point x="475.341" y="1293.2"/>
      <point x="289.674" y="1213.53"/>
      <point x="248.001" y="1060" type="curve" smooth="yes"/>
      <point x="235.334" y="1013.33"/>
      <point x="240.001" y="971.164"/>
      <point x="262.001" y="933.497" type="curve" smooth="yes"/>
      <point x="284.001" y="895.83"/>
      <point x="320.001" y="870.663"/>
      <point x="370.001" y="857.996" type="curve" smooth="yes"/>
      <point x="396.001" y="851.329"/>
      <point x="411.168" y="841.329"/>
      <point x="415.501" y="827.996" type="curve" smooth="yes"/>
      <point x="419.834" y="814.663"/>
      <point x="413.667" y="801.33"/>
      <point x="397" y="787.997" type="curve" smooth="yes"/>
      <point x="380.333" y="774.664"/>
      <point x="364.5" y="767.831"/>
      <point x="349.5" y="767.498" type="curve" smooth="yes"/>
      <point x="334.5" y="767.165"/>
      <point x="312.333" y="772.665"/>
      <point x="283" y="783.998" type="curve" smooth="yes"/>
      <point x="224.333" y="805.998"/>
      <point x="177.333" y="843.665"/>
      <point x="142" y="896.998" type="curve" smooth="yes"/>
      <point x="106.667" y="950.331"/>
      <point x="89.667" y="1007.5"/>
      <point x="91" y="1068.5" type="curve" smooth="yes"/>
      <point x="92.333" y="1129.5"/>
      <point x="115.666" y="1184.17"/>
      <point x="160.999" y="1232.5" type="curve" smooth="yes"/>
      <point x="206.332" y="1280.83"/>
      <point x="270.332" y="1315"/>
      <point x="352.999" y="1335" type="curve" smooth="yes"/>
      <point x="435.666" y="1355"/>
      <point x="552.499" y="1365.5"/>
      <point x="703.499" y="1366.5" type="curve" smooth="yes"/>
      <point x="854.499" y="1367.5"/>
      <point x="940.999" y="1370.67"/>
    </contour>
  </outline>
</glyph>
<glyph name="I" format="2">
  <advance width="1403"/>
  <unicode hex="0049"/>
  <outline>
    <contour>
      <point x="1127.5" y="1395" type="curve" smooth="yes"/>
      <point x="1161.83" y="1402.33"/>
      <point x="1197.17" y="1414.67"/>
      <point x="1233.5" y="1432" type="curve" smooth="yes"/>
      <point x="1269.83" y="1449.33"/>
      <point x="1298.33" y="1459.5"/>
      <point x="1319" y="1462.5" type="curve" smooth="yes"/>
      <point x="1339.67" y="1465.5"/>
      <point x="1353.83" y="1461.5"/>
      <point x="1361.5" y="1450.5" type="curve" smooth="yes"/>
      <point x="1369.17" y="1439.5"/>
      <point x="1370.83" y="1422.83"/>
      <point x="1366.5" y="1400.5" type="curve" smooth="yes"/>
      <point x="1362.17" y="1378.17"/>
      <point x="1355.83" y="1363.33"/>
      <point x="1347.5" y="1356" type="curve" smooth="yes"/>
      <point x="1339.17" y="1348.67"/>
      <point x="1323" y="1342.33"/>
      <point x="1299" y="1337" type="curve" smooth="yes"/>
      <point x="1259" y="1328.33"/>
      <point x="1218.33" y="1287.83"/>
      <point x="1177" y="1215.5" type="curve" smooth="yes"/>
      <point x="1135.67" y="1143.17"/>
      <point x="1084.33" y="1023.67"/>
      <point x="1023" y="857" type="curve" smooth="yes"/>
      <point x="988.002" y="762.5" type="line" smooth="yes"/>
      <point x="978.002" y="735.5"/>
      <point x="965.002" y="700.5"/>
      <point x="949.002" y="657.5" type="curve" smooth="yes"/>
      <point x="933.002" y="614.5"/>
      <point x="914.502" y="560.5"/>
      <point x="893.502" y="495.5" type="curve" smooth="yes"/>
      <point x="872.502" y="430.5"/>
      <point x="839.335" y="361.167"/>
      <point x="794.002" y="287.5" type="curve" smooth="yes"/>
      <point x="710.155" y="151.25"/>
      <point x="609.759" y="62.2158"/>
      <point x="492.812" y="20.3984" type="curve" smooth="yes"/>
      <point x="375.864" y="-21.4189"/>
      <point x="271.595" y="-5.55176"/>
      <point x="180.002" y="68" type="curve" smooth="yes"/>
      <point x="115.335" y="119.333"/>
      <point x="71.835" y="183.333"/>
      <point x="49.502" y="260" type="curve" smooth="yes"/>
      <point x="27.1689" y="336.667"/>
      <point x="29.002" y="409.834"/>
      <point x="55.002" y="479.501" type="curve" smooth="yes"/>
      <point x="81.002" y="549.168"/>
      <point x="127.335" y="600.335"/>
      <point x="194.002" y="633.002" type="curve" smooth="yes"/>
      <point x="312.032" y="684.991"/>
      <point x="414.699" y="681.658"/>
      <point x="502.002" y="623.002" type="curve" smooth="yes"/>
      <point x="544.669" y="594.335"/>
      <point x="573.502" y="554.335"/>
      <point x="588.502" y="503.002" type="curve" smooth="yes"/>
      <point x="603.502" y="451.669"/>
      <point x="600.835" y="394.169"/>
      <point x="580.502" y="330.502" type="curve" smooth="yes"/>
      <point x="560.169" y="266.835"/>
      <point x="537.002" y="229.668"/>
      <point x="511.002" y="219.001" type="curve" smooth="yes"/>
      <point x="498.335" y="214.334"/>
      <point x="486.335" y="217.001"/>
      <point x="475.002" y="227.001" type="curve" smooth="yes"/>
      <point x="464.335" y="237.001"/>
      <point x="459.168" y="246.168"/>
      <point x="459.501" y="254.501" type="curve" smooth="yes"/>
      <point x="459.834" y="262.834"/>
      <point x="469.001" y="280.001"/>
      <point x="487.001" y="306.001" type="curve" smooth="yes"/>
      <point x="505.001" y="332.001"/>
      <point x="509.668" y="374.834"/>
      <point x="501.001" y="434.501" type="curve" smooth="yes"/>
      <point x="492.334" y="494.168"/>
      <point x="472.167" y="532.335"/>
      <point x="440.5" y="549.002" type="curve" smooth="yes"/>
      <point x="408.833" y="565.669"/>
      <point x="376.666" y="571.836"/>
      <point x="343.999" y="567.503" type="curve" smooth="yes"/>
      <point x="311.332" y="563.17"/>
      <point x="281.999" y="551.67"/>
      <point x="255.999" y="533.003" type="curve" smooth="yes"/>
      <point x="229.999" y="514.336"/>
      <point x="209.166" y="487.503"/>
      <point x="193.499" y="452.503" type="curve" smooth="yes"/>
      <point x="177.832" y="417.503"/>
      <point x="169.999" y="378.17"/>
      <point x="169.999" y="334.503" type="curve" smooth="yes"/>
      <point x="169.999" y="290.836"/>
      <point x="178.166" y="252.336"/>
      <point x="194.499" y="219.003" type="curve" smooth="yes"/>
      <point x="210.832" y="185.67"/>
      <point x="231.832" y="160.67"/>
      <point x="257.499" y="144.003" type="curve" smooth="yes"/>
      <point x="313.26" y="107.795"/>
      <point x="377.13" y="102.777"/>
      <point x="449.108" y="128.951" type="curve" smooth="yes"/>
      <point x="521.087" y="155.125"/>
      <point x="579.384" y="211.476"/>
      <point x="623.999" y="298.002" type="curve" smooth="yes"/>
      <point x="640.666" y="331.335"/>
      <point x="672.833" y="407.168"/>
      <point x="720.5" y="525.501" type="curve" smooth="yes"/>
      <point x="768.167" y="643.834"/>
      <point x="806.334" y="745.667"/>
      <point x="835.001" y="831" type="curve" smooth="yes"/>
      <point x="863.668" y="916.333"/>
      <point x="918.335" y="1035.67"/>
      <point x="999.002" y="1189" type="curve" smooth="yes"/>
      <point x="1032.21" y="1253.57"/>
      <point x="1045.88" y="1290.48"/>
      <point x="1040" y="1299.72" type="curve" smooth="yes"/>
      <point x="1034.12" y="1308.96"/>
      <point x="1020.99" y="1311.64"/>
      <point x="1000.59" y="1307.79" type="curve" smooth="yes"/>
      <point x="980.199" y="1303.93"/>
      <point x="953.336" y="1297.83"/>
      <point x="920.003" y="1289.5" type="curve" smooth="yes"/>
      <point x="886.67" y="1281.17"/>
      <point x="847.003" y="1274.33"/>
      <point x="801.003" y="1269" type="curve" smooth="yes"/>
      <point x="755.003" y="1263.67"/>
      <point x="687.17" y="1240.83"/>
      <point x="597.503" y="1200.5" type="curve" smooth="yes"/>
      <point x="507.836" y="1160.17"/>
      <point x="447.669" y="1124"/>
      <point x="417.002" y="1092" type="curve" smooth="yes"/>
      <point x="309.002" y="980.001"/>
      <point x="312.002" y="895.668"/>
      <point x="426.002" y="839.001" type="curve" smooth="yes"/>
      <point x="458.002" y="823.001"/>
      <point x="466.002" y="799.668"/>
      <point x="450.002" y="769.001" type="curve" smooth="yes"/>
      <point x="437.05" y="745.976"/>
      <point x="406.269" y="744.717"/>
      <point x="357.658" y="765.225" type="curve" smooth="yes"/>
      <point x="309.048" y="785.732"/>
      <point x="272.619" y="809.322"/>
      <point x="248.372" y="835.994" type="curve" smooth="yes"/>
      <point x="224.125" y="862.666"/>
      <point x="209.668" y="884.669"/>
      <point x="205.001" y="902.002" type="curve" smooth="yes"/>
      <point x="173.001" y="1012"/>
      <point x="216.668" y="1107.17"/>
      <point x="336.001" y="1187.5" type="curve" smooth="yes"/>
      <point x="455.334" y="1267.83"/>
      <point x="636.667" y="1324.67"/>
      <point x="880" y="1358" type="curve" smooth="yes"/>
      <point x="1010.67" y="1375.33"/>
      <point x="1093.17" y="1387.67"/>
    </contour>
  </outline>
</glyph>
